<svg xmlns="http://www.w3.org/2000/svg" viewBox="0 0 205.95 205.95"><defs><style>.cls-1{fill:none;}</style></defs><title>Bembel BounceAsset 39</title><g id="Layer_2" data-name="Layer 2"><g id="WEB"><path d="M95.79,84.51c-.44-1.88-.78-3.61-1.26-5.3S93.44,76,92.87,74.39c-.43-1.21-.23-1.57,1-1.87l1.3-.27c1.07-.2,1.45,0,2,.87a9.64,9.64,0,0,1,1.37,4.74c0,1.76-.08,3.52-.12,5.35a2.76,2.76,0,0,0,.39-.28c1.16-1.25,2.29-2.52,3.48-3.75a2.83,2.83,0,0,0,.77-1.34,9,9,0,0,1,1-2.53c2.32-3.75,5-6.57,9.59-7.77,1.75-.57,2.14-1.2,2.58-1s.4.58.33,1a12.29,12.29,0,0,0-.25,2c0,4.75-2.71,7.85-7,10a6.36,6.36,0,0,1-3.53.77l-.81,0a2.36,2.36,0,0,0-2.42.79c-.89,1-1.8,1.91-2.81,3a3.37,3.37,0,0,0,1.57-.1c2.6-.52,5.2-1.08,7.81-1.56a11.28,11.28,0,0,1,13.28,7.73,22.86,22.86,0,0,1,.36,11.17,45.94,45.94,0,0,1-13.06,24.34,13.09,13.09,0,0,1-6.91,3.72,6.94,6.94,0,0,1-2.87,0c-3.39-.9-6.89-1.21-10.35-1.77-.51-.08-1-.17-1.54-.3-2.63-.67-4.69-2-5.67-4.49a55.79,55.79,0,0,1-2.1-6c-1.59-5.9-3.09-11.82-4.56-17.74a18.06,18.06,0,0,1,.1-9.26A11.61,11.61,0,0,1,78.43,85,7.67,7.67,0,0,1,84,82.73a20.22,20.22,0,0,1,7.37,1A12.36,12.36,0,0,0,95.79,84.51Zm25.77,11.73a15.51,15.51,0,0,0-1.31-7.18,9.44,9.44,0,0,0-10-5.32c-2.78.44-5.53,1.05-8.3,1.59a3.32,3.32,0,0,0-.67.23,11.17,11.17,0,0,1-5.11,1.06,17.67,17.67,0,0,1-6.7-1.78,5.94,5.94,0,0,0-1-.38A15.91,15.91,0,0,0,83,84.32,5.65,5.65,0,0,0,79.2,86.5a10.09,10.09,0,0,0-2,4,16.37,16.37,0,0,0-.08,7.93c1.54,6.18,3.11,12.34,4.75,18.5a53,53,0,0,0,1.89,5.34,5.69,5.69,0,0,0,3.82,3.36,19,19,0,0,0,2.83.61,92.26,92.26,0,0,1,9.63,1.66,5.85,5.85,0,0,0,2.5,0,11.55,11.55,0,0,0,6-3.27A44.23,44.23,0,0,0,119.17,108,32.56,32.56,0,0,0,121.56,96.24ZM114.5,70.62l-9.36,8.14C108.74,79.77,114.89,74.32,114.5,70.62Zm-9.29,5.74a37.65,37.65,0,0,0,7.64-6.74A15.26,15.26,0,0,0,105.21,76.36Zm-8.47,4.78c.2-2.53.52-5.09-1.12-7.45l-1.1.29C95.27,76.42,96,78.78,96.74,81.14Z"/><rect class="cls-1" width="205.95" height="205.95"/></g></g></svg>