<svg xmlns="http://www.w3.org/2000/svg" viewBox="0 0 205.95 205.95"><defs><style>.cls-1{fill:none;}</style></defs><title>Bembel BounceAsset 31</title><g id="Layer_2" data-name="Layer 2"><g id="WEB"><path d="M101.93,66.68c3.82-.53,7.72.28,11.65.79a49.73,49.73,0,0,1,7.71,1.71A20,20,0,0,1,124,70.27a1.07,1.07,0,0,1,.62,1.41,10.63,10.63,0,0,0-.2,2.33c-.41,8-2.34,15.76-3.69,23.61-1,5.53-1.81,11.08-2.66,16.63-.25,1.62-.36,3.26-.49,4.9a1.59,1.59,0,0,1-1.24,1.51,25.59,25.59,0,0,1-2.72.78,51.65,51.65,0,0,1-9.62.91,20.64,20.64,0,0,1-5.49-.87c-1.73-.5-3.46-1-5.21-1.49-1.3-.34-2-1-2.15-2.26-.16-2.08-.39-4.16-.67-6.24-.51-3.89-1.12-7.77-1.61-11.67-.36-2.82-.59-5.65-.86-8.47-.31-3.17-.59-6.33-.89-9.49-.2-2.08-.4-4.17-.61-6.25-.14-1.45-.28-2.9-.45-4.35A1.27,1.27,0,0,1,87,69.73c.87-.35,1.69-.8,2.54-1.2a21.54,21.54,0,0,1,9.13-1.85C99.65,66.67,100.69,66.68,101.93,66.68ZM103,79.77l.91-1.16c.5-.65,1-1.32,1.51-1.92s.93-.67,1.49.07c.84,1.11,1.68,2.22,2.49,3.35.27.37.44.47.8.06.51-.58,1.1-1.1,1.63-1.68.34-.37.53-.33.82.06.84,1.11,1.72,2.19,2.58,3.29.26.33.46.33.76,0,.77-.83,1.56-1.65,2.36-2.45.48-.48.6-.48,1,0s1.09,1.41,1.66,2.1c.13.15.42.36.54.32a1,1,0,0,0,.43-.5,1.72,1.72,0,0,0,.1-.55c.13-1.26.29-2.53.4-3.79s.19-2.76.29-4.14c0-.44-.13-.6-.66-.46-1.5.41-3,.78-4.54,1.15a55.54,55.54,0,0,1-18,1.26c-1.68-.15-3.36-.43-5-.73s-3.15-.64-4.71-1c-.63-.15-1.25-.34-1.88-.51A12.4,12.4,0,0,0,88,74.44a6.4,6.4,0,0,0,.6,1.79c.31.6.79,1.13,1.15,1.71s.84,1.43,1.32,2.24l3.24-3.71L96.72,80c.48.7.49.7,1.06,0s1.25-1.58,1.91-2.35,1-.77,1.61,0S102.35,79,103,79.77ZM88,70.91c.45.2.76.37,1.1.48a25.48,25.48,0,0,0,5.28,1.22c1.93.19,3.83.64,5.77.78a57.81,57.81,0,0,0,20.58-2.15c.25-.08.48-.19.94-.38-1.81-.5-3.37-1.06-5-1.34a81.33,81.33,0,0,0-9.8-1.37,64.71,64.71,0,0,0-12.52.4A17.59,17.59,0,0,0,88,70.91Zm4.8,46c.06,1.34,0,1.37,1.28,1.71,1.59.42,3.14,1,4.74,1.36a25.51,25.51,0,0,0,4.24.78A42.05,42.05,0,0,0,113,120a19.54,19.54,0,0,0,2.49-.69c.54-.17.49-.59.34-.93,0-.11-.49-.11-.74-.09a4.43,4.43,0,0,0-.59.18,52.94,52.94,0,0,1-6.55,1.27,31.7,31.7,0,0,1-13.13-2C94.16,117.59,93.56,117.26,92.83,116.92Zm.79-14.12c.81-1.23,1.53-2.3,2.2-3.4.1-.14,0-.43-.08-.61-.64-1-1.31-2.06-2-3.09-.19-.3-.4-.37-.63,0-.62.88-1.25,1.76-1.82,2.66a.77.77,0,0,0,0,.71C92,100.24,92.77,101.43,93.62,102.8Zm21.52-4.33a1,1,0,0,0-.12-.25c-.75-.89-1.51-1.77-2.28-2.65-.23-.27-.43-.11-.58.08-.65.82-1.32,1.63-1.92,2.48a.68.68,0,0,0,0,.69c.61.84,1.27,1.65,1.91,2.48.22.27.42.33.67,0l2.08-2.51A1.9,1.9,0,0,0,115.14,98.47Zm-8.91-20.23c-.77,1-1.48,1.84-2.14,2.73a.79.79,0,0,0,0,.7c.6.93,1.24,1.85,1.86,2.77.23.33.45.4.73,0,.57-.73,1.18-1.44,1.72-2.19a.76.76,0,0,0,.06-.7C107.8,80.5,107.05,79.44,106.23,78.24Zm-3.2,11c.76-1,1.41-1.8,2-2.64a.78.78,0,0,0,0-.71c-.71-1.08-1.47-2.13-2.29-3.3-.72.93-1.34,1.76-2,2.58a.67.67,0,0,0,0,.91C101.53,87.08,102.22,88.09,103,89.24Zm5.91,16.91c.84-1,1.58-1.93,2.26-2.85a.66.66,0,0,0,0-.68c-.6-.85-1.27-1.65-1.91-2.47-.24-.3-.45-.26-.66,0-.59.8-1.21,1.6-1.78,2.41a.66.66,0,0,0-.08.6C107.45,104.15,108.16,105.09,108.94,106.15ZM99.87,93.58c.71-1,1.27-1.76,1.85-2.53a.67.67,0,0,0,0-.92c-.66-.9-1.29-1.81-1.94-2.73-.19-.26-.4-.39-.65-.06-.53.71-1.09,1.4-1.57,2.14a.89.89,0,0,0,0,.81C98.3,91.34,99,92.37,99.87,93.58Zm2.34,21.72c.37-.52.64-.88.89-1.25.5-.77,1-1.54,1.49-2.3L103,109.37l-.14-.18c-.2-.29-.41-.37-.64,0-.62.93-1.26,1.84-1.85,2.79a.77.77,0,0,0,0,.71C100.89,113.51,101.51,114.33,102.21,115.3Zm7.53-25.83c.74-.92,1.39-1.74,2.06-2.54a.57.57,0,0,0,0-.8c-.6-.8-1.19-1.61-1.78-2.42-.19-.26-.38-.4-.64-.07-.61.75-1.23,1.49-1.79,2.27a.71.71,0,0,0,0,.69C108.25,87.54,109,88.44,109.74,89.47Zm-3.46-1.92c-.7.93-1.31,1.77-2,2.59a.64.64,0,0,0,0,.91c.57.73,1.11,1.48,1.65,2.23.27.38.49.3.73,0,.57-.73,1.17-1.45,1.71-2.2a.73.73,0,0,0,0-.69C107.79,89.44,107.06,88.55,106.28,87.55Zm10,9.71c.44-.5.8-.9,1.15-1.32,1.28-1.55,1.34-1,0-2.55-.56-.66-.83-1.59-1.87-1.88-.59.72-1.21,1.41-1.77,2.15a.68.68,0,0,0,0,.69C114.55,95.3,115.37,96.23,116.25,97.26Zm-19.72,10c.39-.56.68-1,1-1.38l1.42-2.21c-.5-.77-1-1.54-1.48-2.32,0-.06-.09-.12-.13-.19-.23-.36-.45-.39-.7,0-.58.9-1.18,1.79-1.73,2.7a.81.81,0,0,0-.08.72C95.3,105.43,95.88,106.27,96.53,107.24Zm-.22-16c-.62.87-1.15,1.58-1.63,2.32a.69.69,0,0,0,0,.61c.65,1.08,1.34,2.15,2,3.21.17.26.37.27.56,0,.48-.69,1-1.38,1.43-2.09a.66.66,0,0,0,0-.61C97.94,93.52,97.17,92.43,96.31,91.19Zm9.52,19.31a2.29,2.29,0,0,1,.19-.5c.6-.84,1.22-1.67,1.83-2.51l-1.53-2.26c-.1-.16-.23-.31-.34-.46-.23-.33-.45-.41-.72,0-.5.72-1,1.45-1.54,2.15a.69.69,0,0,0,0,.92c.53.71,1,1.43,1.55,2.15A6.12,6.12,0,0,0,105.83,110.5Zm-2.78-12.42,2.21-3-1.62-2.37c-.09-.12-.19-.24-.28-.37-.21-.29-.42-.33-.64,0-.54.75-1.11,1.49-1.61,2.26a.73.73,0,0,0,0,.7C101.69,96.19,102.33,97.05,103.05,98.08Zm-1,1.29a7.57,7.57,0,0,0-.49-.76c-.52-.7-1.07-1.39-1.6-2.08l-1.73,2.22a.62.62,0,0,0-.05.82c.52.76,1,1.53,1.53,2.29.22.34.42.27.63,0,.49-.68,1-1.36,1.48-2A2.73,2.73,0,0,0,102,99.37ZM96.1,82c-.14-.25-.27-.52-.44-.77-.51-.69-1-1.38-1.56-2.07-.62.75-1.26,1.48-1.85,2.25a.66.66,0,0,0,0,.61c.47.83,1,1.63,1.51,2.44.18.27.39.23.57,0,.55-.7,1.1-1.4,1.64-2.11A2.14,2.14,0,0,0,96.1,82Zm3,28.84,1.37-2c1.06-1.56,1.06-1.56-.09-3.08,0-.06-.09-.12-.13-.19-.26-.4-.49-.29-.71,0l-.85,1.23C97.35,108.82,97.36,108.82,99.12,110.82ZM92.91,86.23a2.27,2.27,0,0,0-.15-.34l-1.53-2.42c-.17-.26-.37-.28-.56,0a6.15,6.15,0,0,0-1.26,1.88c-.11.45.47,1,.75,1.57a1.28,1.28,0,0,0,.11.2c.92,1.5.93,1.5,2,.05Zm27.43,4.64c0-.32.07-.51,0-.61-.55-.69-1.13-1.37-1.71-2a.35.35,0,0,0-.3,0c-.48.55-1,1.11-1.41,1.69-.07.1,0,.37.13.5.72.91,1.46,1.81,2.2,2.71.26.31.53.22.62-.11C120.06,92.24,120.21,91.47,120.34,90.87ZM109,97.14c.42-.52.77-.93,1.09-1.35.44-.59,1.23-1.2,1.19-1.76s-.84-1.22-1.32-1.82c0,0-.14-.06-.3-.12-.65.84-1.31,1.69-2,2.53a.55.55,0,0,0,0,.8C108.06,96,108.47,96.51,109,97.14Zm-3.2,4.37a3.3,3.3,0,0,1,.19-.37l.91-1.2c1.22-1.62,1.22-1.62-.14-3.12l-.07-.09c-.23-.31-.44-.27-.66,0-.55.74-1.13,1.48-1.66,2.23-.12.17-.23.47-.15.61.36.58.79,1.13,1.2,1.7A2.91,2.91,0,0,0,105.77,101.51Zm6.7-8.74c.41-.51.76-.92,1.1-1.33,1.22-1.49,1.22-1.49,0-3l-.15-.18c-.2-.28-.42-.33-.66,0-.56.69-1.14,1.36-1.66,2.08a.72.72,0,0,0,0,.68C111.45,91.6,111.94,92.14,112.47,92.77Zm-9.5,8.08c-.41.54-.83,1.08-1.22,1.64-1,1.48-1,.94,0,2.4.72,1.09.75,1.09,1.5,0,.46-.66,1.24-1.33,1.23-2s-.83-1.31-1.3-2C103.13,100.93,103.09,100.92,103,100.85Zm-2.51-21.7-1.72,2.12a1.61,1.61,0,0,0-.34.46,1,1,0,0,0-.05.7c.34.58.75,1.13,1.21,1.79l1.08-1.38c1.36-1.77,1.36-1.77,0-3.54C100.66,79.27,100.62,79.26,100.46,79.15Zm6.5,35.74-.93-1.27c-.27-.36-.5-.32-.73,0a17.85,17.85,0,0,1-1.47,2.06,1.22,1.22,0,0,0,.1,2c.08.09.14.19.21.28.28.38.54.4.82,0l1.74-2.56A4.48,4.48,0,0,0,107,114.89ZM96.46,88.25a3,3,0,0,0,.3-.31c.45-.59.85-1.2,1.34-1.75a.93.93,0,0,0,0-1.31c-1-1.53-1-1.54-2.15,0s-1.17,1.69.1,3.17a.83.83,0,0,0,.15.17A1.37,1.37,0,0,0,96.46,88.25ZM113.52,112c.64-.78,1.28-1.55,1.9-2.33.83-1.06,1-.72-.07-2,0-.06-.11-.12-.15-.18-.25-.33-.49-.35-.75,0-.41.56-.85,1.1-1.28,1.65C112.08,110.57,112.08,110.57,113.52,112Zm2.68-12.24c-.76.92-1.51,1.8-2.24,2.71-.15.19-.36.53-.28.67a7.52,7.52,0,0,0,1,1.24,1,1,0,0,0,.45-.26c.51-.58,1-1.19,1.49-1.78,1-1.24,1-1.23-.1-2.36C116.5,99.89,116.42,99.86,116.2,99.72ZM112,80.41c-.3.34-.51.57-.7.8-.62.76-.62.77-.08,1.54.29.41.58.81.88,1.21,1.05,1.44,1.17,1.43,2.17-.07a.56.56,0,0,0,0-.79C113.54,82.25,112.83,81.39,112,80.41Zm6.43,5.18c.6-.71,1.15-1.3,1.64-1.94a.67.67,0,0,0,.05-.67c-.36-.54-.8-1-1.21-1.55-.19-.24-.39-.23-.58,0-.5.58-1,1.16-1.47,1.78a.57.57,0,0,0,0,.59C117.37,84.39,117.89,85,118.46,85.59Zm-6,18.75c-.57.7-1.16,1.41-1.72,2.13-.87,1.13-.89.78,0,2a2.92,2.92,0,0,0,.21.28c.22.3.42.29.64,0,.44-.58.89-1.16,1.34-1.73,1-1.3,1-1.3-.16-2.51A1.58,1.58,0,0,0,112.41,104.34Zm-18.74,1.59a2.84,2.84,0,0,0-.29.24c-1.08,1.19-1.12,1.7-.21,3a2.14,2.14,0,0,0,.13.19l.94,1.14c.32-.41.63-.83,1-1.23a.88.88,0,0,0,0-1.22c-.44-.57-.81-1.2-1.22-1.8C93.91,106.17,93.8,106.07,93.67,105.93ZM108,113.41a3.27,3.27,0,0,0,.32-.33c.46-.62.91-1.25,1.36-1.87s.55-.77,0-1.56c-.12-.15-.24-.3-.35-.46s-.41-.37-.66,0c-.58.77-1.18,1.53-1.73,2.32a.64.64,0,0,0,0,.6,8.93,8.93,0,0,0,.82,1.12C107.73,113.28,107.86,113.32,108,113.41ZM93.58,92.26c.27-.34.5-.64.72-.94,1.2-1.65,1.19-1.64-.06-3.2-.24-.31-.4-.42-.72-.06-1.5,1.65-1.54,2-.29,3.79C93.31,92,93.43,92.08,93.58,92.26Zm-3.36,4.35.27.11c.62-.89,1.26-1.78,1.86-2.7a.69.69,0,0,0,0-.61c-.36-.63-.77-1.22-1.16-1.84C89.22,93.08,90.13,94.9,90.22,96.61Zm20.92,15.22c-.62.87-1.26,1.73-1.86,2.61a1.47,1.47,0,0,0,.73,1.76c.59.19.61-.46.88-.72a8.83,8.83,0,0,0,.69-.92c1-1.3,1-1.31-.15-2.53A1.82,1.82,0,0,0,111.14,111.83Zm-12,1.89c-.42.64-.75,1.11-1,1.6-.1.19-.2.47-.11.62a8.67,8.67,0,0,0,1.1,1.47,1.68,1.68,0,0,0,1.62.11c.51-.4.55-.86.11-1.47S99.79,114.62,99.13,113.72ZM115.6,84.88l-.3.22C114,86.25,114,86.5,115,87.81c.14.18.29.36.43.55s.37.32.66,0c1.45-1.34,1.46-1.54.14-3-.11-.12-.2-.24-.32-.35A2.64,2.64,0,0,0,115.6,84.88ZM96.81,114.34c.41-.6.78-1.09,1.07-1.62a.79.79,0,0,0,0-.7c-.38-.62-.85-1.2-1.37-1.92-.42.67-.78,1.16-1.06,1.69a.82.82,0,0,0,0,.7C95.87,113.1,96.32,113.67,96.81,114.34Zm20-3.56-.25-.1c-.36.44-.73.88-1.08,1.33-1.11,1.38-1.11,1.38.1,2.71.06.06.09.14.16.17a1.22,1.22,0,0,0,.4.15.48.48,0,0,0,.14-.27C116.48,113.44,116.65,112.11,116.83,110.78Zm-3.36,3.83-2.08,2.86.15.2,3-.82c.38-.11.53-.32.23-.66S114,115.2,113.47,114.61Zm4.59-11.17-.24-.11c-.6.73-1.21,1.46-1.78,2.21a.48.48,0,0,0,0,.49c.33.45.72.86,1.08,1.29l.27-.06ZM94.39,113.68c-.2.21-.29.29-.36.38-.93,1.39-.9,1.49.72,2.17.27.11.62.41.85,0a.9.9,0,0,0,0-.8C95.29,114.87,94.85,114.33,94.39,113.68Zm-3-7.86.27.07c.28-.44.57-.88.82-1.33a.58.58,0,0,0,0-.51c-.46-.8-1-1.58-1.45-2.36l-.23.09C91,103.12,91.21,104.47,91.4,105.82Zm27.75-9.13-.21-.08c-.28.3-.57.59-.84.9-.85,1-.85,1,.08,1.9a3.18,3.18,0,0,0,.48.29ZM121.39,85l-.29-.06c-.35.4-.7.8-1,1.21-.59.7-.59.7,0,1.38a7,7,0,0,0,.69.6Zm-14.68,33.18.16.22c.61-.06,1.22-.1,1.82-.19.42-.07.55-.31.29-.65l-1-1.26ZM88.93,82.75l.3,0c.25-.43.78-.93.69-1.3a4.86,4.86,0,0,0-1.41-2.29C88.67,80.53,88.8,81.64,88.93,82.75Zm3.52,30.63c1-1.26,1-1.33-.31-2.57ZM89.61,89.44l.14,1C90.29,90,90.09,89.73,89.61,89.44Z"/><rect class="cls-1" width="205.95" height="205.95"/></g></g></svg>