<svg xmlns="http://www.w3.org/2000/svg" viewBox="0 0 205.95 205.95"><defs><style>.cls-1{fill:none;}</style></defs><title>Bembel BounceAsset 38</title><g id="Layer_2" data-name="Layer 2"><g id="WEB"><path d="M112.1,73a20.9,20.9,0,0,1-1.86-1.47,2.22,2.22,0,0,1,.3-3.65,2.35,2.35,0,0,0,.26-.22,1.63,1.63,0,0,0,0-.31A3.54,3.54,0,0,1,113.76,63a4.25,4.25,0,0,0,1.27-.55,20.62,20.62,0,0,1,2.62-1.08c.61-.21,1.28-.29,1.91-.45a4.26,4.26,0,0,1,5.23,2.15,3.19,3.19,0,0,1,.28,1.8A2.12,2.12,0,0,0,126,67c1.38,1,1.47,2.2.42,3.61a1.08,1.08,0,0,0-.15,1.29,2.89,2.89,0,0,1,0,2.55,1.52,1.52,0,0,1-1.43,1c-.9,0-.9.06-1.07.87-.21,1-.83.93-1.2.89s-.51-.07-1.33.67A9.83,9.83,0,0,0,123.59,81c.1.1.23.19.34.28a2.42,2.42,0,0,1,.86,3.17,19.43,19.43,0,0,0-.58,2.79c-.43,1.81-.9,3.62-1.37,5.42-.26,1-.59,2-.84,3a4.58,4.58,0,0,1-1.17,2.2c-.8.8-1.59,1.61-2.38,2.43a3.65,3.65,0,0,1-3.15,1.24c-.73-.08-.86-.24-1.09-1-.47-1.49-1-3-1.48-4.44a4.61,4.61,0,0,0-2.59,2.2c.81.84,1.63,1.66,2.4,2.53a2.66,2.66,0,0,1,.57,1,3.19,3.19,0,0,0,1.1,1.59c.53.5,1,1,1.52,1.56.89.93,1.73,1.9,2.67,2.77a2.18,2.18,0,0,1,.57,2.85c-.71,1.4-1.38,2.83-2.12,4.21-.86,1.62-1.76,3.21-2.66,4.8-.68,1.21-1.4,2.41-2.08,3.62a7.58,7.58,0,0,0-.58,1.3,4.16,4.16,0,0,0,.23,2.22,7.48,7.48,0,0,0,2.37,2.16c.75.37,2,.54,2.94,1l.61.26c.41.19.8.43.78,1a1.09,1.09,0,0,1-.81.95c-2.51.89-5.05,1.61-7.69.54a5.84,5.84,0,0,1-1.38-1c-.45-.36-.84-.81-1.32-1.13s-.71-.11-.86.34,0,1-.48,1.05a3.67,3.67,0,0,1-1.37,0,2,2,0,0,1-.89-1.4,13.18,13.18,0,0,1,.67-4.13,2.92,2.92,0,0,1,.58-1,3.23,3.23,0,0,0,.76-1.77,23.06,23.06,0,0,1,2.58-7.3,51,51,0,0,0,2-4.73.9.9,0,0,0-.47-1.28c-1.33-.69-2.64-1.41-4-2.07a1.38,1.38,0,0,0-1.49.24,5.39,5.39,0,0,0,.39,1,3.39,3.39,0,0,1,.3,2.76c-.52,2.09-1.06,4.18-1.67,6.25-.69,2.36-1.44,4.69-2.2,7a11.63,11.63,0,0,0-.47,4.34c0,1-.33,1.63.22,2.58.21.35,0,1.3.43,1.73.56,1,1.22,2.62,2.36,3.34a2.39,2.39,0,0,1,1.15,1.89,1.38,1.38,0,0,1-1.49,1.31c-1.21.53-5.19-1.59-5.94-2a7.12,7.12,0,0,1-1.08-1c-.47-.54-.65-.76-1.43-.77-.4,0-.52-.82-.55-1.22-.14-1.92-.17-3,1.16-4.63a1.53,1.53,0,0,0,.24-1.21,20.28,20.28,0,0,1-.18-9.36,22.6,22.6,0,0,1,1.56-5.24c.31-.7.57-1.42.87-2.19-.62-.48-1.21-.9-1.76-1.38a32,32,0,0,1-2.5-2.29,1.57,1.57,0,0,0-1.23-.55c-1.27-.06-2.55-.15-3.83-.27s-1.5-.41-1.44-1.75c.08-1.61.12-3.21.11-4.82,0-1.28-.12-2.56-.16-3.84a10.77,10.77,0,0,1,1.74-6A38.38,38.38,0,0,1,92,87.41a10,10,0,0,1,6.13-3.32c.19,0,1.7-.22,1.91-1a15.11,15.11,0,0,1,.74-1.74,6.07,6.07,0,0,0-2.08-1c-.27-.1-.58-.13-.85-.24A5.82,5.82,0,0,0,95.62,80a2.29,2.29,0,0,1-2.07-.79,1.5,1.5,0,0,0-1.33-.58c-.61,0-1.23,0-2,0l-.51-.74c-1.14,0-2.3-.11-3.47-.14-2.12,0-4.24-.1-6.37-.11a4.05,4.05,0,0,0-1.27.26,5.77,5.77,0,0,1-4.59-.19c-.41-.2-.92-.23-1.35-.41a1.65,1.65,0,0,1-.86-.55c-.21-.43.14-.74.52-.95a.93.93,0,0,0,.18-.2l-.69-.82a1.9,1.9,0,0,1,0-2.83,2.26,2.26,0,0,1,3.1-.78,32.85,32.85,0,0,1,4,2.28,2.56,2.56,0,0,0,1.71.55c1.67-.18,3.35-.35,5-.51,1.35-.12,2.69-.22,4-.36a1.09,1.09,0,0,0,.72-.34c.37-.62.86-.56,1.43-.39a4,4,0,0,0,2.82,0,1.17,1.17,0,0,1,1.4.33c.76,1,3,1.32,4,1.18,1.53-.22,4-.34,6-.54a9.38,9.38,0,0,0,1.18-.2,3,3,0,0,1,2.54.22.57.57,0,0,0,.4.13C110.83,73.35,111.42,73.19,112.1,73Zm-20.49.66c-.11.67-.22,1.24-.31,1.81-.29,1.84-.28,1.85,1.54,1.79a1.44,1.44,0,0,1,1.33.58c.72.91.8.93,1.93.49a1.54,1.54,0,0,1,1.65.2,2.86,2.86,0,0,0,.74.46c1,.38,2.07.73,3.1,1.08s1.12.63.64,1.62a13.51,13.51,0,0,0-.75,1.7c-.71,2.13-.13,2.25-2,2.27-2.63,0-5.72,2.11-6.84,3.37-.58.66-1.28,2-1.94,2.92a11.36,11.36,0,0,0-2.09,6.81c.05,2.56.61,5.1.21,7.67-.07.46.22.67.64.71,1,.08,2.11.19,3.17.19a27.26,27.26,0,0,1,6.11.55,4.22,4.22,0,0,0,2.06,0A29.45,29.45,0,0,0,111,102.7a8.27,8.27,0,0,0,.7-.72l-2.21-2a21.53,21.53,0,0,1-1.85-1.71c-.61-.72-.44-1.29.44-1.61a15.88,15.88,0,0,0,4.08-2.38c.1-1.26.2-2.46.27-3.66a1.08,1.08,0,0,0-.18-.6,3.23,3.23,0,0,1,0-3.25c.16-.32.3-.64.46-1A3.73,3.73,0,0,1,111.18,82c.17-1.49.37-3,.54-4.47.11-1,.21-1.93.34-3.08a7.29,7.29,0,0,0-1.39.23,1.7,1.7,0,0,1-1.46,0,3.59,3.59,0,0,0-1.47-.18c-.48,0-.94.15-1.41.19-1.39.12-2.77.22-4.16.31-1.09.07-2.19.09-3.28.19a3.86,3.86,0,0,1-3.59-1.45s-.13,0-.2-.07C93.21,74.33,93.21,74.33,91.61,73.67Zm18.58,52.9c-.48-2.36.87-4.07,2-5.87.34-.56.65-1.14,1-1.72.93-1.66,1.88-3.3,2.78-5,.67-1.26,1.26-2.56,1.9-3.83a1.08,1.08,0,0,0-.3-1.45c-.9-.85-1.76-1.76-2.62-2.65s-1.6-1.68-2.36-2.49l-5.72,3.7c.69.32,1.26.55,1.79.84.84.45,1.66.92,2.46,1.43a1.37,1.37,0,0,1,.58,1.64,17.46,17.46,0,0,1-.65,2c-.67,1.58-1.35,3.15-2.16,4.67a18.4,18.4,0,0,0-2,6.35,5.76,5.76,0,0,1-.73,1.68,3.11,3.11,0,0,1-.4.55C107.24,126.64,108.66,127,110.19,126.57ZM95.11,108.86l-.09.21c.29.27.56.56.87.8.81.63,1.63,1.24,2.45,1.86s1,1,.63,2.16c-.25.68-.52,1.37-.79,2a22.63,22.63,0,0,0-1.62,11.38c.09.72.28,1.43.44,2.14a2.42,2.42,0,0,1-.52,2.46,2.52,2.52,0,0,0-.27.54l3.23-.35c0-.43,0-.75,0-1.06a18.88,18.88,0,0,1,1-7.33c1.26-3.82,2.28-7.71,3.41-11.57a3.43,3.43,0,0,0-.39-2.74c-.36-.62-.45-.72-1.12-.43a7.89,7.89,0,0,1-4.85.22C96.7,109,95.9,109,95.11,108.86Zm26.68-33.54.34.2c.21-.2.51-.37.63-.62a1.48,1.48,0,0,1,1.39-.87c.88-.07,1.08-.35.89-1.19a7.83,7.83,0,0,0-.34-.92,1.66,1.66,0,0,1,.35-1.91c.88-.91.83-1.42-.23-2.11a2.33,2.33,0,0,1-1.15-2.4,6.77,6.77,0,0,0,0-1.1,1.73,1.73,0,0,0-.22-.82,2.75,2.75,0,0,0-2.87-1.41,38.69,38.69,0,0,0-3.82.94,3.55,3.55,0,0,0-1.2.73,2.51,2.51,0,0,1-1.39.56,2,2,0,0,0-1.82,2.81,1.12,1.12,0,0,1-.48,1.52c-.14.11-.31.18-.46.29-.71.49-.76.85-.18,1.51a7.17,7.17,0,0,0,.86.71A8.5,8.5,0,0,1,112.3,70a3.26,3.26,0,0,1,.52-1.28,1.4,1.4,0,0,0,.25-1.76,1.45,1.45,0,0,1,1.45-2.07,1.82,1.82,0,0,1,1.49.81c.26.39.49.81.72,1.23a2.66,2.66,0,0,0,2.86,1.55c.51,0,1-.25,1.5-.31a9.91,9.91,0,0,1,2-.09,1.18,1.18,0,0,1,1.11,1.37,1.07,1.07,0,0,1-.43.67c-.13.08-.47-.09-.64-.23s-.33-.5-.83-.2A6.79,6.79,0,0,1,121.79,75.32Zm-2.46,21.87a2.7,2.7,0,0,0,1.32-1.85c.25-1,.58-2,.86-3,.41-1.44.84-2.88,1.19-4.34s.64-3,1-4.5a1,1,0,0,0-.43-1L121.67,81c-.17-.16-.35-.31-.63-.55-.13.64-.21,1.14-.34,1.63a9.21,9.21,0,0,1-3.23,5.32,1.16,1.16,0,0,0-.32.54c-.19.55-.35,1.11-.52,1.67a1.25,1.25,0,0,0,.5,1.47,2.56,2.56,0,0,1,.41-.73c.19-.17.53-.37.71-.3a.87.87,0,0,1,.39.67,2.35,2.35,0,0,1-.27,1,2.26,2.26,0,0,0,.34,2.47A2.87,2.87,0,0,1,119.33,97.19Zm1.26-20.7a4,4,0,0,1,.38-2.84,5.15,5.15,0,0,0,.06-3.86c-.4.06-.73.09-1,.15a3.62,3.62,0,0,1-3.52-1,11.37,11.37,0,0,1-1.11-1.6c-.24-.37-.3-.89-1-1,.59,1.85-.43,3.34-1,4.87a3.36,3.36,0,0,1,1.47.15c.34.07.68.31.52.68a1,1,0,0,1-.75.47,1.71,1.71,0,0,1-1.21-.31,8.38,8.38,0,0,0,1.87,5.39,1.51,1.51,0,0,0,1.49.48A7.67,7.67,0,0,0,120.59,76.49Zm-5.38,23.26a6.92,6.92,0,0,0,2.8-3.2,1.14,1.14,0,0,0-.16-1.23c-1-1.18-1.43-2.69-2.26-4a2.41,2.41,0,0,1-.22-2.11c.74-2.45,1.46-4.9,2.18-7.36.1-.33.34-.79.27-1s-.49.2-.6.37c-.48.69-1,1.59-1.41,2.09-.8,1-1.32,1.29-1.53,1.84s-.56,1.65-.91,2.43a1.23,1.23,0,0,0,.31,1.67c.45.31.29.77.22,1.21-.1.68-.17,1.37-.25,2.06-.2,1.74.54,3.3.93,4.93C114.74,98.17,115,98.86,115.21,99.75ZM90.32,74.22l-4.53.49c-1.82.19-3.63.41-5.45.51a3.14,3.14,0,0,1-1.62-.5c-1.1-.65-2.12-1.42-3.21-2.08A5,5,0,0,0,73.89,72c-.69-.15-1,.38-1.33.91a.88.88,0,0,0,.2,1.26,11.68,11.68,0,0,0,1.59,1.12c1,.56,1,.54.86,1.62a5.57,5.57,0,0,0,3-.12,3.88,3.88,0,0,1,1.26-.34c2.45,0,4.89,0,7.34.06,1,0,2.09,0,3.19,0Zm26.44,5.43a8.78,8.78,0,0,1-2-.78,10.32,10.32,0,0,1-1.55-1.78c-.25,2.14-.75,4-.56,6a2.27,2.27,0,0,0,.58,1.13c.3.35.62.25.85-.18.33-.6.64-1.22,1-1.81C115.6,81.34,116.18,80.51,116.76,79.65ZM96.05,133.48a5.22,5.22,0,0,0,.75,2.28.78.78,0,0,0,.41.32,4,4,0,0,0,3.24-.92c-.24-.49-.45-1-.75-1.52a1,1,0,0,0-.69-.37C98,133.3,97.07,133.4,96.05,133.48Zm2.12,3.87c1.61,1.05,4.86,2.91,5.55,1.8.59-1-1.2-1.59-2.5-2.85C101,136.12,99.37,137,98.17,137.35Zm11.67-6.49c.69-.6,1.81-.43,2.45-1.25l-1.4-1.83c-1.08.32-2.13.51-2.66,1.48Zm1.6.7c1.72.58,3.19-.13,5-.48l-2.62-.85Zm6.85-47.73.28.07a12.18,12.18,0,0,0,1.22-5.29l-1.12.49a3,3,0,0,1,.33,2.39C118.75,82.27,118.52,83.05,118.29,83.83ZM105.5,127.56c-.37,1-.35,1.18.13,1.39.74.33,1.45,0,2-1Z"/><path d="M116.36,77.38a1.56,1.56,0,0,1-.69-.16c-.4-.19-.44-.69,0-.84a8.7,8.7,0,0,0,2.6-.8c.35-.09.55.29.44.65C118.47,76.84,117.15,77.38,116.36,77.38Z"/><path d="M118.5,73.33a1.51,1.51,0,0,1-.85-.32.85.85,0,0,1-.28-.73c0-.16.42-.29.67-.34a2,2,0,0,1,.85,0c.25.06.66.24.66.35a1.46,1.46,0,0,1-.38.8A.88.88,0,0,1,118.5,73.33Z"/><path d="M116.84,74.65c0,.11-.29.44-.48.46a3.52,3.52,0,0,1-1.25-.11.66.66,0,0,1-.34-.57A3.82,3.82,0,0,1,116.84,74.65Z"/><rect class="cls-1" width="205.95" height="205.95"/></g></g></svg>