<svg xmlns="http://www.w3.org/2000/svg" viewBox="0 0 205.95 205.95"><defs><style>.cls-1{stroke:#000;stroke-miterlimit:10;stroke-width:0.18px;}.cls-2{fill:none;}</style></defs><title>Bembel BounceAsset 41</title><g id="Layer_2" data-name="Layer 2"><g id="WEB"><path class="cls-1" d="M95.55,144.87a4.23,4.23,0,0,0,.67.58,1.39,1.39,0,0,1,.57,1.8,14.66,14.66,0,0,1-1.47,3.52,2.18,2.18,0,0,1-1.38,1,7.6,7.6,0,0,1-2.12.25L90.13,152a8.3,8.3,0,0,1-.83-.12,1.3,1.3,0,0,1-1.14-1.27,8.07,8.07,0,0,1,.67-4.47,11,11,0,0,1,.84-1.22l.24-.31c-.36-.25-.69-.47-1-.72a1.76,1.76,0,0,1-.68-2.23,6.07,6.07,0,0,1,.86-1.53,2.46,2.46,0,0,0,.49-1.18c.29-1.87.55-3.76.93-5.62.26-1.22.33-2.47.54-3.69A11.42,11.42,0,0,1,91.4,128a1.83,1.83,0,0,0-.06-1.36l-.87-2c-.39-.92-.77-1.84-1.17-2.75-.11-.26-.23-.51-.36-.79l-2-.24-.74-.11A2.11,2.11,0,0,1,84.33,119c-.14-.58-.31-1.15-.4-1.73-.2-1.29-.4-2.59-.53-3.89a25.2,25.2,0,0,1-.07-2.61c0-1.21.07-2.43.16-3.64a23.16,23.16,0,0,1,2.29-8.42c.48-1,.85-2.07,1.25-3.12.31-.78.56-1.58.88-2.36a2,2,0,0,0,.19-.89c0-.63-.07-1.25-.09-1.87-.05-1-.11-2-.14-3s0-1.81,0-2.71c0-.24-.07-.48-.13-.86-.17.28-.27.44-.35.6-.94,1.79-1.89,3.58-2.81,5.38a31.83,31.83,0,0,0-1.74,4.53c-.44,1.33-.89,2.66-1.34,4a3.28,3.28,0,0,1-.2.52c-.79,1.35-.87,2.91-1.29,4.36a2.94,2.94,0,0,0,0,1.38,27.34,27.34,0,0,1,.41,3.13,6.14,6.14,0,0,0,.23,1.28,7.82,7.82,0,0,1,.24,1.09.71.71,0,0,1-.41.77.84.84,0,0,1-1,0c-.22-.16-.41-.36-.68-.6a15.23,15.23,0,0,0-.43,1.78,1.16,1.16,0,0,1-.75,1l-.52-.17-.7.43c-.4-.15-.71-.5-1.18-.48-.22,0-.36-.23-.42-.45s-.15-.6-.23-.93a1.52,1.52,0,0,1-.71-1.76,8.1,8.1,0,0,0,.1-2.6,1.3,1.3,0,0,1,.06-.55c.28-1,.55-1.91.86-2.86a1.25,1.25,0,0,1,.41-.6,1.88,1.88,0,0,0,.72-1.27A13.67,13.67,0,0,1,77,98.8a2.12,2.12,0,0,0,.17-.54A21.48,21.48,0,0,1,77.92,95a9,9,0,0,0,.35-1.83,14.94,14.94,0,0,1,1.58-5.92,18.33,18.33,0,0,0,.73-1.91c.28-.76.54-1.53.8-2.29.52-1.53,1-3.07,1.55-4.6A2.21,2.21,0,0,0,83,78c-.17-.17-.33-.31-.48-.47a1.07,1.07,0,0,1-.12-1.38,5.48,5.48,0,0,1,3.14-2.48,10.76,10.76,0,0,0,2-.83,9,9,0,0,1,3.59-.93c.22,0,.43-.06.65-.1a1.88,1.88,0,0,0,1.49-1.63l-.84-.45c-.2-.11-.39-.21-.57-.33A1.05,1.05,0,0,1,91.32,68c.05-.15.12-.29.21-.5-.18-.29-.35-.62-.56-.92a4,4,0,0,1-.45-3.74,8.74,8.74,0,0,1,2.16-3.46,10.45,10.45,0,0,1,4.19-2.7,6.19,6.19,0,0,1,.49-.7,3.19,3.19,0,0,1,.81-.61,1,1,0,0,1,1.41.53l.4.67c.53-.18,1-.38,1.46-.49,1.07-.25,1.25-.15,1.83.91l1,.23a3.73,3.73,0,0,1,2.39,1.67,1.93,1.93,0,0,1,.21,1.87,4.26,4.26,0,0,1-.84,1.44c-.33.37-.66.75-1,1.1a1.62,1.62,0,0,0-.49.87,2.21,2.21,0,0,1-.31.66c-.28.49-.58,1-.84,1.46a3.45,3.45,0,0,0-.24.79c-.12.55-.2,1.11-.35,1.64a2.33,2.33,0,0,1-2.39,2l.12,1c.32,0,.59,0,.85.11s.45.24.68.29a21.09,21.09,0,0,1,2.22.68,12.47,12.47,0,0,1,4.27,1.8,2.13,2.13,0,0,0,1.2.45.8.8,0,0,1,.81,1.14c-.06.23-.18.45-.29.74.44.24.88.46,1.3.7s.8.47,1.25.74a2.08,2.08,0,0,0,.28-.52,7.86,7.86,0,0,1,1.09-2.56A4.32,4.32,0,0,1,116,73.51c.11-.81.2-1.64.34-2.46.26-1.51.55-3,.82-4.51a2.46,2.46,0,0,1,.69-1.3c.34-.32.71-.61,1.07-.9s.51-.36.79-.56c-.27-.46-.52-.89-.78-1.31a3.33,3.33,0,0,1-.53-2,21.92,21.92,0,0,0-.17-3.53,5.33,5.33,0,0,1-.58-.46.86.86,0,0,1-.11-1.25c.16-.24.33-.45.53-.71,0-.29,0-.59,0-.9a3.56,3.56,0,0,1,2.31-3.5,6.58,6.58,0,0,1,2.36-.52c.52,0,1-.14,1.58-.18a4.73,4.73,0,0,1,2.29.25,3.82,3.82,0,0,1,2.43,3.47,6.47,6.47,0,0,1-.34,2.58,16.76,16.76,0,0,0-.89,3.89c-.09,1.14.08,1.32,1.19,1.6a16.91,16.91,0,0,0,3.16.3,5.13,5.13,0,0,1,2.56.79,3.39,3.39,0,0,1,1.14,1.21,9,9,0,0,1,1.25,3.68c.05.5.05,1,.06,1.49,0,.28,0,.57,0,.85a6.62,6.62,0,0,0,.4,3.19c.19.66.27,1.34.4,2s.19,1.17.34,1.74a20.76,20.76,0,0,1,.57,3.6c.08,1.11.23,2.23.31,3.34,0,.72,0,1.44.06,2.15a1.29,1.29,0,0,1-.55,1.22,1.46,1.46,0,0,0-.64,1.44,30.23,30.23,0,0,1-.23,4.56c-.13.9-.13,1.81-.19,2.71a24.94,24.94,0,0,1-1,5.68,24.11,24.11,0,0,1-1.9,4c-.39.75-.83,1.47-1.28,2.18a15.17,15.17,0,0,1-3.29,3.54l-1.09.91c0,.12-.06.24-.07.36-.1,1.15-.19,2.3-.31,3.44a1.71,1.71,0,0,0,.16,1,7.66,7.66,0,0,1,.84,2.94c0,.59.11,1.18.14,1.77a4.82,4.82,0,0,1,0,.93,1.86,1.86,0,0,1-1.85,2l-.83.14a2.76,2.76,0,0,1-3.17-2,14.69,14.69,0,0,1-.77-3.07c0-.44-.17-.86-.27-1.34-.12,0-.25-.12-.39-.17a1.09,1.09,0,0,1-.69-.82,7.56,7.56,0,0,1-.14-.83c-.09-1-.15-2.11-.26-3.16-.12-1.21-.29-2.42-.41-3.62a17.1,17.1,0,0,1-.08-2.15c.06-1.18.17-2.36.3-3.53a10.8,10.8,0,0,1,.3-1.37,12.06,12.06,0,0,0,.48-3.87,5.63,5.63,0,0,0-.39-1.63,16.25,16.25,0,0,1-1.26-7.48c0-.71.12-1.43.18-2.14,0-.34,0-.68,0-1a3.92,3.92,0,0,1-.89-.58,3.29,3.29,0,0,1-.33-.94c-.13.18-.23.29-.3.41-.48.76-.94,1.54-1.44,2.29a3,3,0,0,0-.53,2c0,.09,0,.18,0,.28a2,2,0,0,1-.7,2c0,.36.06.66.07,1a.94.94,0,0,1-.88,1.11,3.41,3.41,0,0,1-2-.19,1.2,1.2,0,0,1-.66-.63,7.07,7.07,0,0,1-.72-2.21,3.73,3.73,0,0,1,.12-1.29,8.8,8.8,0,0,1,1.21-2.62,12.1,12.1,0,0,0,1.13-2.35c0-.05,0-.11,0-.23-.8,0-1.61.06-2.4.14a8.83,8.83,0,0,1-3.16-.18l-2.18-.52-.81-.16c-.5,1.17-1,2.28-1.47,3.44a6,6,0,0,0-.25,3.68c.55,2,1.19,4,1.79,6,.21.69.41,1.37.64,2,.11.35.26.7.4,1,.35.8.72,1.59,1,2.4a33.34,33.34,0,0,0,4.14,7.51,25.35,25.35,0,0,0,2.45,2.93,5.59,5.59,0,0,1,.39.53,2.88,2.88,0,0,1-.7,1.12,15.37,15.37,0,0,1-3.46,3,23,23,0,0,0-2.36,1.5,20.46,20.46,0,0,1-2.16,1.46,6,6,0,0,1-2.6,1,1.56,1.56,0,0,0-1.5,1.29,12.87,12.87,0,0,1-1.48,3.11,3.09,3.09,0,0,0-.52,1.57,22.81,22.81,0,0,1-.64,4.8c-.3,1.43-.55,2.88-.89,4.3a20.77,20.77,0,0,1-3,6.8A2.37,2.37,0,0,0,95.55,144.87ZM91.86,133a.75.75,0,0,0-.07.88l0-.9c.23-.23.17-.51.17-1ZM88.6,80.84c.08.75.14,1.55.26,2.35.34,2.22.3,4.47.52,6.7a9.31,9.31,0,0,1-.77,4.54c-.68,1.67-1.29,3.37-2.07,5a12.86,12.86,0,0,0-1.26,3.89c-.17,1.23-.46,2.45-.68,3.67-.1.52-.2,1-.25,1.57a30.59,30.59,0,0,0,1,10.17,1.6,1.6,0,0,0,1.48,1.3c1.46.18,2.91.3,4.38.35a4.94,4.94,0,0,0,1.75-.24c.29-.1.59-.18.88-.3a3.18,3.18,0,0,1,2-.11,24.14,24.14,0,0,0,5,.6,13.44,13.44,0,0,0,2.61-.13,7.4,7.4,0,0,0,3.81-1.61,14.16,14.16,0,0,1,3-2,6.77,6.77,0,0,0,2.95-2.49c.11-.18.26-.34.38-.53a2.66,2.66,0,0,0,.18-.4c-.34-.42-.68-.86-1-1.28a19.79,19.79,0,0,1-2.59-3.76c-.42-.81-.84-1.6-1.24-2.41-.77-1.53-1.56-3-2.28-4.61A21.93,21.93,0,0,1,105.43,98c-.73-2.54-1.38-5.11-2-7.67a4.36,4.36,0,0,1,0-2.21,4.62,4.62,0,0,0,.15-.74,9.21,9.21,0,0,1,.86-2.85,2.68,2.68,0,0,0,.34-1.52,1.46,1.46,0,0,1,.06-.46.69.69,0,0,1,.93-.53c.24.07.46.19.69.27a1.14,1.14,0,0,0,1,0,6.55,6.55,0,0,0,.5-2.05,9.79,9.79,0,0,1,1.23-4c-.46-.26-.9-.49-1.3-.76a8.5,8.5,0,0,0-2.79-1.27,15.8,15.8,0,0,1-1.77-.56c-.69-.26-1.36-.56-2-.85l-1,1.15A3.14,3.14,0,0,1,97.65,75c-.62,0-1.25,0-1.87-.09a7.65,7.65,0,0,1-2.36-.54A2.64,2.64,0,0,1,92,73.34a1.14,1.14,0,0,0-.69-.6c-.78.16-1.58.28-2.35.52A25.19,25.19,0,0,0,84.87,75a2.17,2.17,0,0,0-1.32,1.82c.29.15.6.3.88.48.75.45,1.52.88,2.21,1.39A10.29,10.29,0,0,1,88,80,9.39,9.39,0,0,1,88.6,80.84Zm32.77,5.25c0,.21,0,.39,0,.57,0,.94-.06,1.87-.08,2.81a15.79,15.79,0,0,0,1.25,6.92,6.07,6.07,0,0,1,.49,2.55,13.43,13.43,0,0,1-.58,3.78,4.51,4.51,0,0,0-.18.81c-.1.87-.19,1.74-.27,2.6a12.21,12.21,0,0,0,0,3.08c.11.68.21,1.36.27,2,.14,1.45.24,2.91.36,4.37,0,.37.11.73.17,1.1a5.45,5.45,0,0,0,4.61-.26c.09-.34.2-.6.24-.87a34.86,34.86,0,0,0,.36-6.53c-.08-2-.28-4-.4-6.06a12.84,12.84,0,0,1,0-1.86c.11-1.21.33-2.42.35-3.62a24.41,24.41,0,0,1,1-5.89,1.74,1.74,0,0,1,.26-.59.54.54,0,0,1,.41-.15c.21,0,.33.16.36.37a.87.87,0,0,1,0,.36c-.06.31-.13.61-.21.91a21.3,21.3,0,0,0-.74,6.32,4.19,4.19,0,0,1,.46.55,5.68,5.68,0,0,1,.47,1,1,1,0,0,1-.43,1.22c-.33.22-.63.49-.94.74,0,2.75.41,5.42.48,8.1.09,0,.13,0,.15,0a1.65,1.65,0,0,0,.31-.2,15.36,15.36,0,0,0,3.78-4.59l1.47-2.82A11.71,11.71,0,0,0,136,99.64a34.14,34.14,0,0,0,.67-4.81c.05-1.06.17-2.11.24-3.17.07-.9.11-1.8.14-2.71,0-.37,0-.73,0-1.18l-1.52.33a11,11,0,0,1-1.27.27,10.29,10.29,0,0,1-4.17-.31c-.66-.18-1.32-.37-2-.61s-1.07-.51-1.62-.73A11.83,11.83,0,0,0,122,86,3.83,3.83,0,0,0,121.37,86.09Zm-.74-21.42a5.07,5.07,0,0,0-.79.37,3,3,0,0,0-1.63,2.26c0,.43-.17.85-.25,1.28-.18,1-.35,2-.52,2.94-.06.31-.09.61.15.8.79-.24,1.52-.5,2.28-.67a2.54,2.54,0,0,1,2.21.45c.66.53,1.31,1.05,1.93,1.62a2.58,2.58,0,0,0,1.07.71,1.67,1.67,0,0,1,.51.23,5.52,5.52,0,0,0,2.51.66,1,1,0,0,0,.85-.13,13.44,13.44,0,0,0,0-1.91L129,70.2a1.09,1.09,0,0,1,.06-.36.57.57,0,0,1,.45-.43.51.51,0,0,1,.54.42,5.66,5.66,0,0,1,.08,1c0,1.06,0,2.12,0,3.18,0,.2.07.41.11.67,1.69-.14,3.34-.37,4.91.35a4.74,4.74,0,0,0,.59-2.2c.12-1.43.18-2.86.27-4.29a6.82,6.82,0,0,0-.44-2.94c-.85-2.09-1.21-2.8-3.86-3a12.74,12.74,0,0,1-2.95-.36,1.29,1.29,0,0,0-.4,0c-.06.19-.12.37-.16.54A5.76,5.76,0,0,1,126,66a3.32,3.32,0,0,1-2.74.63,1,1,0,0,1-1-1c0-.18,0-.35,0-.52Zm0,20.12.68,0,2.33,0a9.15,9.15,0,0,1,3.52.85,26,26,0,0,0,3.23,1.2,9.53,9.53,0,0,0,3.79.28,21.35,21.35,0,0,0,2.82-.66,2.34,2.34,0,0,0,1.19-.88,53.31,53.31,0,0,0-1.36-11.38c-.23.59-.41,1.19-.69,1.74a2.29,2.29,0,0,0-.29,1,5.13,5.13,0,0,1-.88,2.53,2.22,2.22,0,0,1-2.19,1.14c-.65-.05-1.3-.13-2-.19a12,12,0,0,1-4.46-1.31,5.17,5.17,0,0,0-2.72-.83,3.53,3.53,0,0,1-.55-.1,3.68,3.68,0,0,0-1.4,0,19.55,19.55,0,0,1-.7,2.38C120.38,81.9,120.58,83.28,120.59,84.79ZM95.23,146.22a4.37,4.37,0,0,1-.53-.53,1.63,1.63,0,0,1-.34-.65,3.5,3.5,0,0,1,.49-2.67,17.36,17.36,0,0,0,2.77-6,46.74,46.74,0,0,0,1.67-9.54v-.1a4.07,4.07,0,0,1,.6-1.74c.6-1.05,1.13-2.15,1.68-3.23a1.08,1.08,0,0,0,.05-.33l-.93-.06a19,19,0,0,1-4.45-.36s-.06,0-.13,0a2,2,0,0,0-.22.38,12.82,12.82,0,0,0-.67,5.14,1.47,1.47,0,0,1-.4,1.27,4.1,4.1,0,0,0-.63.91,7.78,7.78,0,0,0-.74,2.21c-.28,1.46-.59,2.93-.86,4.39-.18,1-.23,1.92-.45,2.86a27,27,0,0,0-.55,4.82,3.72,3.72,0,0,1-1.16,2.76,1.85,1.85,0,0,0-.61,1.12c.22-.1.35-.15.47-.22a3.29,3.29,0,0,1,1.82-.32,2,2,0,0,1,1.65.92.66.66,0,0,0,.93.31Zm-11-67.69a5.68,5.68,0,0,0-.77,1.64c-.34.93-.62,1.89-1,2.82-.66,1.72-1.35,3.42-2,5.12a10.34,10.34,0,0,0-.92,3.41,6.48,6.48,0,0,1-.29,1.75c-.87,2.61-1.17,5.35-2,8a7.81,7.81,0,0,1-.89,2.15,6.56,6.56,0,0,0-1,2.41c-.1.48-.23,1-.37,1.44a1.07,1.07,0,0,0,0,.88l.72.5c-.06.31-.1.58-.16.85-.08.43-.19.85-.25,1.28a.52.52,0,0,0,.38.62c0-.47.07-.87.11-1.27a6.09,6.09,0,0,1,.1-.73c0-.2.17-.34.44-.23a3.55,3.55,0,0,1,0,1.26,6,6,0,0,0,0,1.52,5.7,5.7,0,0,0,.47-1.34c.15-.39-.06-.88.26-1.29l.48.07.1,1.41a3.41,3.41,0,0,0,.37-1.16c.07-.37.1-.74.18-1.11,0-.12.17-.22.28-.35.58.49.54,1.45,1.43,1.6,0-.09,0-.19,0-.26a4.76,4.76,0,0,1-.3-2,5.94,5.94,0,0,0-.61-2.71,2.86,2.86,0,0,1-.36-1.14,5.21,5.21,0,0,1,.53-2.63,17.68,17.68,0,0,0,1-2.09,48,48,0,0,0,2-6.12,8.21,8.21,0,0,1,.62-2c.39-.71.75-1.43,1.12-2.14.94-1.8,1.92-3.57,2.87-5.35a4.86,4.86,0,0,0,.68-2c-.49-.53-1-1.11-1.51-1.6A9.42,9.42,0,0,0,84.21,78.53Zm18.23-14.07A4.94,4.94,0,0,0,101.9,61a9.24,9.24,0,0,0-1.79-2.26.54.54,0,0,0-.31-.19,1.55,1.55,0,0,1-1.08-.7,4.51,4.51,0,0,0-3.16.76,10.14,10.14,0,0,0-2.43,2,6.64,6.64,0,0,0-1.52,2.65,2.77,2.77,0,0,0,.28,2.5c.19.29.37.58.55.87a1.6,1.6,0,0,1,.13,1.44l-.15.39.12.09c.52.18,1.12.11,1.54.58.06.07.23.06.35.07a5.63,5.63,0,0,0,3.11-.43.82.82,0,0,1,.71-.11s.12.07.14.12a.86.86,0,0,0,1,.45,1.13,1.13,0,0,0,.88-.76c.09-.29.21-.58.3-.88A6.27,6.27,0,0,1,102.44,64.46ZM134.7,76.23a4.2,4.2,0,0,0-2.11-.45,6.2,6.2,0,0,0-2.09.4,6.9,6.9,0,0,1-3.69.11,11.89,11.89,0,0,1-2.17-.84,3.18,3.18,0,0,1-1.34-1,8.25,8.25,0,0,0-1.74-1.54,2,2,0,0,0-1.5-.37c-.34.05-.67.14-1,.22-.12,0-.33,0-.27.28.42.3,1.08.06,1.42.62a2.51,2.51,0,0,1-.72,1.36c-.33.32-.69.65-.58,1.23a1.17,1.17,0,0,0,.31.17,10.39,10.39,0,0,0,1.62.41c1.21.15,2.42.26,3.63.34a3,3,0,0,1,1.41.41,14.48,14.48,0,0,0,6.68,1.86H133a1,1,0,0,0,.8-.4A3.9,3.9,0,0,0,134.7,76.23Zm-15.77-2a1.81,1.81,0,0,0-2.15.08,1.45,1.45,0,0,1-.25.12,3.56,3.56,0,0,0-1.66,1.7,9.2,9.2,0,0,0-.82,2.27,1,1,0,0,1-1.28.92,2.72,2.72,0,0,1-.88-.27c-.33-.17-.63-.41-1-.6a3,3,0,0,0-1.28-.59c-.59,1.59-.53,3.27-1.06,4.82a6.57,6.57,0,0,0,3.14.54,12.29,12.29,0,0,1,1.49-.06,1.89,1.89,0,0,0,1.79-1c.09-.13.17-.26.25-.39a11.24,11.24,0,0,0,1-2.22,20.73,20.73,0,0,1,1-2.23,2.66,2.66,0,0,0,.49-1.17c0-.21.2-.44.34-.64C118.31,75.14,118.62,74.72,118.93,74.26Zm-.55-18.56a3.53,3.53,0,0,0,.68.26,6.3,6.3,0,0,0,2.41,0,3.78,3.78,0,0,1,2.21,0c.49.16.78,0,1.06-.52.05-.08.07-.17.12-.25.26-.41.52-.48.93-.21a2.5,2.5,0,0,0,1.75.36,4.35,4.35,0,0,0,.3-2.15,2.61,2.61,0,0,0-2.8-2.53c-.71,0-1.42.13-2.14.13a6.71,6.71,0,0,0-1.83.33,2.57,2.57,0,0,0-1.9,2.4,5.05,5.05,0,0,1-.08,1.11A5.9,5.9,0,0,1,118.38,55.7Zm.08,21.62a1.31,1.31,0,0,0-.26.2,3.82,3.82,0,0,0-.29.48,29.54,29.54,0,0,0-2.57,6.88,7.9,7.9,0,0,1-1,2.57,8.43,8.43,0,0,0-1,2.3,1.38,1.38,0,0,0-.09.63,4.54,4.54,0,0,0,.82,2.15,1.86,1.86,0,0,0,1.35,0c0-1.51,0-1.51.73-2.11,0-.35,0-.75,0-1.15a3.55,3.55,0,0,1,.55-2.31c.18-.3.35-.59.55-.87a25.41,25.41,0,0,0,3-6.58c.15-.46.24-1,.36-1.47Zm1.23-20.14c-.31.3-.43.54-.32.84a5.67,5.67,0,0,1,.17,2.13,3.06,3.06,0,0,0,.53,1.94,8.91,8.91,0,0,0,.68,1,1.77,1.77,0,0,0,.8.59,3,3,0,0,0,2.37-.16,4.43,4.43,0,0,0,1.67-1.46,6.7,6.7,0,0,0,1.18-3.21c0-.08-.09-.16-.14-.23-.39-.55-.38-.57.21-1,.11-.08.18-.17,0-.34a1.1,1.1,0,0,1-.28.17c-.48.23-.66.18-.9-.27-.08-.16-.15-.33-.23-.5a1.36,1.36,0,0,0-.29.11,2.41,2.41,0,0,1-2.06.2,1.3,1.3,0,0,0-.65-.05A8.28,8.28,0,0,1,119.69,57.18Zm4.16,61c.12.57.2,1.09.34,1.6.21.78.44,1.55.71,2.31a1.72,1.72,0,0,0,1.72,1.18,10.39,10.39,0,0,0,1.46-.26.67.67,0,0,0,.54-.57,3.43,3.43,0,0,0,.07-.56,14.07,14.07,0,0,0-.23-3.24,2.92,2.92,0,0,0-.52-1.26A8.63,8.63,0,0,1,123.85,118.21Zm-28.8,2.69a3.23,3.23,0,0,0-1.84-.05,7,7,0,0,1-2.4.3c-.24,0-.47,0-.75,0a2.24,2.24,0,0,0,.08.31c.74,1.54,1.49,3.08,2.22,4.62a2.93,2.93,0,0,1,.14,2.27,9,9,0,0,0-.32,1.64,2.13,2.13,0,0,0,0,1.12c.68-2.64,1.09-3.28,1.9-4.24A16.63,16.63,0,0,1,95.05,120.9Zm4.64-48c-.11-.39-.26-.8-.34-1.22s-.11-.92-.17-1.41l-1-.35a18,18,0,0,1-1.88.48c-.63.09-1.28.07-1.93.1a3.68,3.68,0,0,1-1.59,2.13,1.64,1.64,0,0,0,1.21.9,11.78,11.78,0,0,0,4,.42A1.83,1.83,0,0,0,99.69,72.88ZM95,148.94a4.23,4.23,0,0,0-.43-.07,1.71,1.71,0,0,1-1.7-.9,1,1,0,0,0-1-.48,4.34,4.34,0,0,0-1.18.19c-.43.14-.84.35-1.32.54a6.47,6.47,0,0,0,0,2.36,1.7,1.7,0,0,0,.45.15c.92,0,1.85.08,2.78.08a3.16,3.16,0,0,0,1-.18,1.16,1.16,0,0,0,.59-.4C94.48,149.86,94.67,149.44,95,148.94ZM105.8,59.72a2.86,2.86,0,0,0-2.42-1.58c-.27,0-.39.14-.46.44a10,10,0,0,1,1.42,3.49A5.35,5.35,0,0,0,105.8,59.72ZM123.16,65c0,.4.1.57.39.6a2.22,2.22,0,0,0,1.44-.26,4.47,4.47,0,0,0,2.28-3.31c0-.11,0-.26-.19-.29A5.88,5.88,0,0,1,123.16,65ZM101,69.55a1.53,1.53,0,0,0,.77-.93,4.17,4.17,0,0,0,.38-2A6.2,6.2,0,0,0,101,69.55ZM90.41,141.72a1.73,1.73,0,0,0,0-1.35,2,2,0,0,0-.73,1.07Zm-.94.75c.36.59.36.59,1,.72A1.13,1.13,0,0,0,89.47,142.47Zm39.38-42.28a1.8,1.8,0,0,0-.07.35c0,.1-.07.25.17.27C129.14,100.61,129.12,100.42,128.85,100.19ZM91.52,134.47v0Z"/><path class="cls-1" d="M123.88,61.46l.27.32a2.25,2.25,0,0,1-.43.48,3.92,3.92,0,0,0-1,.78.77.77,0,0,1-1,.13,1.38,1.38,0,0,1-.69-.75c.44-.35,1-.22,1.42-.4Z"/><path class="cls-1" d="M123,60.52c0,.29,0,.49-.12.61a1.38,1.38,0,0,1-1.69.24c-.12-.08-.14-.29-.2-.43.34-.27.66-.06,1-.13S122.53,60.66,123,60.52Z"/><path class="cls-1" d="M123.22,58.71c0-.09-.07-.2,0-.26a1,1,0,0,1,1.58-.29.39.39,0,0,1,.08.33.38.38,0,0,1-.24.24,1.17,1.17,0,0,1-.46,0C123.84,58.75,123.53,58.88,123.22,58.71Z"/><path class="cls-1" d="M120.42,59.22,120,58.7a.68.68,0,0,1,.83-.47c.32.05.57.2.55.6C121.16,59.2,120.73,59,120.42,59.22Z"/><rect class="cls-2" width="205.95" height="205.95"/></g></g></svg>