<svg xmlns="http://www.w3.org/2000/svg" viewBox="0 0 205.95 205.95"><defs><style>.cls-1{fill:none;}</style></defs><title>Bembel BounceAsset 42</title><g id="Layer_2" data-name="Layer 2"><g id="WEB"><path d="M132.65,107.68c1.2-.12,1.58.16,1.65,1.35a17.55,17.55,0,0,1-.06,2,1.25,1.25,0,0,0,.5,1.18,1.9,1.9,0,0,1,.35,2.71c-.3.44-.66.82-1,1.24s-.42.55-.73,1c.31,0,.43,0,.55-.07,1.73-.42,2.35,0,3.08,1.43a11.12,11.12,0,0,1,.66,2.52.73.73,0,0,1-.4.91c-.39.21-.4.5-.21.9.52,1.06,1,2.14,1.47,3.21a14.15,14.15,0,0,1,1,6.39.57.57,0,0,1-.51.62,7.2,7.2,0,0,1-1.58.24,12.25,12.25,0,0,0-5.11,1,6.13,6.13,0,0,1-3.29.1,29.83,29.83,0,0,0-4.43-.34c-1.24,0-2.48-.16-3.72-.26l-5-.44a89.35,89.35,0,0,0-12-.27c-4.37.19-8.73.63-13.1.94-2.35.16-4.7.3-7.06.39-1.85.06-3.7,0-5.56,0a12.34,12.34,0,0,1-2.1-.2c-1.09-.2-1.37-.72-.93-1.68s1.05-2.11,1.57-3.17a3.57,3.57,0,0,0,.36-.8A10.52,10.52,0,0,1,78.92,125a20.86,20.86,0,0,1,2.1-2.22,10.7,10.7,0,0,1,3.23-2.12,9.92,9.92,0,0,0,1.39-.78,3,3,0,0,0,.63-.74c.23-.33-.13-.52-.23-.77-.23-.64-.42-1.29-.64-1.93a2.1,2.1,0,0,0-.32-.8,19.07,19.07,0,0,0-1.76-1.72,2,2,0,0,0-.94-.29,9,9,0,0,1-3-1,2.2,2.2,0,0,1-1.32-2.5,11.26,11.26,0,0,1,.63-1.94,15,15,0,0,1,.84-1.52c-1.6-1.21-1.66-1.38-1.12-3-1.23-.91-.88-1.49.38-2.55l-.46-.72a.8.8,0,0,0-.93-.38,11.06,11.06,0,0,1-1.91.07,4,4,0,0,1-1.09-.2,1.08,1.08,0,0,1-.81-1.1,4.59,4.59,0,0,1,.52-2.36c.63-1.15,1.31-2.27,2-3.41a30.55,30.55,0,0,1,2.36-3.85,2,2,0,0,0,0-2.47c-.12-.2-.23-.4-.36-.59a2,2,0,0,1-.15-2,28.5,28.5,0,0,1,3.29-6,15.33,15.33,0,0,0,1.67-2.55,17.77,17.77,0,0,1,3.14-4c.21-.22.42-.43.64-.63a.75.75,0,0,0,.24-1,2.25,2.25,0,0,1,.42-2.37,14.22,14.22,0,0,1,3.08-3.21,4.86,4.86,0,0,1,1-.57A11.49,11.49,0,0,0,95,61.54a11.16,11.16,0,0,1,1.33-1,5.85,5.85,0,0,1,6-.2c.94.43,1.88.88,2.83,1.27,1.36.57,2.75,1.08,4.12,1.62,2.49,1,5,1.94,7.46,3a10.57,10.57,0,0,1,2.23,1.3c1.38,1,2.71,2.16,4,3.26a5.67,5.67,0,0,1,1,1A21.47,21.47,0,0,1,127.65,80a29.84,29.84,0,0,1,.47,3.87c.06,1.62,0,3.25-.05,4.88a13.77,13.77,0,0,1-1.87,6.41,41.2,41.2,0,0,1-3,4.94,7.09,7.09,0,0,0-1.51,3.89,8.12,8.12,0,0,1,2.46-2.28,11.24,11.24,0,0,1,4-1.71,3.45,3.45,0,0,1,4.1,1.88,7.2,7.2,0,0,1,.84,4.35,10.11,10.11,0,0,1-.41,1.5l0,0Zm-19-11.43-.24.14a.86.86,0,0,0-.77,1h-.06l0,0c.29-.34.77-.53.79-1l.23-.15.18-.24c.67.35.71.41.43.92a3.26,3.26,0,0,1-.59.79c-.56.51-1.16,1-1.74,1.47a5.65,5.65,0,0,0-.48.49,2.5,2.5,0,0,0,2.27-.48c.5-.38,1-.79,1.51-1.14a.73.73,0,0,1,.61,0c.1,0,.08.34.08.52a.43.43,0,0,1-.14.25c-1.07,1-2.15,2-3.81,1.92a3.41,3.41,0,0,0-.67.11c.17.12.21.18.27.19a2.69,2.69,0,0,0,.4,0,9,9,0,0,0,3.88-.94c.26-.13.51-.26.71,0a.48.48,0,0,1-.14.7,2.58,2.58,0,0,1-.76.46c-.67.22-1.35.4-2,.56-.52.11-1.05.16-1.68.25l.8,1.4a17.22,17.22,0,0,0,3.34-1.61.72.72,0,0,1,.62-.05c.28.18.17.47,0,.68a2.29,2.29,0,0,1-.52.46c-.52.29-1,.57-1.59.83s-1,.45-1.58.66-.48.48-.38.88.35.42.68.42a4.25,4.25,0,0,0,2.14-.5c.7-.37,1.36-.82,2-1.25.21-.14.43-.29.6-.06a.76.76,0,0,1,.06.61,1.44,1.44,0,0,1-.43.53,6.52,6.52,0,0,1-.75.5,7.73,7.73,0,0,1-3.55,1.15,6.47,6.47,0,0,0,.37.78c.23.37.49.39.76,0s.34-.72.71-.56c.72.32,1.15-.14,1.62-.45s.77-.63,1.17-.92c.15-.1.46-.21.52-.15a1.19,1.19,0,0,1,.21.57c0,.08-.05.18-.08.27l-.29.16a6.8,6.8,0,0,1-2.17,1.52c-.62.33-.62.33-.35,1.19a9.35,9.35,0,0,0,2.49-2.36c0-.08,0-.24,0-.36l.29-.17c.76-.44,1.43-.93,1.23-1.94a1.31,1.31,0,0,1,0-.39,28.92,28.92,0,0,0,.17-7.08,16.57,16.57,0,0,0-1.88-6.33,5.33,5.33,0,0,0-5.11-3c-.47,0-.95,0-1.42,0l-5.42.42c-.05,0-.1.08-.19.15a7.31,7.31,0,0,1-.41,5c.59.06,1,.12,1.5.14,1.24,0,2.49,0,3.73.11a4,4,0,0,1,1.44.38c.29.14.45.4.84.14s.51,0,.53.35-.1.59,0,.64c.64.33.3.74.15,1.14Zm5.61,11-.18.47c-.56.49-1.12,1-1.7,1.48-.35.3-.75.55-1.1.85-.1.09-.11.27-.17.41.18,0,.35.12.53.16s.12,0,.17-.08a4.39,4.39,0,0,0,2.25-2.84l.17-.44,0,0Zm1.12.77c-.16.15-.38.26-.47.43a9.77,9.77,0,0,1-2.06,2.6,3.68,3.68,0,0,0-.44.61c1.18.33,1.34.27,1.71-.6s.84-2,1.26-3c0-.08,0-.15,0,0C120.39,107.85,120.41,107.93,120.42,108Zm1.09-.34.61-.28a12.74,12.74,0,0,1,1.84-.76,2.24,2.24,0,0,1,2.74,2.65,3.91,3.91,0,0,1-1.11,1.83c-.55.59-.52.83.09,1.37l.75.65a2.63,2.63,0,0,1,1,2c0,1,.09,2.07.18,3.11a1,1,0,0,0,1,1,9,9,0,0,1,2.8,1.08,2.66,2.66,0,0,0,.94.34,1.58,1.58,0,0,1,1.14.72,2.53,2.53,0,0,0,.49.49c.43.4.68.45,1.14.13s.93-.74,1.4-1.11c-.14-.32-.26-.58-.36-.86a8.06,8.06,0,0,0-.24-.84c-.45-.92-.85-1.18-1.71-.78a1.74,1.74,0,0,1-.38.14c-1.13.27-2-.57-1.62-1.62a6.62,6.62,0,0,1,1-1.56c.26-.38.62-.69.87-1.07a.76.76,0,0,0-.23-1.19,1.8,1.8,0,0,1-.84-1.94c0-.51.07-1,.1-1.54-.65.07-1.16.19-1.21.87a.45.45,0,0,1-.14.26c-.09.07-.24.18-.33.16s-.33-.16-.36-.28a3,3,0,0,1,0-.67c0-.2,0-.4,0-.59a4.33,4.33,0,0,0-.65,1.31c-.23.64-.47.87-.75.71-.43-.26-.19-.63-.13-1l.54-3.06a4.89,4.89,0,0,1,.08-.57.37.37,0,0,1,.65-.09,4.48,4.48,0,0,1,.3.72,5.37,5.37,0,0,0,.69-1.45,5.47,5.47,0,0,0-.94-3.91,1.85,1.85,0,0,0-1.47-.93,4.44,4.44,0,0,0-2.8.85c.59,0,.95,0,1.31,0a1.63,1.63,0,0,1,.66.19.47.47,0,0,1,.17.41.43.43,0,0,1-.36.25c-1-.11-2.16.23-3.23-.37l-1.71,1.31-.22.22a1.6,1.6,0,0,0-.67,1.29,5.06,5.06,0,0,1,.51-.14c1-.13,1.91-.29,2.88-.35a1.91,1.91,0,0,1,1,.29.73.73,0,0,1,.3.63c-.07.34-.39.24-.66.17a5.94,5.94,0,0,0-3.92.43c-.56.26-1.17.58-1.1,1.36Zm.22-8.16c.32-.42.53-.67.72-.93a35.28,35.28,0,0,0,3.12-5.34,9.82,9.82,0,0,0,1.07-4.14c0-1.75.13-3.51.06-5.26a25.45,25.45,0,0,0-.5-3.77,20.15,20.15,0,0,0-3.45-7.53,4,4,0,0,0-.74-.79c-1.35-1.12-2.71-2.24-4.1-3.32a7.08,7.08,0,0,0-1.55-.91c-.89-.39-1.85-.63-2.71-1.07-2.59-1.35-5.46-2-8.09-3.29-1.27-.6-2.59-1.09-3.85-1.69a4.44,4.44,0,0,0-5.24.61c-.36.3-.7.61-1.07.9a10.57,10.57,0,0,1-3.1,1.8,4.62,4.62,0,0,0-1.86,1.14c-.76.78-1.46,1.61-2.16,2.45a1.27,1.27,0,0,0-.25.71c0,.12.2.29.34.37s.31-.16.32-.26a3,3,0,0,1,.94-1.69A6.32,6.32,0,0,1,92,65.83a18,18,0,0,1,5-.91c.13,0,.38.13.39.21s-.05.44-.17.49a4.68,4.68,0,0,1-1,.3c-1.06.21-2.13.35-3.17.6a4.37,4.37,0,0,0-2.83,2.06l.6-.23a26.29,26.29,0,0,1,9.85-1.87.75.75,0,0,1,.57.25c.15.29-.09.51-.36.58a6.33,6.33,0,0,1-1.29.22,27.59,27.59,0,0,0-5.87.9,7.75,7.75,0,0,0-.81.28.61.61,0,0,0,.41.14c2.86,0,5.72.05,8.59,0a4.56,4.56,0,0,0,1.45-.29c1-.35,1.93-.77,2.9-1.16a1.62,1.62,0,0,1,.56-.19c.2,0,.52.07.58.2a.63.63,0,0,1-.19.57,8.83,8.83,0,0,1-1,.58c-.21.11-.41.24-.72.44a3.8,3.8,0,0,0,2.13-.28l4.67-1.6a1.07,1.07,0,0,1,.38-.1.6.6,0,0,1,.41.2.45.45,0,0,1,0,.44,4,4,0,0,1-1,.62c-1.54.57-3.1,1.11-4.65,1.64a3,3,0,0,1-.79.16c-1.81.12-3.62.24-5.44.33-.52,0-1.08.09-1.45-.47-.08-.13-.42-.14-.65-.14-2.12,0-4.24,0-6.37,0-.57,0-1-.07-1.1-.74-.38.18-.78.25-1,.47a.91.91,0,0,1-1.35.22c-1.82,2.31-4,4.27-5.42,6.82s-3.31,4.74-4.27,7.47c.82.56.86.62.79,1.62a11.44,11.44,0,0,0-.14,1.74,4.21,4.21,0,0,1-1.06,3.07,14,14,0,0,0-1,1.37q-1.23,2.09-2.4,4.18a10.11,10.11,0,0,0-.8,1.78c-.25.81-.08,1,.78,1,.7,0,1.41-.12,2.11-.18s1.27-.11,1.91-.14a1.92,1.92,0,0,1,1.39.49c.14.12.3.22.47.35a2.08,2.08,0,0,0,.3-.31c.59-1,.51-1.28-.52-1.81-.08,0-.18-.08-.27-.13s-.4-.37-.27-.66.41-.3.69-.26a1.81,1.81,0,0,1,1.63,2.55,3.21,3.21,0,0,1-.22.54c-.52,1-1,1.16-2.11.79-.47-.16-1-.45-1.48-.24a12,12,0,0,1,.44,1.52c.12.66-.71.69-.94,1.12a.88.88,0,0,0,1.08.38,5.87,5.87,0,0,1,1.17-.28,2.34,2.34,0,0,1,1.16.13c.89.43,1.65,1.17,2.79.92.11,0,.38.19.41.33a.57.57,0,0,1-.2.49,1.61,1.61,0,0,1-1.71.23c-.49-.21-.93-.52-1.41-.75a1.57,1.57,0,0,0-.83-.25,6.69,6.69,0,0,0-1.65.43c-.2.07-.34.37-.41.6s.12.46.38.6a1.49,1.49,0,0,0,1.35,0,3,3,0,0,1,1.16-.15c.13,0,.35.23.37.38a.61.61,0,0,1-.27.45,4.55,4.55,0,0,1-.64.27c-.33.16-.78.27-.94.53a9.51,9.51,0,0,0-1.41,3.11c-.16.94,0,1.31.94,1.69s1.73.51,2.6.77a3.3,3.3,0,0,1,1.12.39,8.12,8.12,0,0,1,2,1.85,2,2,0,0,0,2.34,1c.23,0,.48,0,.7-.08,1.55-.44,3.12-.82,4.64-1.36a62.25,62.25,0,0,0,8.75-3.78c.86-.46,1.71-.92,2.55-1.4a38.79,38.79,0,0,0,5.61-4,1.29,1.29,0,0,0,.41-1.63,2.39,2.39,0,0,0-.15-.37c-.37-.79-.75-1.59-1.14-2.38a5.76,5.76,0,0,0-.36-.6,12,12,0,0,0-.81,1.13,5.4,5.4,0,0,1-1.59,1.74,3.77,3.77,0,0,1-5.6-1c-.17-.26-.34-.52,0-.76a.62.62,0,0,1,.83.06c.23.19.43.42.66.61a2.55,2.55,0,0,0,3.16.19,3.49,3.49,0,0,0,1.42-1.48,3.77,3.77,0,0,1,1.7-1.74,7.53,7.53,0,0,0,.87-.5,3.35,3.35,0,0,0,1.66-2.94.65.65,0,0,0-.57-.7c-.65-.1-1.32-.18-2.1-.28.24.53.7.84.5,1.35-.34.85-.61,1.73-1,2.55s-1.17,1.08-2,.46a.74.74,0,0,0-.82-.14,3.86,3.86,0,0,1-.48.16.9.9,0,0,1-1-.19c-.28-.33-.14-.67,0-1a15.18,15.18,0,0,0,.8-1.68A2,2,0,0,1,106,94.55s0-.12,0-.18c-.92-.31-.92-.31-1.51.19A5.75,5.75,0,0,1,104,95a2,2,0,0,1-2.91-.51,2.9,2.9,0,0,1-.59-1.83c0-1.43.11-2.86.16-4.29a5.53,5.53,0,0,0-1.14-3.76,1.89,1.89,0,0,1-.4-.66.72.72,0,0,1,.15-.58c.06-.07.37,0,.53.09s.23.23.34.35a6.75,6.75,0,0,1,1.67,5.07c-.07,1.23-.06,2.47,0,3.7a1.45,1.45,0,0,0,.93,1.56,4.08,4.08,0,0,1-.54-1.16,9,9,0,0,1,.81-5,1.64,1.64,0,0,1,2-1,1.6,1.6,0,0,0,.3,0c1.27-.13,2.54-.27,3.82-.39s2.81-.27,4.22-.3a6.61,6.61,0,0,1,6.06,3.57,15.43,15.43,0,0,1,2,6C121.49,97,121.58,98.13,121.73,99.51Zm-8,11.32c.09.44.15.82.23,1.2a5.72,5.72,0,0,1-.73,4.32c-.33.53-.6,1.09-.93,1.62a9.29,9.29,0,0,1-1,1.37,15.77,15.77,0,0,1-3.86,3.26,17.8,17.8,0,0,0-5.58,4.57,8.13,8.13,0,0,1-2.31,2c-.37.22-.73.46-1.09.7-1.32.88-2.57,1.91-4.27,2.08-.37,0-.75.14-1.12.21a4.47,4.47,0,0,0,1.21,0l4.33-.34c4.37-.37,8.75-.38,13.13-.35.23,0,.47,0,.7,0,2.79.23,5.58.42,8.35.71,3,.32,6.13.15,9.16.74a4.32,4.32,0,0,0,2.37-.26,10.6,10.6,0,0,1,4.73-.84,8.87,8.87,0,0,0,1,0,4.75,4.75,0,0,0,.15-1.26,26.47,26.47,0,0,0-.67-3.53,33.8,33.8,0,0,0-1.27-3.29,6.36,6.36,0,0,0-.37-.66c-.25.12-.43.21-.62.28a1.87,1.87,0,0,1-2.32-.56,3.1,3.1,0,0,0-1.62-1.07,6.88,6.88,0,0,1-.74-.32,11.93,11.93,0,0,0-2.24-.84,2.52,2.52,0,0,1-2.19-2.34,7.64,7.64,0,0,1-.12-1.06c0-.62,0-1.24,0-1.86,0-1.26-.43-1.69-1.74-1.78-.67,0-1.34,0-2,0-1.1,0-1.17,0-1.59-1-.33.14-.66.3-1,.42a3.41,3.41,0,0,1-3.35-.33C115.48,112.08,114.61,111.49,113.69,110.83Zm-1,.89a6.05,6.05,0,0,0-.45.63c-.33.68-.65,1.36-1,2.05a13,13,0,0,1-3.88,5.27c-.31.25-.59.54-.89.8a26.09,26.09,0,0,1-4.72,3.33,2.56,2.56,0,0,1-.85.27.46.46,0,0,1-.38-.23c0-.12,0-.3.11-.43s.16-.11.25-.16a32.45,32.45,0,0,0,5.76-4.25,14.44,14.44,0,0,0,3.68-5.07c.55-1.21,1.22-2.38,1.85-3.57a2.18,2.18,0,0,0,0-2.17c-.37.47-.69.83-1,1.22q-2.25,3.3-4.48,6.62a11.07,11.07,0,0,1-2.38,2.5c-.69.53-1.37,1.07-2.09,1.55a23.65,23.65,0,0,1-4.94,2.82,2.69,2.69,0,0,1-2.07.26,14.69,14.69,0,0,1-3.13,4.93,2.65,2.65,0,0,0-.53,2c0,.32.23.44.52.49a5.66,5.66,0,0,0,3.79-.71c1.06-.62,2-1.37,3.08-2a8.39,8.39,0,0,0,1.7-1.5,24,24,0,0,1,3-2.92c1.17-.91,2.52-1.63,3.78-2.44a11.9,11.9,0,0,0,3.57-3.53c.41-.63.75-1.31,1.16-1.94A4.94,4.94,0,0,0,112.72,111.72ZM95.45,122.54a12.81,12.81,0,0,0,3.79-1.66c1.47-1,2.89-2,4.32-3a10.06,10.06,0,0,0,2.38-2.49c1-1.53,2-3.06,3.09-4.57a34.63,34.63,0,0,1,2.35-3.17c.45-.52.55-.91.13-1.47-.17.11-.34.2-.49.32-.79.61-1.56,1.24-2.37,1.82a54.64,54.64,0,0,1-11,5.88,51.72,51.72,0,0,1-7.09,2.26,7.37,7.37,0,0,1-2.87.36,1.3,1.3,0,0,0-1.16.33c.22.19.36.43.55.47a11,11,0,0,0,3.28.44c1-.09,1.94-.16,2.91-.2a3.42,3.42,0,0,0,1.62-.47c.81-.46,1.66-.85,2.48-1.3a10.94,10.94,0,0,0,1.14-.78c.21-.16.38-.37.6-.51a.73.73,0,0,1,.93.06.63.63,0,0,1,.09.89,2,2,0,0,1-.52.59,14.83,14.83,0,0,1-2.11,1.31,3.1,3.1,0,0,0-2,3C95.43,121.18,95.45,121.8,95.45,122.54Zm-9.32,10.25a5.23,5.23,0,0,1-.82-3.72c.12-1.55.21-3.12.48-4.65a5.41,5.41,0,0,0-.36-2.87,2,2,0,0,0-.4.09,11,11,0,0,0-3.36,2.27c-.3.31-.57.65-.89.94a8.56,8.56,0,0,0-2,3.19,24.57,24.57,0,0,1-1.55,3.38,3.21,3.21,0,0,0-.57,1.51A54.91,54.91,0,0,0,86.13,132.79Zm5.32-6.31a8.18,8.18,0,0,0,2.62-7.23,28.91,28.91,0,0,0-2.94,0A2.7,2.7,0,0,0,89,120.62a11.44,11.44,0,0,0-1.76,3.87,27.45,27.45,0,0,0-.51,6c.09,1.85,1.49,2.63,3.39,1.88-.4-.31-.76-.59-1.13-.86a2.94,2.94,0,0,1-1.29-2.22,13.89,13.89,0,0,1,.42-4.06,6.79,6.79,0,0,1,.49-1.27,1.75,1.75,0,0,1,1.15-.88c.28-.08.59-.09.69.2s-.06.41-.16.59-.36.32-.45.51a9.66,9.66,0,0,0-.73,5.06,1.18,1.18,0,0,0,1.05,1,3.75,3.75,0,0,0-.07-.75,4.32,4.32,0,0,1,.35-3.58c.39-.76.85-1.47,1.3-2.2a.89.89,0,0,1,.33-.36.54.54,0,0,1,.45,0,.44.44,0,0,1,.19.39,2.51,2.51,0,0,1-.32.71C92.1,125.28,91.77,125.88,91.45,126.48Zm13-34.38c.67-.44.84-.94.75-2.49,0-.48.14-1.09-.5-1.38C104.58,89.55,104.5,90.82,104.42,92.1Zm2.72,3.36a14.74,14.74,0,0,1-.32,1.49c-.16.48,0,.71.54.9l.85-2.31ZM87.72,118.77c-.38.65-.68,1.23-1,1.77s-.37.48.07,1.08L88.43,119ZM125,109.23c-.85-1.14-1.14-1.23-1.76-.68Zm-21.8-17.08h.22c.11-.83.23-1.67.34-2.51C103.15,90.43,103.42,91.32,103.17,92.15Zm20.89,18.13.09-.24c-.63-.12-1.09-.72-1.81-.6l-.08.21Zm-1.15.85.07,0s0,0,0-.05l-.07,0S122.92,111.11,122.91,111.13Z"/><path d="M86.93,83.88a9.29,9.29,0,0,1,4.5.92,6.88,6.88,0,0,1,2.22,1.66c.09.1.21.2.22.32a.88.88,0,0,1-.06.61.7.7,0,0,1-.62.15,4.3,4.3,0,0,1-.82-.54,2.24,2.24,0,0,0-.76-.43c-.93-.16-1.86-.28-2.8-.35-1.17-.08-2.35-.1-3.53-.13-.4,0-.8.07-1.2.07s-.71-.15-.54-.59-.17-.34-.33-.47c-.32-.26-.32-.6,0-.78a2.55,2.55,0,0,1,.86-.23C85.05,84,86,84,86.93,83.88Z"/><path d="M84.82,88.23a5.94,5.94,0,0,1-.84.7.81.81,0,0,1-.62.09c-.29-.12-.28-.41-.16-.68a3.24,3.24,0,0,1,4.63-.77c.55.48,1.09,1,1.61,1.47.31.29.55.49,1,.24s.78.1.71.58a.92.92,0,0,1-1.16.81,3.12,3.12,0,0,0-1.74.2,5.19,5.19,0,0,1-2.79.1c-.63-.14-.64-.28-.58-1A12.49,12.49,0,0,0,84.82,88.23Zm2.3.22-.3,1.74,1.7-.34Z"/><path d="M103,74.5a3,3,0,0,1,.4.12,19.93,19.93,0,0,0,4.5,1.07c1,.19,1.92.38,2.86.61a2.47,2.47,0,0,1,.86.46.45.45,0,0,1,0,.44c-.06.11-.25.16-.4.22a.33.33,0,0,1-.19,0c-2.24-.48-4.47-1-6.7-1.46a5.26,5.26,0,0,1-1.21-.48.74.74,0,0,1-.37-.43C102.72,74.86,102.88,74.68,103,74.5Z"/><path d="M109.67,80.28c-.19.13-.36.33-.48.31a1.58,1.58,0,0,1-.72-.3c-.7-.55-1.4-1.11-2.08-1.7a8,8,0,0,0-3-1.72,2.54,2.54,0,0,1-.8-.37.52.52,0,0,1-.13-.5.53.53,0,0,1,.48-.18,13.58,13.58,0,0,1,2.78,1.12,42.16,42.16,0,0,1,3.52,2.75A3.47,3.47,0,0,1,109.67,80.28Z"/><path d="M110.66,72.21c-1.23-.17-2.46-.32-3.68-.51-.15,0-.37-.24-.37-.36a.52.52,0,0,1,.33-.4,4.49,4.49,0,0,1,1.1-.07,9.44,9.44,0,0,1,1.19.15,5.81,5.81,0,0,0,3.72-.41,2.72,2.72,0,0,1,1-.28c.19,0,.51.09.56.23a.59.59,0,0,1-.2.55A7.59,7.59,0,0,1,110.66,72.21Z"/><path d="M102.73,77.71a1,1,0,0,1,.31.12c.87.54,1.77,1,2.59,1.66s1.36,1.15,2,1.74c.12.11.29.22.32.36a.94.94,0,0,1,0,.6.63.63,0,0,1-.52,0A14.06,14.06,0,0,1,106,81a12.37,12.37,0,0,0-2.92-2.2,2.23,2.23,0,0,1-.61-.49A.36.36,0,0,1,102.73,77.71Z"/><path d="M111.93,73.81,110,73.58c-.6-.06-1.2-.1-1.8-.15-.09,0-.22,0-.29,0s-.39-.2-.41-.33a.5.5,0,0,1,.29-.42,9.62,9.62,0,0,1,1.69-.13c1.1,0,2.21.14,3.31.2.73,0,1.09.22,1,.54-.14.5-.61.43-1,.45s-.6,0-.9,0Z"/><path d="M106.21,83.57c-.1.12-.21.34-.39.41s-.38-.13-.45-.27a6.29,6.29,0,0,0-1.82-2.06c-.5-.43-1-.89-1.44-1.36a1.39,1.39,0,0,1-.35-.58c0-.11.09-.3.2-.39s.24,0,.36,0,.11.07.16.12c.89.79,1.79,1.57,2.67,2.38A3.26,3.26,0,0,1,106.21,83.57Z"/><path d="M103.12,86.54v.2c0,.28-.09.57-.43.53a.66.66,0,0,1-.38-.47,6.64,6.64,0,0,0-.86-2.78l-.51-.85c-.1-.16-.22-.33-.31-.5s-.37-.66,0-.87.57.19.73.46a23.85,23.85,0,0,1,1.31,2.3,13.25,13.25,0,0,1,.55,2Z"/><path d="M104.54,85c-.18.18-.3.39-.47.45a.53.53,0,0,1-.45-.24,13.16,13.16,0,0,0-2-3.22,2,2,0,0,1-.33-.7c0-.11.12-.29.23-.37s.25,0,.36.06.15.13.21.21c.64.86,1.31,1.72,1.92,2.61A7.06,7.06,0,0,1,104.54,85Z"/><path d="M127.94,112.87c-.54-.21-.77-.42-.48-.86a7.25,7.25,0,0,0,.93-3.75c0-.29,0-.58,0-.87s-.09-.57.26-.65a.49.49,0,0,1,.63.48A7.25,7.25,0,0,1,127.94,112.87Z"/><path d="M123.15,104l.2-.2a5,5,0,0,1,2.72-.54,6,6,0,0,1,1.5.47c.14.07.17.37.25.56a1.54,1.54,0,0,1-.6.16c-.52-.06-1-.22-1.56-.27a3,3,0,0,0-1.73.4C123.28,104.93,123.15,104.82,123.15,104Z"/><rect class="cls-1" width="205.95" height="205.95"/></g></g></svg>