<svg xmlns="http://www.w3.org/2000/svg" viewBox="0 0 205.95 205.95"><defs><style>.cls-1{stroke:#000;stroke-miterlimit:10;stroke-width:0.36px;}.cls-2{fill:none;}</style></defs><title>Bembel BounceAsset 29</title><g id="Layer_2" data-name="Layer 2"><g id="WEB"><path class="cls-1" d="M38.25,58.45c.59-.55,1,.26,1.07.09s.51-.69.94-.53c.78.3.94.77,1.49,1.39.34.37.69.65,1,1,.12.09.1,0,.14,0,.69-1.56,1.54-1.3,1.86-.21.15.54.4,1.22.55,1.76a3.61,3.61,0,0,0,1.74,2.24c.62.37,1.26.7,1.88,1.08s1.27.81,1.89,1.23L56,70.08c.43.3.86.62,1.31.91a4,4,0,0,0,1.06.61c1.51.39,3,.94,4.51,1.3,2.51.6,5.09.78,7.59,1.4,1.09.27,2.19.52,3.29.8a6.82,6.82,0,0,1,2,1.17,1.44,1.44,0,0,0,.93.69c.49.1,1.35.19,1.91.29,0-.7.24-1.7-.29-1.74-.87-.08-.49-1.8,0-2.53a.85.85,0,0,0,.11-.93c-.66-1.42,0-2.63.73-3.78a1.72,1.72,0,0,1,1.47-.74c1.13,0,2.26,0,3.39,0a.92.92,0,0,1,.37,0c1.32.56,2.72,1,3.57,2.32.45.67.86,1.38,1.27,2.09a2.83,2.83,0,0,1,.27,1.74,1.86,1.86,0,0,1-1.71,1.69.62.62,0,0,0-.52.33,1.77,1.77,0,0,0-.42,1,3.11,3.11,0,0,1-.84,1.74c-.4.39-1.1,1.54-1.21,1.64s-.41.59-.7.85c.46.17.82.29,1.16.44a1.49,1.49,0,0,1,1,1,1,1,0,0,0,.27.48c.55.64,1.15,1.24,1.68,1.9a4.8,4.8,0,0,0,2.14,1.47c.56.22,1.12.42,1.68.63.71.28.87.57.65,1.31a4.16,4.16,0,0,1-.42.94,1,1,0,0,0,.18,1.37,10,10,0,0,1,2,2.52,2.49,2.49,0,0,0,.8.78,29.34,29.34,0,0,1,3.31,2.78c.6.51,1.16,1.06,1.76,1.56s1.39,1.08,2.08,1.62c.47.38.93.75,1.37,1.15a2.35,2.35,0,0,0,2.15.73c.67-.11,1.25-.15,1.84-.2.41,0,1,.07,1.52.08a1.53,1.53,0,0,1,.37,0,.82.82,0,0,1,.73,1,1.38,1.38,0,0,1-1.17,1c-.23,0-.47,0-.72.11a15.15,15.15,0,0,1,3.66,1.16,1.76,1.76,0,0,0,1.44,0,13.46,13.46,0,0,1,2.09-.58,20.24,20.24,0,0,0,3.46-1.2.92.92,0,0,0,.62-.75c.23-1.3.48-2.6.72-3.89a1.1,1.1,0,0,0-.37-1.1.81.81,0,0,1-.23-1c.42-1.08.79-2.19,1.2-3.27a10.21,10.21,0,0,1,.53-1.11,2,2,0,0,1,1.72-1.28c.11,0,.28-.08.31-.16.18-.55.61-1,.34-1.69-.11-.26-.13-.55-.22-.82s.07-.56-.06-.66a5.24,5.24,0,0,1-2.29-4l-.15-1.13c0-.15,0-.35-.09-.45-.7-.84-.45-1.93-.76-2.88a1.49,1.49,0,0,1,.58-1.68,1.6,1.6,0,0,0,.5-2,1.15,1.15,0,0,1,0-.73,3.07,3.07,0,0,1,2-2,9.9,9.9,0,0,1,1.76-.06c.5,0,.94-.54,1.74-.6,1.09-.07,1.34,0,1.85,1a2.5,2.5,0,0,0,.47.68,1.92,1.92,0,0,1,.48,2.16,3.19,3.19,0,0,1-.28.59.63.63,0,0,0,0,.71,3.08,3.08,0,0,1,.19,2.38,2.92,2.92,0,0,0,.06,1.91,1.88,1.88,0,0,1-.15,1.9,4.62,4.62,0,0,0-.57,2.13,4.53,4.53,0,0,0,0,.79c1.28-.52,2.5-1,3.71-1.51a10.94,10.94,0,0,1,3.19-.77,1.42,1.42,0,0,1,.65.05,1.69,1.69,0,0,0,1.17-.05A35.72,35.72,0,0,0,143,81.58a5.07,5.07,0,0,0,1.13-.66,11.89,11.89,0,0,1,4.62-2.27,23.13,23.13,0,0,0,5.94-2.59,7,7,0,0,0,1.52-1.1c1.33-.81.78-2,.76-2.78s-.14-1.51-.26-2.44a15.42,15.42,0,0,1-.14-2.15c0-.5.21-1,.5-1,.5,0,1.76,1.09,2,1,.71.16.7,2.15.89,3,.05.21.13.47.23.81a9.74,9.74,0,0,0,1.21-.84.85.85,0,0,1,1.24.05.82.82,0,0,1,0,1.16c-.3.44-.68.82-1,1.24-.51.64-1,1.28-1.49,1.93a1.91,1.91,0,0,0-.29.59,6.21,6.21,0,0,1-1.14,1.67,62.74,62.74,0,0,1-5.89,4.37,6.73,6.73,0,0,1-.89.53c-3.26,1.63-6.51,3.28-9.78,4.88-1.15.57-2.36,1-3.54,1.54-.26.11-.53.21-.77.34-1.2.62-1.24.64-1.19,2a7,7,0,0,0,.3,1.75c.25.91.58,1.8.85,2.7a11.7,11.7,0,0,1,.4,2.88c.08,1.45.2,2.88.3,4.32a.69.69,0,0,1,0,.28c-.22.67.23,1,.68,1.28,1,.7,2.15,1.32,3.12,2.11a10.92,10.92,0,0,1,3.9,5.65,10.81,10.81,0,0,0,3.07,5c.62.61.64.8.19,1.54a6.91,6.91,0,0,1-2.75,2.64,14.43,14.43,0,0,0-1.42.93.47.47,0,0,0-.26.54,31.08,31.08,0,0,0,.8,3.68,19.33,19.33,0,0,1,2.77-1.63c1.44-.7,2.58-1.22,4-2,.64-.33,1.22-.59,1.88-.89.28-.13.95-.49,1.25-.6.72-.27.93-1.28,1-2,0-.21.17-.94.24-1.43a6.32,6.32,0,0,1,.81-1.77,3.74,3.74,0,0,1,.46-.59,1.39,1.39,0,0,1,2-.31,26.39,26.39,0,0,1,2.44,1.92c.71.62,1.34,1.33,2,2a8.47,8.47,0,0,0,1.27,1,6,6,0,0,1,2,1.88,4.19,4.19,0,0,1,.39.76,1.3,1.3,0,0,1-.17,1.49,1.55,1.55,0,0,1-1.68.21,33,33,0,0,0-3.22-1.49,4.36,4.36,0,0,0-2.14-.75c-.73.08-1.06.54-1.63.92a30.74,30.74,0,0,0-6.8,5.92,32.37,32.37,0,0,1-3.73,3.86c-.74.62-1.4,1.35-2.11,2a4.34,4.34,0,0,1-3.82.84,1.73,1.73,0,0,1-1.06-.72,12.93,12.93,0,0,1-1.94-3.12c-1-2.32-2.05-4.65-3.08-7-.05-.11-.12-.22-.16-.3-.59,0-1.15.06-1.7,0a2.42,2.42,0,0,1-2.24-1.6c-.12-.28-.26-.56-.37-.81-.12,0-.2,0-.23,0l-5.45,4.2c-.5.38-1,.75-1.54,1.08a2.77,2.77,0,0,0-1.4,2.11,6.71,6.71,0,0,1-1.1,2.78,11,11,0,0,1-2.13,2.38c-.94.78-1.93,1.5-2.92,2.22a23.07,23.07,0,0,0-2.31,1.76,2.15,2.15,0,0,0-.49,1.88,3.39,3.39,0,0,1-.47,2.17,1.6,1.6,0,0,1-1.61.94c-1.43-.16-1.11-.47-2.54-.65a17.62,17.62,0,0,0-3.49-.46,8.75,8.75,0,0,1-2.94-.25,2.32,2.32,0,0,1-1.39-1,1.21,1.21,0,0,1,.52-1.72,8.26,8.26,0,0,1,3.27-.53,8.88,8.88,0,0,0,3.79-1.27,5.42,5.42,0,0,0,2.43-2.51,35.24,35.24,0,0,1,4-5.59,15.21,15.21,0,0,0,3.07-5,5.11,5.11,0,0,1,2-2.65c.71-.51,1.35-1.12,2.12-1.76a5.73,5.73,0,0,0-.6-.25c-.24-.06-.5-.06-.74-.12-.53-.11-.71-.49-.38-.88a9.4,9.4,0,0,0,1.7-3.44,33.63,33.63,0,0,0,.67-3.32c.11-.58.17-1.18.27-1.77a5.6,5.6,0,0,1,1.06-2.39,4,4,0,0,0,.37-.54c.28-.53.51-1.09,1.28-1.27-.76-1.15-1.79-1.86-2.47-3-.24.32-.41.54-.57.77-.59.85-1.18,1.7-1.75,2.57a2.09,2.09,0,0,1-1.28.85,20.64,20.64,0,0,1-6.26.57,8.25,8.25,0,0,1-2.71-.17.62.62,0,0,0-.51.15,1.59,1.59,0,0,1-1.24.32c-.6,0-1.24-.13-1.84-.13a3.22,3.22,0,0,1-2.15-.32,1.9,1.9,0,0,1-.91.18,2.16,2.16,0,0,1-.92-.55c-.51-.47,0-.57-.14-.78s-.48-.23-.74-.42a19.85,19.85,0,0,1-1.8-1.37,4.6,4.6,0,0,0-1.46-.83,22.67,22.67,0,0,1-4.62-2.31,3,3,0,0,1-.39-.27,35.46,35.46,0,0,1-4.61-4.56c-.54-.73-1.15-1.41-1.69-2.15a4.92,4.92,0,0,0-1-1.09c-.39-.27-.71-.7-1.1-1a2.5,2.5,0,0,0-2-.26c-.72.44-1.87,2.95-1.92,3a34.32,34.32,0,0,1-3.42,5c-.23.32-.46.59-.31,1a.75.75,0,0,1,0,.55c-.27.42-.06.7.2,1s.69.73.54,1.32c-.08.3.17.45.39.58.48.3,1,.57,1.44.89,1.12.8,2.23,1.63,3.34,2.44a5.51,5.51,0,0,0,.7.49,25.71,25.71,0,0,1,4.41,3.2c1,.82,2,1.67,3.13,2.42a3.39,3.39,0,0,1,1.56,2.93c0,1.72.27,3.44.33,5.17.08,2.14.08,4.27.11,6.41A3.22,3.22,0,0,0,95.9,130a11.58,11.58,0,0,1,.71,2.13,2.16,2.16,0,0,0,.94,1.36c.72.49,1.47,1,2.2,1.45s1.44.9,2.12,1.4a1.27,1.27,0,0,1,0,2.25,2.08,2.08,0,0,1-1.6.4,9.52,9.52,0,0,1-3.28-.72c-.44-.24-.92-.41-1.34-.67a4.41,4.41,0,0,0-2.58-.76,4.48,4.48,0,0,1-2.27-.49,1.55,1.55,0,0,1-1-1.56c0-.53,0-1.07,0-1.6,0-.28,0-.57-.08-.85a.85.85,0,0,0-.61-.75,9.86,9.86,0,0,0-1.17-.36,2.49,2.49,0,0,1-1.18-.56.84.84,0,0,1-.21-1.1,10.73,10.73,0,0,0,.67-5.35,2.56,2.56,0,0,0-.48-1.2,16.06,16.06,0,0,0-1.89-2.22,8.47,8.47,0,0,0-1.76-1.08c-.74-.41-1.51-.78-2.24-1.21s-1.44-.89-2.14-1.37c-1.16-.78-2.32-1.59-3.52-2.42a5.09,5.09,0,0,0-.22,2.38c.18,2.57.4,5.14.62,7.71a7.64,7.64,0,0,1-.2,2.52,3.75,3.75,0,0,1-1.52,2.2,12.71,12.71,0,0,1-3.93,2,11.13,11.13,0,0,0-2.52,1.06,25.42,25.42,0,0,1-4.31,1.62c-.57.18-1.15.31-1.71.51a1.41,1.41,0,0,1-1.5-.28c-.34-.31-.63-.69-1-1s-.95-.9-1.44-1.34a.62.62,0,0,0-.78,0,2.23,2.23,0,0,0-1.17,1.3,8.21,8.21,0,0,1-2.5,3.81c-.25.23-.44.53-.67.78a2.43,2.43,0,0,1-.57.49.7.7,0,0,1-.92-.2,1.19,1.19,0,0,1-.18-.33c-.71-2.27-1.33-4.56-.28-6.89.45-1,1-1.95,1.5-2.93a9.13,9.13,0,0,0,.55-1.19,1.84,1.84,0,0,1,2.17-1.51,5.92,5.92,0,0,0,2.63-.52,8.89,8.89,0,0,1,1.54-.38,15.77,15.77,0,0,1,1.68-.23,10.56,10.56,0,0,1,1.49,0,6.15,6.15,0,0,0,2.2-.43.68.68,0,0,0,.37-.39,4.32,4.32,0,0,0,.32-1.17,10,10,0,0,0-.51-4c-.49-1.36-1-2.71-1.42-4.09a17.2,17.2,0,0,1-.91-8c.18-1.08.43-2.16.64-3.24.1-.52.16-1.05.22-1.58a2.88,2.88,0,0,1,.44-1.33,1.14,1.14,0,0,0,.21-.6c0-.62,0-1.25,0-1.87a3.08,3.08,0,0,1,.11-.74c.38-1.29.81-2.57,1.17-3.87.27-.93.44-1.89.69-2.83.32-1.24.61-2.5,1-3.72a12.09,12.09,0,0,0,.35-5c-.1-1.15-.91-1.62-1.82-1.9A43,43,0,0,1,61,77.72a50.18,50.18,0,0,0-6.42-2.44,4.36,4.36,0,0,1-2-1.34c-1.49-1.59-7.27-6.74-8-7.23-.14-.09-1-.74-1.31-1-.65-.47-2.49-1.68-2.65-1.78-.74-.41-3.17-2-3-3.13.15-.87-.48-1.32.14-1.73C37.89,59,38,58.66,38.25,58.45ZM79.86,99.06c.46-.58.94-1.15,1.35-1.77s3.9-6.67,3.83-8c-.07.08-.76.13-.79.21a46,46,0,0,1-2.2,5.88c-.38.66-1.1,1.73-1.65,2.57A21.64,21.64,0,0,0,79,100.16,8.56,8.56,0,0,0,79.86,99.06Zm-15.12-.93c0,.18-.09.26-.11.35a3.89,3.89,0,0,1-.6,2.32c-.1.12-.07.36-.1.55-.24,1.36-.45,2.72-.7,4.08a14,14,0,0,0-.11,4.87,33.7,33.7,0,0,0,1.74,6,16.26,16.26,0,0,1,1.08,4,7.19,7.19,0,0,1-.29,3.44,1.57,1.57,0,0,1-1.11,1,5.64,5.64,0,0,1-3,.34.94.94,0,0,0-.37,0c-1.4.31-2.9.16-4.2.91a.16.16,0,0,1-.09,0c-.81,0-1.14.54-1.2,1.29,0,.25-.1.49-.1.74a2.63,2.63,0,0,0,1.4,2.48,8.56,8.56,0,0,1,3,2.5,3.85,3.85,0,0,0,.52.55.78.78,0,0,0,.86.17c.53-.19,1.09-.31,1.62-.49a25.41,25.41,0,0,0,4.12-1.59,12.38,12.38,0,0,1,2.68-1.15,11.92,11.92,0,0,0,3.6-1.8A2.68,2.68,0,0,0,74.64,127a9.51,9.51,0,0,0,.13-2.06c-.17-2.54-.37-5.07-.62-7.6a12.32,12.32,0,0,1,1.33-6,.79.79,0,0,1,.75-.48.39.39,0,0,1,.38.57c-.22.49-.46,1-.64,1.46-.31.85-.24,1.05.46,1.6.2.15.41.29.62.43L80.26,117l.57.33c1.38.75,2.77,1.49,4.14,2.25a5.73,5.73,0,0,1,1,.73c.32.3.58.66.88,1a5.53,5.53,0,0,1,1.65,4.35,25.53,25.53,0,0,1-.66,4.47c.27.07.52.11.75.19.58.23,1.16.47,1.72.75a1,1,0,0,1,.5.53,1.73,1.73,0,0,0,1.07,1,12,12,0,0,0,3.16.89c.61.11.94-.2.82-.78a6.87,6.87,0,0,0-.58-2,4.32,4.32,0,0,1-.51-2.35c0-.5-.06-1,0-1.5a91.48,91.48,0,0,0-.41-9.79,2.53,2.53,0,0,0-1-2c-1.38-1-2.7-2.16-4.07-3.21a24,24,0,0,0-2.87-2.13,22.66,22.66,0,0,1-2.08-1.44c-.72-.51-1.41-1-2.14-1.55s-1.33-.83-2-1.26c-.48-.32-.9-.68-.79-1.38a1,1,0,0,0-.18-.59.91.91,0,0,0-1-.49c-.7.07-.81-.09-.9-.85a1,1,0,0,0-.75-.94,45.67,45.67,0,0,1-5.32-2,3.08,3.08,0,0,1,0,.46c-.12.67-.54.78-1,.87-.93.18-1.33-.35-1.46-1.33a1.24,1.24,0,0,0-1.23-1.11c-.28,0-.56,0-.85,0Zm58.66,20.62a9,9,0,0,1,1.61.83,3,3,0,0,0,2.93.46c.94-.27,1.88-.51,2.83-.74,1.12-.27,1.54-.12,2.12.86a19.39,19.39,0,0,1,.91,2,1.86,1.86,0,0,0,2.76,1,6,6,0,0,1,3.83-.62,4.7,4.7,0,0,0,3.72-.93c.83-.62,1.72-1.16,2.59-1.72a5.13,5.13,0,0,0,2-2.17s0-.08,0-.1l-.31-.35a11.91,11.91,0,0,1-3-5,10.11,10.11,0,0,0-3.62-5.27c-.87-.71-1.88-1.24-2.81-1.89a11.09,11.09,0,0,1-1.27-1.11.67.67,0,0,1,0-1c.21-.22.15-.44.12-.69-.11-1.16-.2-2.32-.29-3.47,0-.6-.06-1.19-.11-1.79-.16-1.8-1-3.4-1.44-5.19a7.91,7.91,0,0,1-.73.54,1.12,1.12,0,0,1-1.65-.54,1.87,1.87,0,0,1-.18-.73,7.68,7.68,0,0,1,.08-1.59,12.43,12.43,0,0,1,1.43-4.42c-.6.17-1,.27-1.48.43-.8.29-1.57.66-2.38.91s-1.7.48-2.06,1.43a1.24,1.24,0,0,1-.18.22,3.5,3.5,0,0,0-.74,1.4,29.38,29.38,0,0,0-1.3,7,8.24,8.24,0,0,1-.17,1.4.52.52,0,0,1-.87.31,2.15,2.15,0,0,1-.32-.35,4.27,4.27,0,0,1-.91-2.23c-.09-.75-.14-1.5-.19-2.25a5.68,5.68,0,0,0-.46-2c-1,.34-1.18.4-1.53,1.21-.55,1.3-1,2.63-1.52,4a.61.61,0,0,0,.09.51,1.6,1.6,0,0,0,1,.65,4.94,4.94,0,0,0-.2-1.61c-.09-.37.07-.66.32-.67s.32.24.37.45c.26,1.13.63,2.22.83,3.36a3.09,3.09,0,0,0,.75,1.6c1.15,1.25,2.31,2.48,3.47,3.73a5.54,5.54,0,0,1,.65.8c.36.57.31.9-.23,1.28a2.77,2.77,0,0,0-.89,1.06c-.13.29-.36.52-.5.8a11.29,11.29,0,0,0-.76,1.71,11.4,11.4,0,0,0-.27,1.67,18.39,18.39,0,0,1-.78,4C124.24,116.83,123.82,117.77,123.4,118.75ZM83.93,83.26c0-.53-.12-.9-.64-.79a11,11,0,0,1-2.48.57,3.46,3.46,0,0,1-2-1.48,2.49,2.49,0,0,1-.38-1.13,4.52,4.52,0,0,1,.18-1.19c.13-.62,0-.83-.61-1a7.54,7.54,0,0,0-.82-.2c-.46-.08-.51,0-.69.42A13,13,0,0,0,75.91,80a41.29,41.29,0,0,1-1.73,5,27.29,27.29,0,0,0-1.62,5.49c-.36,2.32-.76,4.64-1.15,7-.12.73,0,.93.6,1.3a3.86,3.86,0,0,0,.69.29l3,1c.45.14.9.26,1.35.42s.58,0,.73-.34A15.94,15.94,0,0,1,79.92,97a18.79,18.79,0,0,0,2.31-4c.31-.76,2-5.12,1.85-6.68A27.44,27.44,0,0,0,83.93,83.26Zm53.65,40.58a1.81,1.81,0,0,0,0,.22c1.17,2.51,2.31,5,3.53,7.51a22.61,22.61,0,0,0,1.57,2.45,1.24,1.24,0,0,0,1,.58,3.32,3.32,0,0,0,2.64-.72c.68-.66,1.31-1.36,2-2a32,32,0,0,0,3.66-3.8,33.42,33.42,0,0,1,8.26-6.7,1.74,1.74,0,0,1,1.29-.37,9.31,9.31,0,0,1,.93.5,6.77,6.77,0,0,0,2.11.79,1.66,1.66,0,0,0-1.19-1.64c-.43-.2-.87-.44-1.28-.67-1-.54-1.79-.75-2.78-1.3a8,8,0,0,0-.95-.41c-.44-.17-.66-.08-.79.34a8.41,8.41,0,0,0-.23,1.11,2.55,2.55,0,0,1-1.64,2.13l-.95.41c-.66.31-1.31.62-2,.94-1.63.81-3.25,1.65-4.89,2.44a6.19,6.19,0,0,0-1.71,1.15c-.22.22-.43.45-.67.66-.48.42-.95.83-.87,1.57,0,.11-.2.34-.26.33a.69.69,0,0,1-.4-.3,1.51,1.51,0,0,1,.27-1.51,2.85,2.85,0,0,0,.54-2.39c-.1-.56-.2-1.11-.31-1.67-.06-.26-.16-.51-.24-.77a5.93,5.93,0,0,1-3.4.85c-.41,0-.82-.09-1.22-.13A3.85,3.85,0,0,0,137.58,123.84ZM114.16,140.4c.11-.63-.13-1-.09-1.53a1.73,1.73,0,0,1,.41-.66,19.15,19.15,0,0,1,3.9-3.24,10.43,10.43,0,0,0,4.93-6.67,1.82,1.82,0,0,1,.76-1.15c.75-.56,1.51-1.12,2.25-1.7,1.31-1,2.61-2.07,3.91-3.1.52-.4,1.06-.79,1.56-1.21.12-.1.26-.36.21-.45a1.25,1.25,0,0,0-.52-.47c-.11-.06-.3,0-.45,0-.92.23-1.82.48-2.74.7a10.45,10.45,0,0,1-1.57.24,3.39,3.39,0,0,1-2.15-.69c-.27.26-.5.5-.76.73a14,14,0,0,1-1.48,1.3,4.92,4.92,0,0,0-1.84,2.42,15,15,0,0,1-1.42,2.86,25.07,25.07,0,0,1-2.78,3.56,6.75,6.75,0,0,0-.47.59A31.9,31.9,0,0,0,113,136.3a3.85,3.85,0,0,1-1.82,1.83,26.77,26.77,0,0,0-2.46,1.22c-.14.09-.63.18-.34.53.12.14.23.39.4.46a2.24,2.24,0,0,0,1.09.24A15.38,15.38,0,0,0,114.16,140.4ZM64.81,97.09l3.21.06c.22,0,.33-.13.37-.35q.15-.78.33-1.56c.34-1.5.74-3,1-4.49a35.54,35.54,0,0,1,2-7.26c.1-.26.17-.54.26-.81.3-.89.55-1.79.92-2.66a32.16,32.16,0,0,1,1.42-3c.32-.6.1-.72-.35-.91a4.48,4.48,0,0,0-.82-.21l-1.38-.29L66,74.38a2,2,0,0,0-.42,0c-.22,1.4,0,2.72-.18,4.14a3.76,3.76,0,0,1,2.54,2.75,11.49,11.49,0,0,1-.33,5.49,50.31,50.31,0,0,0-1.31,5c-.26,1.3-.65,2.54-1,3.8C65.08,96,65,96.51,64.81,97.09ZM38.6,59.34c-.05.22-.67,0-.33.91s0,.88.24,1.22A16.17,16.17,0,0,0,40.23,63c1.4.91,7.62,5.36,8.13,5.91a39.28,39.28,0,0,1,5,4.54,4.36,4.36,0,0,0,2.09,1.19,3.47,3.47,0,0,1,1,.3c2.56.88,6.23,2.51,7.48,3.1.24.11.49.19.72.27,0-1.09,0-2.09,0-3.1,0-.83,0-.89-.84-1.11s-1.72-.35-2.56-.6c-1.17-.34-2.32-.75-3.48-1.14a1.5,1.5,0,0,1-.32-.19c-1.31-.86-2.63-1.72-3.93-2.59-2.16-1.46-4.12-3.21-6.48-4.35l-.09-.05a4.41,4.41,0,0,1-2.32-3,8.13,8.13,0,0,0-.31-1.2c-.14-.26-.07-1-.45-.84s-.44,1-.55,1.27-1.54-1-2-1.51-1.15-1.49-1.6-.84C39.47,59.29,38.84,58.22,38.6,59.34ZM161.81,71.57c.05-.08.5-.44.18-.51-.52-.11-1.11.74-1.53,1.07-.23.17-.49.65-.66.48a2.78,2.78,0,0,1-.45-1.36c-.11-1.2-.28-2.78-.77-3-.17-.09-1.18-.84-1.39-.62s.12,1.34.14,1.45c.18,1,.71,4.13.28,5.76a4.23,4.23,0,0,0-.23.41,21.83,21.83,0,0,1-2,1.54,21.18,21.18,0,0,1-6.28,2.77,9.74,9.74,0,0,0-3.72,1.76,11.22,11.22,0,0,1-2.76,1.6c-.46.2-.93.39-1.37.63A19,19,0,0,1,137,84.94a2.66,2.66,0,0,0-2.1,1.91,26.53,26.53,0,0,0-.69,2.93,4.39,4.39,0,0,0,0,1.49c.07.44.44.52.77.2A4.12,4.12,0,0,0,136,89.62a1.65,1.65,0,0,1,.77-1,18.1,18.1,0,0,1,1.75-.91c.51-.24,1.06-.39,1.56-.64,2.82-1.39,5.65-2.76,8.42-4.22a43.05,43.05,0,0,0,5.34-3,55.13,55.13,0,0,0,4.41-3.36,3.45,3.45,0,0,0,.76-1,9.84,9.84,0,0,1,2.17-3.17A3.33,3.33,0,0,0,161.81,71.57ZM89.26,93.1c.31.43.58.84.89,1.23s.68.74,1,1.15a28.29,28.29,0,0,0,4.6,4.68,8.52,8.52,0,0,0,1.14.83,20.75,20.75,0,0,0,4.13,2,5.19,5.19,0,0,1,1.78,1,16.54,16.54,0,0,0,1.31,1.07c.78.57,1,.59,1.76,0a2,2,0,0,1,1.49-.42c.15,0,.92-.46,1.2-.47-.29-.38-1.14-.21-1.34-.51a.35.35,0,0,1,.22-.58c.27-.06.81,0,1.11-.07s1.17-.19,1.25-.62c.16-.8-3.39-.12-4.16.1a1.91,1.91,0,0,1-1.85-.38l-.93-.79-1-.81c-.69-.54-1.4-1.06-2.07-1.63s-1.21-1.1-1.82-1.63a29.71,29.71,0,0,0-3.09-2.6A4.36,4.36,0,0,1,93.36,93a7.32,7.32,0,0,0-2-2.2Zm39.79-11a3.19,3.19,0,0,0-.22-.64c-.29-.44-.63-.84-.92-1.28a3.3,3.3,0,0,1-.64-1.75c0-.53-.1-.73-.61-.69-.15,0-.44.44-.54.53a1.87,1.87,0,0,1-1.4.43c-.28,0-.82-.27-1.07-.16s-.33.78-.35.92c-.09.9-.67,1-1,1.8a3.82,3.82,0,0,0-.3,1.34c.11.87.24,1.32.4,2.19a3.49,3.49,0,0,0,1.47,2A1.8,1.8,0,0,0,126,87c1.46-.52,2-2.39,2.24-3.19.11-.43.14-.85.61-1.1C128.94,82.58,129,82.29,129.05,82.09ZM82.66,72.67c-1.06.09-2.23,0-3.18.77a.27.27,0,0,1-.18,0c-.4-.08-.47.19-.54.48a1.31,1.31,0,0,0,.16,1.17,1.49,1.49,0,0,1,.27,1,16,16,0,0,0,.09,1.69,1.88,1.88,0,0,0,1.58,1.74,8.67,8.67,0,0,0,3.09,0,1,1,0,0,0,.56-.29c.43-.46.83-.94,1.22-1.43a1.21,1.21,0,0,0,.26-.59,4.56,4.56,0,0,1,.62-1.86.65.65,0,0,0,.08-.71,3.3,3.3,0,0,0-2.94-2C83.4,72.66,83.06,72.67,82.66,72.67Zm38.5,25.87c-.06.41-.1.81-.17,1.21-.18,1-.4,2-.57,3a1.38,1.38,0,0,1-.9,1.08,30.37,30.37,0,0,1-5.16,1.73,4.72,4.72,0,0,1-1.77.28c-1-.11-2.17-1.19-3.12-1.31a3.21,3.21,0,0,0-1.69.5,10.78,10.78,0,0,0-1.92,1.14c-.17.15,0,.19,0,.27s-.48.3-.52.52.36.34.59.24c.05,0,.62-.34.94-.5a10.93,10.93,0,0,0,1.58-1c.18-.06.56-.09.53.06-.09.42-.49.82-.79.82s-1,.18-1,.62c0,.19.44.14.57.14a29.7,29.7,0,0,0,3,0,1,1,0,0,0,.37-.17,1.41,1.41,0,0,1,1-.21c1.22,0,2.44,0,3.66,0a19.83,19.83,0,0,0,5.14-.48,2.17,2.17,0,0,0,1.31-.91,20.35,20.35,0,0,1,2.17-2.93,7.17,7.17,0,0,0-.59-.63,4.24,4.24,0,0,1-1.51-2.63C122.11,98.81,121.74,98.6,121.16,98.54ZM54.85,126.23c-.52.13-1.08.12-1.24.74A16.16,16.16,0,0,1,52,130.34a6.64,6.64,0,0,0-.72,5.42c.12.33.15.68.24,1a5.46,5.46,0,0,0,.26.6c.36-.39.65-.71,1-1a7.07,7.07,0,0,0,2-3.12,3.11,3.11,0,0,1,1.14-1.68,1.43,1.43,0,0,0,.23-.26A4.44,4.44,0,0,1,54.75,129,15.62,15.62,0,0,1,54.85,126.23ZM85.67,90.71A4.54,4.54,0,0,1,88,91.84c.55.45.66.46,1.17,0a10.52,10.52,0,0,0,2.53-3.35,3.39,3.39,0,0,0,.14-.53c-.6-.24-1.14-.49-1.7-.68a5.66,5.66,0,0,1-2.88-2.31,3.46,3.46,0,0,0-.31-.47c-.13-.14-.3-.25-.53-.45ZM75.27,77.29c-.1.16-.18.25-.24.36-1.62,2.86-2.42,6-3.51,9.12a3.41,3.41,0,0,0-.08.37l-1.65,7.73c-.15.7-.47,2.62-.53,3.33,0,.52,1.17.39,1.28.36,0-.22.06-.83.1-1.07.34-2.24.64-4.48,1-6.7a27.83,27.83,0,0,1,.75-3.4c.34-1.14.85-2.23,1.24-3.36.7-2,1.36-4,2-6C75.82,77.61,75.62,77.46,75.27,77.29ZM88.05,74.7a1.74,1.74,0,0,0,.54-2.24A8.72,8.72,0,0,0,87,70.05a9.11,9.11,0,0,0-2.68-1.52H84.2c-.88,0-1.76-.12-2.63-.07-1.71.12-1.89.32-2.4,1.94a1.9,1.9,0,0,0,.21,1.53.42.42,0,0,0,.62.22c.7-.34,1.43-.63,2.11-1a5.38,5.38,0,0,1,2.6-.74,2.83,2.83,0,0,1,2.56,1.32,3.82,3.82,0,0,1,.65,2A6,6,0,0,0,88.05,74.7Zm3,58.53v1.54a.73.73,0,0,0,.46.74,3.13,3.13,0,0,0,1.72.36,4.38,4.38,0,0,1,2.69.71,14.19,14.19,0,0,0,2.19,1,15.42,15.42,0,0,0,2.68.43.27.27,0,0,0,.18,0c.23-.15.54-.26.64-.48s-.21-.4-.41-.54L96.47,134c-.54.65-1.23.56-2,.41a11,11,0,0,1-2.86-.92A5.25,5.25,0,0,0,91,133.23ZM124.6,87.78a12.1,12.1,0,0,1,.24,2.7,4.87,4.87,0,0,0,.1,1.83,12.76,12.76,0,0,1,.15,1.4c0,.62.09,1.25.18,1.87a2.26,2.26,0,0,0,.53,1.27,4.39,4.39,0,0,0,.13-.54,29.58,29.58,0,0,1,1.33-7.09,3.12,3.12,0,0,1,.78-1.48,1.1,1.1,0,0,0,.3-1.34,8.62,8.62,0,0,1-.18-.85A3.76,3.76,0,0,1,124.6,87.78Zm43,35.28c.1-.24-.15-.8-.24-1a3.5,3.5,0,0,0-1.64-1.39,13.23,13.23,0,0,1-2.27-1.82c-1-.94-2-1.87-3.07-2.75-.91-.77-1.17-.69-1.84.31-.05.08-.11.16-.15.24-.29.5-.26.64.26.84a32.38,32.38,0,0,1,6.12,3.26,3.13,3.13,0,0,1,.67.64c.33.41,0,.78.38,1.18.19.23.88.84,1.25.81A.84.84,0,0,0,167.64,123.06ZM128.69,75.9c.33-.52.5-1.09.14-1.4a3.63,3.63,0,0,1-.9-1.38.73.73,0,0,0-.75-.45,3.23,3.23,0,0,0-1.51.48c-.34.15-.66.48-1.28.13a1.12,1.12,0,0,0-1.22.18,4.26,4.26,0,0,0-.78.75c-.15.19-.52.77-.29,1,.05.7.73.17,1.07.06a8.17,8.17,0,0,1,1.82-.43A5.06,5.06,0,0,1,128.69,75.9Zm-14.44,65.19c-.24,0-2.11.14-2.78.15-.93,0-3-.15-3.51-.6a1.69,1.69,0,0,1-.37-.5c-.09-.31-.31-.33-.58-.32a9.3,9.3,0,0,0-3,.23c-.13,0-.59.3-.63.46-.21.81,1.2,1,1.87,1s1,0,1.69,0a25.21,25.21,0,0,1,3.54.53,11.82,11.82,0,0,1,2,.48C113.87,143.19,114.1,141.5,114.25,141.09ZM129,78.37a1.91,1.91,0,0,0-.39-1.32,3.71,3.71,0,0,1-.63-.55,1.71,1.71,0,0,0-.84-.57,4.45,4.45,0,0,0-2.69-.25c-.87.2-2.21.38-2.16,1.58,0,.12-.23.2-.34.31a5.37,5.37,0,0,0-.57.5.52.52,0,0,0,0,.7c.17-.16.3-.3.44-.41a3.47,3.47,0,0,1,2.94-.93.84.84,0,0,0,.77-.26,1.87,1.87,0,0,1,1.68-.22C128,77.1,128.58,79.89,129,78.37ZM84.26,88.84l.82-.16s.25-2.64.3-3.26.14-1.5.15-2.25-.42-.64-1.17-.7A13.13,13.13,0,0,1,84.26,88.84ZM83,80.78a12,12,0,0,1-3.12-.56c.2.7.42,1.23,1.13,1.3A2.25,2.25,0,0,0,83,80.78ZM86.73,73a2.13,2.13,0,0,0-3.26-1.25A4.52,4.52,0,0,1,86.73,73Zm35.59,6.41-.11-.08-.61.66c-.25.26-.07.4.21.59ZM69.93,99c-.11,0-.61-.22-.72-.08a.63.63,0,0,0,.73.79,1.15,1.15,0,0,0,.43-.21C70.5,99.42,70.84,98.77,69.93,99Z"/><path class="cls-1" d="M126.2,85.17c.1,0,.39,0,.46.13s-.07.37-.18.47a2,2,0,0,1-2.29.25c-.12-.1-.38-.3-.38-.41s.12-.16.18-.16A6,6,0,0,0,126.2,85.17Z"/><path class="cls-1" d="M126.08,84.47c0,.17-.42.33-.76.36s-.64,0-.8-.25,0-.24.19-.26a6.34,6.34,0,0,0,1.15,0C126,84.27,126.12,84.37,126.08,84.47Z"/><path class="cls-1" d="M127.24,82c.19.27-.22.53-.55.55a.38.38,0,0,1-.45-.28.42.42,0,0,1,.48-.47A.75.75,0,0,1,127.24,82Z"/><path class="cls-1" d="M123.85,82.74c-.33,0-.55-.15-.54-.45a.53.53,0,0,1,.54-.37c.29,0,.5.2.47.41S124.25,82.71,123.85,82.74Z"/><path class="cls-1" d="M82.62,78.21c-.16-.15-.46-.8-.29-.9s.88.51,1.48.54a5.64,5.64,0,0,1,.91,0,.26.26,0,0,1,.16.29c-.07.18-.53.4-.65.42A2,2,0,0,1,82.62,78.21Z"/><path class="cls-1" d="M84.26,77a2.91,2.91,0,0,1-.73-.27.47.47,0,0,1-.14-.39.39.39,0,0,1,.34-.2,2.56,2.56,0,0,1,.84.26c.14,0,.39.17.35.34S84.42,77,84.26,77Z"/><path class="cls-1" d="M86,75.54c-.29,0-.3-.22-.31-.37a.37.37,0,0,1,.38-.42c.22,0,.43.23.34.43S86.26,75.56,86,75.54Z"/><path class="cls-1" d="M83.24,74.13c0,.25-.32.4-.46.4a.42.42,0,0,1-.4-.3c0-.22.2-.39.42-.37S83.23,73.89,83.24,74.13Z"/><rect class="cls-2" width="205.95" height="205.95"/></g></g></svg>