<svg xmlns="http://www.w3.org/2000/svg" viewBox="0 0 205.95 205.95"><defs><style>.cls-1,.cls-2{stroke:#000;stroke-miterlimit:10;}.cls-1{stroke-width:0.16px;}.cls-2{stroke-width:0.14px;}.cls-3{fill:none;}</style></defs><title>Bembel BounceAsset 33</title><g id="Layer_2" data-name="Layer 2"><g id="WEB"><path class="cls-1" d="M22.31,120.34c2.7-.81,5.51-.83,8.21-1.23.08-2.61.17-5.09.23-7.58Q31,99.76,31.24,88a3.17,3.17,0,0,1,1.41-3c2.49.2,5.35.4,8.19.67a6.11,6.11,0,0,1,1.6.71c-.19,8.54-.56,17-.87,25.69l2,.24c.06-.55.14-1,.16-1.46.15-5.6.29-11.2.45-16.8,0-.56.13-1.11.22-1.86l9.9.15c.15-3,.28-6,.42-8.94.77-.19,1.62.05,2.1-.51.6-.71.23-2.84.23-2.84s2.26.07,3.32,0a31.66,31.66,0,0,1,3.19.08c.06,1.3.11,2.53.16,3.71a3.07,3.07,0,0,0,2.49.62c.25-1.52.5-3.06.73-4.53a4.16,4.16,0,0,1,4.46-.18L71.28,84c.76-1.28,0-3,1.69-4.08l5.88.4.46-1,1.15-.34c.7-2.7,0-5.6,1-8.25l1.81-.16c1-1.28,2-2.62,3.1-3.93a23,23,0,0,1,1.78-1.92,6.32,6.32,0,0,1,1.18-.7l1.78,6.74,2.61.3c0,2.73-.34,5.41-.5,8.18l1.27.61-.14,4.67,2.51.67-.21,6.8,7.53,1.63c0,.42.07.83.06,1.24-.11,3.21-.24,6.42-.35,9.62a3.11,3.11,0,0,0,.22,1.33c.74-3,.61-6,1.18-8.92l3.71.58c0-1.31.11-2.39.1-3.48,0-2.68,0-5.36-.16-8a4.28,4.28,0,0,1,1.83-3.55c.72-.66,1.51-1.24,2.17-1.94a16.45,16.45,0,0,0,1.36-1.94c-.07-.08.68-.72,1.12-.72,2.57,0,6.73-.16,7.84.22.47.17.16.76.51,1.28a6.13,6.13,0,0,0,1.56,1.67,3.21,3.21,0,0,1,1.51,2.94c0,2.16,0,4.31-.06,6.47,0,1.24,0,2.48.06,3.74a3.43,3.43,0,0,0,2.74.31c.06-1.92.1-3.78.18-5.63a45,45,0,0,1,.3-5.63l2.51-.16c0-.65,0-1.26.06-1.87.28-9.43.57-18.86.82-28.29a14.29,14.29,0,0,1,.75-3.35l3.57-.14c.18-3,.35-5.86.53-8.87l1.78-.22a57.09,57.09,0,0,1-.36,8.14c-.21,2.67-.39,5.35-.59,8.1,1.93.81.56,2.56,1.16,3.84l1.5.49c.75,1.21-.28,2.48.26,3.75l4.06.13c.46,1.68-.15,3.43.4,5.13l.25-1.32c1.14-.67,2-.66,7.28.06a1.54,1.54,0,0,1,.76,1.58c0,.48,0,1,0,1.44l-1.41,40.93c0,.71-.05,1.42-.07,2.19l1.19,0c.13-7.33.26-14.64.39-22.08a7.05,7.05,0,0,1,4.64.48l.17,2.51,1.24.1A3.5,3.5,0,0,0,161,95c.09-4.11.16-8.23.24-12.35.05-2.25.08-4.5.16-6.75a11.16,11.16,0,0,1,.3-1.64l1.83.28.54-1.44,1.54-.32c.07-2.38.13-4.71.23-7.05a13.25,13.25,0,0,1,.33-2.26c0-.22.32-.4.51-.62.77.37.68,1,.67,1.53,0,2.35-.12,4.7-.17,7,0,.47,0,.94,0,1.38,1.6.35,1.6.35,2.28,1.24l3.07.73c.16,1.46.3,2.82.44,4.12,1,.9,2.26.45,3.47.86.05.88.16,1.77.15,2.67-.09,7.52-.21,15-.31,22.56q0,4.1-.06,8.19c0,.33,0,.66.07,1.06l.92,0c.08-2.66.15-5.28.25-7.9s.22-5.36.33-8,.21-5.23.31-7.94c2.38,0,4.54,0,6.7.06a5.74,5.74,0,0,1,1.42.46L186.09,97l2.26,1c0,.55.09,1.07.08,1.58q-.27,9.34-.57,18.68a3.83,3.83,0,0,0,.32,2.37c.08.13,0,.36,0,.74-1-.12-2-.21-2.95-.35a150.41,150.41,0,0,0-17.47-1.73q-10.58-.41-21.14-.85c-3.61-.16-7.22-.32-10.83-.56a108.78,108.78,0,0,0-12.64.19c-3.87.2-7.74.32-11.61.39-7.09.12-14.19.13-21.29.3-3.42.07-6.83.4-10.25.6-3.91.23-7.82.41-11.74.65-6.2.37-12.4.18-18.6.08-2.29,0-4.57.07-6.85.08-3.12,0-6.25-.1-9.37,0-3,.11-5.92.41-8.88.66A2.54,2.54,0,0,1,22.31,120.34ZM85.25,70.15l-.36.25.17.13c.06-.13.11-.27.17-.4l.09-.2Zm62.3,1-1.33,0c-.48,1.92-2,44.66-1.64,45.88,6.92.27,13.86.56,20.8.81A183.19,183.19,0,0,1,186,119.76c.93-3.6.71-7.1.85-10.57s.23-7.06.34-10.53a3,3,0,0,0-.56-.25c-1.56-.37-1.8-.64-1.76-2.13,0-1,.09-1.92.12-2.87,0-.6,0-1.2,0-1.88l-5.54.1-.07,2.23c.91.16,4.94,0,4.89,1.07s-4,.19-5,0c-.32,6.93-.63,13.73-.95,20.68l-2.62-.35a3.54,3.54,0,0,1-.81-2.75q.17-15.09.32-30.17c0-.52,0-1,0-1.47-1.18-.54-2.52-.26-3.26-1l-.29-4.36L169,75l-.72-.88L164.92,74l-.43,1.79-1.6,0c-.37,6.82-.23,13.62-.7,20.29-1.17.88-2.33.57-3.64.68,0-1.06-.06-2-.1-3.15l-2.32-.21c0,.71,0,1.23-.06,1.74q-.28,9.33-.58,18.67c0,.65-.14,1.29-.21,1.87a3.56,3.56,0,0,1-3.22-.27c.47-15.29,1.26-30.62,1.73-46.07l-1.62,0c0,.58,0,1,0,1.53-.12,3.3-.23,6.6-.35,9.91,0,.48-1,.55-1,0,.13-3.11.29-6.22.41-9.33,0-.79-.05-1.58-.08-2.44l-3.33-.11c-.09.75-.17,1.44-.25,2.14ZM76.64,84.85c-.78.07-.08-2.4-.7-3.56-.69,1.19.35,3.54-.7,3.62-.62,0-.46-1.19-.51-1.78s0-1.18-.07-1.77H74.5l-.06,2c0,.62-.09,1.78-.71,1.7-.87-.12.14-2.66-.61-4a4.14,4.14,0,0,0-.24,1.46q-.34,16.17-.67,32.33a9.08,9.08,0,0,1-.09,1.57,3.91,3.91,0,0,1-.55,1c-.87-.51-.67-1.18-.66-1.76q.33-14.15.69-28.3c0-.53,0-1.06,0-1.58a1.2,1.2,0,0,0-.13-.39l-1.24.17a18.46,18.46,0,0,1-.38-5.35l-1.47.06c-1.06,1.87-.24,3.69-1.34,5.43-1.78.44-3-.4-4.62-.57,0-.73,0-1.34-.06-2s-.05-1.31-.07-2c-1.18,0-4.16-.39-4.16-.39s1.62,3.44-2.51,3.44c0,.51,0,1,0,1.54-.07,3.3-.12,6.61-.2,9.91q-.27,10-.58,20c0,.58.18,1.27-.69,1.75a2.46,2.46,0,0,1-.49-.73,4.82,4.82,0,0,1,0-1.14q.27-9,.55-18.1c0-.56,0-1.11,0-1.77L45.41,95c0,.84,0,1.55-.07,2.25q-.23,6.9-.46,13.79c0,1-.26,1.91-1.48,2.2L41.87,113l-1.06.83c-.71-.56-.51-1.22-.49-1.8q.34-9.69.7-19.39c0-.56,0-1.11,0-1.75l-8.55-.74c-.17,9.62-.33,19.11-.5,28.75,1.41-.06,2.59-.16,3.78-.15,2,0,4.06.12,6.1.13q9.6,0,19.21,0h.74q10.18-.51,20.36-1c1.72-.09,3.42-.27,5.24-.41,0-.76,0-1.32.06-1.89l.9-30c0-.81.08-1.62.07-2.44a4.66,4.66,0,0,0-.4-1.13c-.81,1.39.35,4-.94,4-1-.05-.16-2.44-.8-3.78l-.31,3.56-1.59-.17.09-2.87a19.27,19.27,0,0,1-.32,3.12,9.18,9.18,0,0,0-.44,3.09c-.05,1.63-.05,3.25-.08,4.88-.06,2.83-.12,5.65-.2,8.48,0,.43.18,1-.54,1.19-.7-.45-.43-1.13-.42-1.71.1-6.08.23-12.16.34-18.24,0-.52,0-1,0-1.61l-1.39,0c0,.38-.09.66-.09.94q0,6.18.1,12.36c0,1.72,0,3.45,0,5.17,0,.4.13.9-.54,1.08-.55-.31-.45-.86-.46-1.37,0-1.87,0-3.74,0-5.61,0-3.88,0-7.76-.06-11.64,0-.38.18-.88-.56-1.11a3.1,3.1,0,0,0-.27.87q0,7.55,0,15.09c0,1.58.09,3.16.15,4.74,0,.63-.1,1.15-.95,1.07-.1-.15-.26-.26-.26-.38,0-6.94,0-13.88,0-20.46-.23,2.07-.13,2.4-.67,2.36s-.07-2.09-.48-3.21C76.84,82.71,77.36,84.8,76.64,84.85Zm34.22-.37c-.51,5.16-.19,10.19-.17,15.21,0,3.1.24,6.21.22,9.32,0,2.33-.29,4.67-.41,7a6,6,0,0,0,.17,1.16l21.27-.57c.36-1.75,1.12-31.16.85-32.24l-1.67-.06c0,.63,0,1.15-.05,1.67,0,2.29-.1,4.59-.12,6.89a3.11,3.11,0,0,1-1.57,2.88l-3.82-.57c0-4.2,0-8.3,0-12.36A30.15,30.15,0,0,1,122.28,79c-.16-.44-6.1-.71-6.85,0-.34.31-.27.65-.58,1.27C114,82,112.36,83.22,110.86,84.48Zm-22.17,33c6.7-.19,13.31.07,20-.27.09-6.34.19-12.49.28-18.77l-2.72-.25c-.66,3-.25,5.9-1,8.77l-2.49-.08c0-.69-.08-1.25-.07-1.81.1-3,.22-6,.32-9,0-.51,0-1,0-1.52-2.47-.75-5-.75-7.43-1.78l.2-6.56a15.94,15.94,0,0,0-6-.08Zm46-48.16c-.38,1.85-1.5,46.1-1.2,47.31l9.53.3c.05-.56.12-1,.14-1.49q.92-24,1.82-48.1c0-.5,0-1-.06-1.52a13.14,13.14,0,0,0-4.68.32c0,1.46-.09,2.79-.13,4.12q-.56,22.2-1.13,44.39a5.44,5.44,0,0,1-.09,1.28,3.11,3.11,0,0,1-.54.83c-.89-.46-.67-1.09-.67-1.63q.06-3.81.15-7.62l1-36.48c0-.56,0-1.11,0-1.59ZM92.89,80.89c-1-.9-1-.9-.92-2.22.12-1.57.24-3.15.33-4.73,0-.51,0-1,0-1.71-3.28-.22-6.42-.31-9.62-.37a6.31,6.31,0,0,0-.21.91c-.16,1.91-.28,3.82-.48,5.73a13.94,13.94,0,0,1-.47,2l4.26.45c1.49.16,3,0,4.57.74a2.61,2.61,0,0,0-.51,2.6l3,.09Zm45.36-30.45a5.46,5.46,0,0,0-3,.15,56.52,56.52,0,0,0-.17,9.77,6,6,0,0,0,3.8.18c0-.87.06-2.2.09-3-1.82-.38-3.16-1.24-.85-1.56ZM138.51,68c-.11-2,.31-4-.12-6.09l-3.56-.33-.2,6.43A4.16,4.16,0,0,0,138.51,68ZM45.58,93.49c.8.61,6.38,1.17,8.64.84l0-.73C51.72,93.13,46.3,93.07,45.58,93.49ZM89.74,70.63c-.34-1.29-.64-2.48-.95-3.67h-.32l-2.13,3.71c.94,0,1.56.06,2.19.06C88.86,70.73,89.19,70.68,89.74,70.63Zm51-5.9.1-3.19-1.41.48.19,2.87ZM33,86.18h-.38a3.32,3.32,0,0,0,.3,2.64ZM34.14,89h.32a3.06,3.06,0,0,0-.24-2.55Zm1.48.22c.62-1.4.6-1.78.08-2.72Zm2.74,0h.26l0-2.09h-.16Zm3-2.26h-.39l-.08,2.52h.27Zm-1.62,2.22h.06l.06-2h-.06ZM37.31,87l-.14,0-.06,2h.14Z"/><path class="cls-1" d="M40.67,133.07c.14-.88.85-1.08,1.43-1.38a14.2,14.2,0,0,1,5.46-1.26A29.08,29.08,0,0,1,59.27,132a13.71,13.71,0,0,0,5.42.69,11.28,11.28,0,0,0,2.4-.7c3.16-.95,6.29-2.06,9.51-2.81a24.67,24.67,0,0,1,12.2.74c1.23.34,2.5.59,3.73.95a13.14,13.14,0,0,0,7.33,0c3.1-.86,6.2-1.69,9.28-2.57a50.47,50.47,0,0,1,12.38-2.29,2.47,2.47,0,0,1,2.13.63c-.06.53-.47.55-.87.54a43.85,43.85,0,0,0-10.27,1.5,26.07,26.07,0,0,0-3.27,1,71.47,71.47,0,0,1-11.34,2.91,11.15,11.15,0,0,1-3.69,0,41.14,41.14,0,0,1-4.77-1.09c-3.56-1-7.14-1.85-10.85-1.27a68.55,68.55,0,0,0-6.78,1.55,29.58,29.58,0,0,0-4.33,1.51,10.67,10.67,0,0,1-7,.4c-2.41-.56-4.76-1.43-7.2-1.77-4-.57-8.12-.7-11.89,1.32a1,1,0,0,1-.28.07A3,3,0,0,1,40.67,133.07Z"/><path class="cls-1" d="M94.58,121.9c.46.72-.06,1.15-.56,1.35a17.24,17.24,0,0,1-4.35,1.35,28.74,28.74,0,0,1-6.07-.24c-2.6-.31-5.16-.91-7.76-1.29a20.67,20.67,0,0,0-9.11.86,30.59,30.59,0,0,0-4.27,1.64c-2.13,1-4.27.6-6.42.24a31.89,31.89,0,0,1-3.18-.75,23.83,23.83,0,0,0-9.44-.44A9.34,9.34,0,0,0,39.54,126a3,3,0,0,1-.7.25,1,1,0,0,1,.66-1.31,17.79,17.79,0,0,1,3.16-1.19,22.8,22.8,0,0,1,10.61.21c1.81.48,3.68.74,5.54,1a6.07,6.07,0,0,0,3.58-.73,25.73,25.73,0,0,1,12.23-2.5c.93,0,1.86.28,2.78.42,2.94.45,5.88,1,8.83,1.31A12.94,12.94,0,0,0,94.11,122,1.26,1.26,0,0,1,94.58,121.9Z"/><path class="cls-1" d="M49.82,101.2l3.18.1a3,3,0,0,0,.13.87c-1.5-.09-2.05,0-3.54-.07C49.5,102,49.82,101.2,49.82,101.2Z"/><path class="cls-1" d="M49.25,101.2c-.08.29-.17.84-.17.84l-.62,0c0-.17,0-.84,0-.84A3.53,3.53,0,0,0,49.25,101.2Z"/><path class="cls-1" d="M47.22,99.29a4.53,4.53,0,0,1,.75,0,3.3,3.3,0,0,0,0,.57,5.54,5.54,0,0,1-.72,0S47.23,99.41,47.22,99.29Z"/><path class="cls-1" d="M48.49,99.33a4.45,4.45,0,0,1,.75,0,2.65,2.65,0,0,0,0,.57,5.52,5.52,0,0,1-.72,0S48.5,99.45,48.49,99.33Z"/><path class="cls-1" d="M49.77,99.37a4.4,4.4,0,0,1,.74,0,2.65,2.65,0,0,0,0,.57,5.54,5.54,0,0,1-.72,0S49.77,99.49,49.77,99.37Z"/><path class="cls-1" d="M51,99.41a4.53,4.53,0,0,1,.75,0,3.3,3.3,0,0,0,0,.57,5.54,5.54,0,0,1-.72,0S51.05,99.53,51,99.41Z"/><path class="cls-1" d="M52.32,99.45a4.4,4.4,0,0,1,.74,0,2.65,2.65,0,0,0,0,.57,5.52,5.52,0,0,1-.72,0S52.32,99.57,52.32,99.45Z"/><path class="cls-1" d="M181.81,102.19c-.31-.42-1.54.58-1.15-1.26a16.89,16.89,0,0,0,1.82.25c.68,0,1.37-.09,2.05-.1s1.27,0,2,0l.38,1.41c-1.61,0-2.15-.13-3.32-.23-.07.58-.6,2.62.15,3.4-1,0-1.89-.12-2.63-.14-.08-.55,0-2.53-.12-3.19l.88-.2.1,0Z"/><path class="cls-1" d="M148.79,79.55c.19-3.49.41-7,.65-10.46,0-.24.84-.23.82,0-.19,3.48-.4,7-.62,10.45C149.63,79.75,148.77,79.74,148.79,79.55Z"/><path class="cls-1" d="M148.76,100.89a18.3,18.3,0,0,1-1.84-.68,1,1,0,0,1-.53-.72c0-.42.32-.51.71-.41l0,0,.92.34,0,0c.8.24,1.61.46,2.4.73.55.19,1.06.46,1.66.73l-.67,1.58c-1.75-.42-3.59-.4-5.47-1.4,1.18-.73,2.06,0,2.91-.14l.58.2,0-.16Z"/><path class="cls-1" d="M147.88,70.56c-.06,2.86-.18,5.72-.32,8.57,0,.19-.88,0-.87-.26.14-4.53.28-7.33.33-8.43C147,70.18,147.89,70.27,147.88,70.56Z"/><path class="cls-1" d="M167.54,92.25c.32-.38.46-.69.59-.69,1.84,0,3.67.06,5.5.14.15,0,.29.31.51.58-.34.13-.55.3-.75.29C171.52,92.48,169.65,92.37,167.54,92.25Z"/><path class="cls-1" d="M173,96l.17.83c-2,.16-4,.4-5.78-.49a1.12,1.12,0,0,1,0-.36,3,3,0,0,1,.33-.38C169.41,96.42,171.21,96.1,173,96Z"/><path class="cls-1" d="M173.32,93.68l.17.82c-2,.17-4,.41-5.77-.48,0-.18-.05-.29,0-.36a2.44,2.44,0,0,1,.33-.38C169.71,94.1,171.51,93.78,173.32,93.68Z"/><path class="cls-1" d="M147.1,99.08l-1.29-.72c.44-.19.66-.39.83-.35a40.39,40.39,0,0,1,4.76,1.29c-1.15.84-2.31-.07-3.45.07l0,0-.92-.34Z"/><path class="cls-1" d="M166.57,79.45l-1.95-.2c0-.5,0-1.39-.05-2a10,10,0,0,0,1.89,0C166.5,78,166.53,78.65,166.57,79.45Z"/><path class="cls-1" d="M186.68,105.66h-2.53s-.31-2.38,0-2.48a10.9,10.9,0,0,1,2.33.13C186.85,103.41,186.68,105.66,186.68,105.66Z"/><path class="cls-1" d="M166.18,75a9.25,9.25,0,0,1,.21,1.37c-.37,0-.69.09-.69-.08s-.11-.77-.13-1.39C165.69,74.85,166.07,75,166.18,75Z"/><path class="cls-1" d="M167,78.6a5,5,0,0,1-.06-1.43c.36,0,.69-.08.69.09s.1.77.1,1.4Z"/><path class="cls-1" d="M167.47,75a5.23,5.23,0,0,1,.07,1.45c-.37,0-.69.09-.69-.09s-.11-.77-.12-1.39C166.84,74.93,167.36,75,167.47,75Z"/><path class="cls-1" d="M115.44,92.53a5.6,5.6,0,0,1,0,.74c-.09,3.57-.18,6.28-.29,9.82-.54.36-1.17.1-1.16-.14.14-3.1.27-6.2.44-9.3a5.54,5.54,0,0,1,0-1.15Z"/><path class="cls-1" d="M117.36,102.17a49.83,49.83,0,0,1,0-8.55c.05-.48,1-.29,1,.09,0,1.34-.08,2.68-.09,4,0,1.19.24,4.4.24,4.4A9.72,9.72,0,0,1,117.36,102.17Z"/><path class="cls-1" d="M116.09,92.63l.47.17s.24,6.4.32,9.6c0,.18-.85.09-.88-.15A78.43,78.43,0,0,1,116.09,92.63Z"/><path class="cls-1" d="M117.25,89.6c-.07-2.58.24-5,0-7.61a11.87,11.87,0,0,1,1.6.05s-.71,6.87-.8,7.61Z"/><path class="cls-1" d="M114.94,89.51A51.68,51.68,0,0,1,115,84.1c0-.12.66.19.66.19a48.3,48.3,0,0,1,.17,5.23C115.82,89.8,114.94,89.51,114.94,89.51Z"/><path class="cls-1" d="M116.2,89.55c0-1.93-.31-4.26-.32-6.2,0-.19.55,0,.83-.06.51,1.16.2,6.34.2,6.34A3.57,3.57,0,0,1,116.2,89.55Z"/><path class="cls-1" d="M114.6,85.16c0,1.68.06,3,.08,4.41-.91,0-1-.55-1-1a26.9,26.9,0,0,1,.19-2.84C113.87,85.57,114.13,85.48,114.6,85.16Z"/><path class="cls-1" d="M90.79,87l4.12.65-.58,1.62-3.72-.53Z"/><path class="cls-2" d="M90.5,89.64c1.46.2,3.77.42,3.77.42l-.16,1.46s-2.5-.24-3.78-.4Z"/><path class="cls-1" d="M167.57,84.39a4.53,4.53,0,0,1,.75,0,3.3,3.3,0,0,0,0,.57,6.07,6.07,0,0,1-.72,0S167.58,84.52,167.57,84.39Z"/><path class="cls-1" d="M168.84,84.43a4.45,4.45,0,0,1,.75,0,2.65,2.65,0,0,0,0,.57,6.08,6.08,0,0,1-.72,0S168.85,84.56,168.84,84.43Z"/><path class="cls-1" d="M170.12,84.47a4.4,4.4,0,0,1,.74,0,2.65,2.65,0,0,0,0,.57,6.07,6.07,0,0,1-.72,0S170.12,84.6,170.12,84.47Z"/><path class="cls-1" d="M171.39,84.51a4.53,4.53,0,0,1,.75,0,3.3,3.3,0,0,0,0,.57,6.07,6.07,0,0,1-.72,0S171.4,84.63,171.39,84.51Z"/><path class="cls-1" d="M172.67,84.55a4.4,4.4,0,0,1,.74,0,2.65,2.65,0,0,0,0,.57,6.08,6.08,0,0,1-.72,0S172.67,84.67,172.67,84.55Z"/><path class="cls-1" d="M167.52,85.93a4.53,4.53,0,0,1,.75,0,3.3,3.3,0,0,0,0,.57,6.07,6.07,0,0,1-.72,0S167.53,86.05,167.52,85.93Z"/><path class="cls-1" d="M168.8,86a4.4,4.4,0,0,1,.74,0,2.65,2.65,0,0,0,0,.57,6.08,6.08,0,0,1-.72,0S168.8,86.09,168.8,86Z"/><path class="cls-1" d="M170.07,86a4.53,4.53,0,0,1,.75,0,3.3,3.3,0,0,0,0,.57,6.07,6.07,0,0,1-.72,0S170.07,86.13,170.07,86Z"/><path class="cls-1" d="M171.34,86.05a4.45,4.45,0,0,1,.75,0,2.65,2.65,0,0,0,0,.57,6.08,6.08,0,0,1-.72,0S171.35,86.17,171.34,86.05Z"/><path class="cls-1" d="M172.62,86.09a4.4,4.4,0,0,1,.74,0,2.65,2.65,0,0,0,0,.57,6.07,6.07,0,0,1-.72,0S172.62,86.21,172.62,86.09Z"/><path class="cls-1" d="M167.47,87.47a4.45,4.45,0,0,1,.75,0,2.65,2.65,0,0,0,0,.57,6.08,6.08,0,0,1-.72,0S167.48,87.59,167.47,87.47Z"/><path class="cls-1" d="M168.75,87.51a4.4,4.4,0,0,1,.74,0,2.65,2.65,0,0,0,0,.57,6.07,6.07,0,0,1-.72,0S168.75,87.63,168.75,87.51Z"/><path class="cls-1" d="M170,87.55a4.53,4.53,0,0,1,.75,0,3.3,3.3,0,0,0,0,.57,6.07,6.07,0,0,1-.72,0S170,87.67,170,87.55Z"/><path class="cls-1" d="M171.3,87.59a4.4,4.4,0,0,1,.74,0,2.65,2.65,0,0,0,0,.57,5.52,5.52,0,0,1-.72,0S171.3,87.71,171.3,87.59Z"/><path class="cls-1" d="M172.57,87.63a4.53,4.53,0,0,1,.75.05,2.52,2.52,0,0,0,0,.57,5.54,5.54,0,0,1-.72,0S172.57,87.75,172.57,87.63Z"/><path class="cls-1" d="M167.43,89a4.4,4.4,0,0,1,.74,0,2.65,2.65,0,0,0,0,.57,5.52,5.52,0,0,1-.72,0S167.43,89.13,167.43,89Z"/><path class="cls-1" d="M168.7,89.05a4.53,4.53,0,0,1,.75,0,3.3,3.3,0,0,0,0,.57,5.54,5.54,0,0,1-.72,0S168.71,89.17,168.7,89.05Z"/><path class="cls-1" d="M170,89.09a4.45,4.45,0,0,1,.75,0,2.65,2.65,0,0,0,0,.57,5.52,5.52,0,0,1-.72,0S170,89.21,170,89.09Z"/><path class="cls-1" d="M171.25,89.13a4.4,4.4,0,0,1,.74.05,2.64,2.64,0,0,0,0,.57,5.54,5.54,0,0,1-.72,0S171.25,89.25,171.25,89.13Z"/><path class="cls-1" d="M172.52,89.17a4.53,4.53,0,0,1,.75,0,3.27,3.27,0,0,0,0,.57,5.54,5.54,0,0,1-.72,0S172.53,89.29,172.52,89.17Z"/><rect class="cls-3" width="205.95" height="205.95"/></g></g></svg>