<svg xmlns="http://www.w3.org/2000/svg" viewBox="0 0 205.95 205.95"><defs><style>.cls-1{fill:none;}</style></defs><title>Bembel BounceAsset 28</title><g id="Layer_2" data-name="Layer 2"><g id="WEB"><path d="M102.72,139.1c-1.29-.3-2.62-.53-3.87-.94a9.71,9.71,0,0,1-2.28-1.24c-.37-.24-.62-.4-1.08-.21a18.3,18.3,0,0,1-11.85.46,25.08,25.08,0,0,1-3.76-1.24,12.36,12.36,0,0,1-7-7.25.87.87,0,0,0-.76-.64,27.85,27.85,0,0,1-3.27-.8,14.23,14.23,0,0,1-7.05-5.17,11.16,11.16,0,0,1-2-6.61,1.21,1.21,0,0,0-.82-1.31c-3-1.41-4.69-3.63-4.46-6.89a19.33,19.33,0,0,1,1-5.14.8.8,0,0,0,0-.61c-1.4-2.57-.65-4.92,1-7.1a7.32,7.32,0,0,1,4.68-3,1,1,0,0,0,.55-.46c.7-1,1.34-2.14,2.06-3.18a40.33,40.33,0,0,1,14.1-12.17,96.09,96.09,0,0,1,9.76-4.68,2.35,2.35,0,0,0,.87-.62,1.51,1.51,0,0,1,1.87-.55,1.21,1.21,0,0,0,.68,0c1.7-.36,3.39-.76,5.09-1.11a.68.68,0,0,0,.63-.59,1.72,1.72,0,0,1,2.13-1.45c1,0,1.18.65,1.52,1.29.09.17.58.23.89.23,1.51,0,3-.06,4.51-.09.52,0,1,0,1.54.06a2.68,2.68,0,0,0,2.16-.7c.65-.51,2.53,0,3.11.74a1.57,1.57,0,0,0,1.09.59,45.44,45.44,0,0,1,7.71,2c.32.11.49-.31.82-.4,1.54-.44,4,1.15,4.52,2.43a2.16,2.16,0,0,0,.9,1c1.44,1,2.84,2,4.28,3a4.06,4.06,0,0,0,1.19.5,2.28,2.28,0,0,1,1.3.87,4.75,4.75,0,0,0,.93,1,31.81,31.81,0,0,1,6.33,5.56,16.78,16.78,0,0,1,2.08,3c1.08,2.2,2,4.46,3,6.71a11.67,11.67,0,0,1,.65,2.31,3,3,0,0,0,.54,1.35,3.76,3.76,0,0,1,1.76,3.27c-.28,1,.39,1.38.75,2.19,1,2.23,1.53,4.49.47,6.85a8.46,8.46,0,0,1-2.22,2.83c-1,.85-1.9,1.74-2.89,2.58a2.12,2.12,0,0,0-.76,1.39,15.12,15.12,0,0,1-1.65,4.8,9.54,9.54,0,0,1-2.19,2.75,23.42,23.42,0,0,1-6.44,4,31.61,31.61,0,0,1-7.29,2.25.65.65,0,0,0-.58.43,11.86,11.86,0,0,1-.56,1.13,10.29,10.29,0,0,1-5,4.43c-5,2.35-10.33,2.79-15.8,2.42-.92-.06-1.83-.2-2.75-.3ZM83.45,74.26a7.85,7.85,0,0,0-1,.39c-2.1,1.13-4.24,2.22-6.27,3.44A36.41,36.41,0,0,0,63.51,90.51a15.67,15.67,0,0,0-2.22,5.11,20.52,20.52,0,0,0,.57,10.93c.72,2.06,1.53,4.09,2.32,6.12a9.27,9.27,0,0,1,.38,1.12,13.56,13.56,0,0,0,1.36,2.76,1.93,1.93,0,0,0,2.09,1c1.23-.12,2.46-.25,3.68-.27a24.94,24.94,0,0,0,7-1.22c3.37-1.06,6.78-2,10.17-3a2.53,2.53,0,0,0,1-.61,11.35,11.35,0,0,0,2.5-3.58,30.23,30.23,0,0,0,2.07-6.68,31,31,0,0,0,.62-8.26,6.8,6.8,0,0,0-2.88-5.19c-.66-.49-1.41-.9-2.09-1.37A24.79,24.79,0,0,1,88,85.8a2.77,2.77,0,0,1-.86-2.9,5.94,5.94,0,0,1,2.64-3.73,22.68,22.68,0,0,1,11-3.63,7.52,7.52,0,0,1,1.64.08c.57.08.84.37.77.72s-.43.49-1,.46a10.12,10.12,0,0,0-2.13,0,36.85,36.85,0,0,0-4.2.89,17.35,17.35,0,0,0-5.36,2.57,5.78,5.78,0,0,0-1.5,1.54c-1.08,1.73-.83,2.74.88,3.94.6.42,1.27.76,1.89,1.14a8.77,8.77,0,0,1,4.55,6.4c.09.72.08,1.46.12,2.19,0,.32,0,.65.07,1a9.76,9.76,0,0,1,7,.43,1,1,0,0,0,.94-.05c2.36-1.11,4.71-2.2,7.08-3.27a35,35,0,0,0,6.86-3.81c1.85-1.39,2.29-2.62,1.52-4.72a18.56,18.56,0,0,0-1.83-3.61,9.67,9.67,0,0,0-6.45-4.37c-1.3-.26-2.62-.43-3.94-.63-.33-.06-.6-.15-.65-.5a.62.62,0,0,1,.55-.7,2.53,2.53,0,0,1,.91,0c1.21.19,2.44.36,3.63.65A10.88,10.88,0,0,1,117,78.24a15.17,15.17,0,0,1,4.23,6.46,4.72,4.72,0,0,1-2,6,42.13,42.13,0,0,1-4.74,2.84c-2.8,1.4-5.68,2.67-8.55,3.95a5.73,5.73,0,0,0-2.31,1.83,17.61,17.61,0,0,0-3,6.43,68.72,68.72,0,0,0-1.55,19.65,49.53,49.53,0,0,0,.69,5.1,1.33,1.33,0,0,0,1.28,1.17,8.37,8.37,0,0,0,1.12.15,26.12,26.12,0,0,0,5.72-.36,40.71,40.71,0,0,0,8.87-3,148.48,148.48,0,0,0,14.7-7.82,56.6,56.6,0,0,0,9-6.63,16.92,16.92,0,0,0,4.25-5.57,20.5,20.5,0,0,0,1.63-9.91,7.42,7.42,0,0,0-.3-2.16c-.91-2.37-1.92-4.7-2.87-7a17.46,17.46,0,0,0-4.72-6.29c-.81-.74-1.7-1.39-2.55-2.08-.26-.21-.5-.35-.65.12a2.29,2.29,0,0,1-2.17,1.49,7,7,0,0,1-3.41-.5,2.12,2.12,0,0,1-1.51-2,2.16,2.16,0,0,1,1.59-1.82c.25-.1.18-.36.41-.48.39-.2.77-.24.43-.5-1.14-.82-2.29-1.61-3.43-2.44-.33-.24-.56-.25-.84.08a2.23,2.23,0,0,1-2,.63,12.41,12.41,0,0,1-4.11-1.15c-1.66-.82-1.84-1.69-.53-3.1-1.74-.43-3.42-.85-5.11-1.24a.63.63,0,0,0-.48.2,5.4,5.4,0,0,1-3,2.08A3.35,3.35,0,0,1,108,72a2.05,2.05,0,0,1-1.09-2.29c0-.1-.19-.36-.29-.36-1.23,0-2.47,0-3.7,0-.34,0-.39.16-.41.49a1.58,1.58,0,0,1-.43,1.1,6,6,0,0,1-3.37,1.5,3.29,3.29,0,0,1-3.48-1.93c-.1-.26-.22-.38-.51-.31l-3,.7c.3.42.55.75.78,1.1a1.52,1.52,0,0,1-.3,2.09,3.74,3.74,0,0,1-5.49-.92c-.13-.25-.21-.4-.5-.25l-2.86,1.45ZM148,100c-.24,1.76-.39,3.44-.7,5.09a16.39,16.39,0,0,1-4.19,8.27,44.44,44.44,0,0,1-6.11,5.24,73.28,73.28,0,0,1-9.65,6c-3.36,1.78-6.74,3.54-10.18,5.18a38.32,38.32,0,0,1-8.77,2.93,25.31,25.31,0,0,1-6.84.36c-1.87-.12-2.71-.82-3.08-2.52-.21-.93-.36-1.88-.48-2.83a55.86,55.86,0,0,1-.26-8.48A63.61,63.61,0,0,1,99,107.13a20.31,20.31,0,0,1,3.6-8.45c.42-.54.38-.67-.25-.93a8,8,0,0,0-5.42-.14.79.79,0,0,0-.61.88,7,7,0,0,1-.06,1.52,37.3,37.3,0,0,1-2.07,8.16,14.25,14.25,0,0,1-3.28,5.13,3.64,3.64,0,0,1-1.42.89c-3.41,1-6.86,2-10.26,3.06a26.75,26.75,0,0,1-7.33,1.3c-1.5,0-3,.17-4.5.24A2.3,2.3,0,0,1,65,117.5a21.55,21.55,0,0,1-1.19-2.21c-1.19-3-2.47-6-3.44-9a20.15,20.15,0,0,1,.19-13,6.46,6.46,0,0,0,.16-.66A6.63,6.63,0,0,0,58.55,94a7,7,0,0,0-2.25,3.77,3.9,3.9,0,0,0,.63,3.38.93.93,0,0,1,0,1,15.38,15.38,0,0,0-1.08,5.13A5.12,5.12,0,0,0,56.88,111a6.88,6.88,0,0,0,3,2.22c1.25.49,1.25.54,1.22,1.77a10.18,10.18,0,0,0,3,7.88,13.27,13.27,0,0,0,5.74,3.39,27.08,27.08,0,0,0,3,.64,1.3,1.3,0,0,1,1.17,1,9.86,9.86,0,0,0,3.16,4.83,13.79,13.79,0,0,0,5.78,3c4.11,1.11,8.2,1.5,12.24-.24a2.46,2.46,0,0,1,.29-.09,1.44,1.44,0,0,1,1.66.36,5.1,5.1,0,0,0,2.53,1.39,36,36,0,0,0,9.76,1.06,26.74,26.74,0,0,0,11.39-2.48,8.31,8.31,0,0,0,4-3.41c.37-.68.68-1.38,1-2.09a.93.93,0,0,1,1.06-.68,6,6,0,0,0,1.7-.11q2.44-.72,4.84-1.58A22,22,0,0,0,140,124a9.22,9.22,0,0,0,2.23-2.71,14.63,14.63,0,0,0,1.53-4.74,2.27,2.27,0,0,1,.84-1.47c1.13-1,2.21-2,3.33-3a5.56,5.56,0,0,0,2.19-4.74,8.58,8.58,0,0,0-1.39-4.26,2,2,0,0,1-.38-1.72A1.42,1.42,0,0,0,148,100ZM131.68,81.38a11.16,11.16,0,0,0,1.55-.09,1.34,1.34,0,0,0,.75-.55c.29-.47,0-.81-.56-.72a3.35,3.35,0,0,1-2.42-.46,1,1,0,0,0-1.36.31c-.24.39,0,.84.51,1.06A14.91,14.91,0,0,0,131.68,81.38Zm-22.1-10a5,5,0,0,0,1-.19,14.9,14.9,0,0,0,1.67-.9c.11-.06.15-.23.22-.35-.16,0-.37-.07-.46,0a1.83,1.83,0,0,1-2.62-.29.78.78,0,0,0-1.08-.11.75.75,0,0,0,.05,1.11A12.39,12.39,0,0,0,109.58,71.42Zm-12-1.24-.16-.06c-.27-.09-.58-.34-.76.07s.2.57.5.68a4.27,4.27,0,0,0,1.17.29,3.61,3.61,0,0,0,2.17-.71A3.94,3.94,0,0,0,101,70a2.07,2.07,0,0,0-.68-.34,1.6,1.6,0,0,0-.74.19A3.08,3.08,0,0,1,97.55,70.18Zm-8.19,3.48a3,3,0,0,0,1.9-.47c.42-.32.17-.62-.07-.91s-.41-.09-.63.09a1.56,1.56,0,0,1-2.12.19,2.71,2.71,0,0,0-.43-.14c0,.18,0,.46.07.53A14.43,14.43,0,0,0,89.36,73.66Zm34.08.61,0,0c.51,0,1,.1,1.53.09.13,0,.26-.23.39-.36a2.24,2.24,0,0,0-.47-.31c-.11,0-.26,0-.39.07a3,3,0,0,1-3.07-.8,1.16,1.16,0,0,0-1.12-.29c-.07,0-.19.3-.14.34a1.57,1.57,0,0,0,.56.39C121.65,73.67,122.54,74,123.44,74.27Z"/><path d="M64.71,113.56a44.08,44.08,0,0,1-.18-5.79,54.47,54.47,0,0,1,1-8.62,10.85,10.85,0,0,1,1.37-3.88c.41-.66.77-1.35,1.14-2a13.63,13.63,0,0,1,4.49-4.64,12.69,12.69,0,0,1,3.75-1.52l1.08-.28c.25-.08.49-.18.74-.27-.14-.21-.27-.42-.42-.62a1.73,1.73,0,0,1,.46-2.62,5.78,5.78,0,0,1,4.67-.89.6.6,0,0,1,.19.06c.89.68,1.8,1.32,2.63,2.06.38.33.27.81,0,1.22a2.61,2.61,0,0,1-1.85,1.18c-2.25.35-4.48.82-6.71,1.28a11.49,11.49,0,0,0-7.93,5.85c-.45.78-.9,1.57-1.3,2.38a8.28,8.28,0,0,0-.69,1.79,62,62,0,0,0-1.38,13.37c0,.47.09,1,.11,1.43A.67.67,0,0,1,64.71,113.56ZM80.63,86.3a9.45,9.45,0,0,0,3.64-1c.08-.06.14-.27.1-.3a1.12,1.12,0,0,0-.5-.27c-.13,0-.28.14-.42.23A2,2,0,0,1,80.24,84c-.09-.22-.19-.33-.42-.21a4.64,4.64,0,0,0-.87.49c-.38.29-.44.69,0,1A16.78,16.78,0,0,0,80.63,86.3ZM65.84,113c0,1-1.13.54-1.13.54-.31-.33-.21-3.85-.18-5.79"/><path d="M86.4,106.39c1.11-.18,2.21-.37,3.32-.53a6.58,6.58,0,0,1,1.32-.1c.72,0,1.12.44,1,1.07a10.1,10.1,0,0,1-2.8,5.23,2.76,2.76,0,0,1-.88.48,44.28,44.28,0,0,1-9.75,2.55c-1.76.22-3.49.6-5.23,1a15.66,15.66,0,0,1-4.26.48c-1.54-.1-2.07-.6-2.13-2,0-.89,0-1.78,0-2.67,0-.61.17-.77.84-.86a60.34,60.34,0,0,0,5.92-1.5s.09-.07.31-.25c-1,.2-1.85.34-2.66.53s-1.78.46-2.68.65c-1.22.25-1.71-.13-1.58-1.28.21-1.77.5-3.54.75-5.3.06-.44.13-.89.15-1.33a.83.83,0,0,1,.69-.83c.59-.16,1.18-.32,1.78-.46l6.07-1.42c3.32-.78,6.62-1.6,10-2.32,1.56-.34,3.17-.46,4.76-.68a1.5,1.5,0,0,1,.3,0c1.63,0,2,.52,1.52,2s-.84,2.82-1.19,4.25a2.77,2.77,0,0,1-2.21,2.14c-1.14.29-2.25.7-3.38,1.06Zm-17.51-1.31c-.13,1.25-.25,2.36-.35,3.47-.06.56,0,.59.62.44.8-.18,1.58-.4,2.38-.57A172.75,172.75,0,0,0,89,104.06a2.25,2.25,0,0,0,1.75-1.83c.26-1.15.61-2.29.94-3.42.21-.69.16-.84-.6-.76a34,34,0,0,0-4.15.6c-5.31,1.2-10.61,2.47-15.91,3.72-.36.08-.72.2-1.09.27a.82.82,0,0,0-.73.79C69.1,104,69,104.63,68.89,105.08ZM69,115.33a5.62,5.62,0,0,0,.82,0c1.18-.18,2.36-.36,3.53-.57,1.44-.25,2.86-.64,4.32-.8a46.62,46.62,0,0,0,9.21-2.19,4.45,4.45,0,0,0,2.71-2.29c.23-.43.42-.87.61-1.31.49-1.16.47-1.22-.82-1a82.09,82.09,0,0,0-10.08,2.14c-.8.26-1.65.41-2.47.64-2.33.63-4.65,1.27-7,1.92-.54.15-1.3.21-1.53.56s-.1,1.11-.11,1.68c0,.15,0,.31,0,.47C68.25,115.06,68.5,115.3,69,115.33Z"/><path d="M86.3,88.11c.76.2,1.52.38,2.26.61a7.09,7.09,0,0,1,4.93,5c.36,1.23-.12,1.85-1.47,2.12-6.55,1.32-13.1,2.63-19.64,4-1,.21-2,.55-3.06.82a1,1,0,0,1-1.13-.15c-.34-.34-.25-.68-.11-1.06a17.14,17.14,0,0,1,8.11-9.49A17.4,17.4,0,0,1,86.3,88.11Zm-.16,1.26c-.92-.05-1.67-.13-2.41-.12a15.54,15.54,0,0,0-13.9,9.31,1.93,1.93,0,0,0-.07.55,3.57,3.57,0,0,0,.57,0c2.13-.49,4.23-1,6.37-1.47,4.86-1,9.74-2,14.61-3,1-.2,1.11-.29.71-1.18a5.53,5.53,0,0,0-3.21-3.28C87.89,89.86,86.94,89.61,86.14,89.37Z"/><path d="M118.38,100.52a9.43,9.43,0,0,1-3.59-1.24c-1.37-.82-1.36-2.13.07-2.87a6.54,6.54,0,0,1,2-.48,1.85,1.85,0,0,0,1.17-.44,2,2,0,0,1,2.75-.07,2.67,2.67,0,0,0,.8.38,6.88,6.88,0,0,1,2.5,1.27c1.47,1.26,1.23,2.46-.65,3.07A11.75,11.75,0,0,1,118.38,100.52Zm0-1.16a11.75,11.75,0,0,0,1.78,0,20.23,20.23,0,0,0,2.91-.44c.7-.16.74-.43.17-.89a7.59,7.59,0,0,0-1.19-.73.71.71,0,0,0-1,.21c-1,1.12-2.26.56-3.27-.09-.12-.13-.31-.34-.44-.33a6.84,6.84,0,0,0-1.77.31c-.58.23-.57.62,0,.88A7.39,7.39,0,0,0,118.39,99.36Z"/><path d="M83.42,74.53A2.69,2.69,0,0,1,86,76c.16.32.58.53.85.81a1.66,1.66,0,0,1-.38,2.84,4.59,4.59,0,0,1-2.94.65,12.16,12.16,0,0,1-2.87-.63A1.8,1.8,0,0,1,79.22,78a1.26,1.26,0,0,1,1.17-1.34,1.31,1.31,0,0,0,1.06-.73c.15-.28.54-.46.84-.66s.78-.48,1.17-.72Zm2.7,3.71L86,78l-.28.08c-.1,0-.18.1-.28.13-1.2.38-2.39.62-3.45-.35a1,1,0,0,0-.63-.28,2.76,2.76,0,0,0-.79.31c.12.18.23.36.36.53a.29.29,0,0,0,.16.1,6.12,6.12,0,0,0,4.11.28A5,5,0,0,0,86.12,78.24Z"/><path d="M128.29,96.08a7.88,7.88,0,0,1-2.84-1.31,1.49,1.49,0,0,1-.56-1.79,1.63,1.63,0,0,1,1.48-1.27,1,1,0,0,0,.84-.41,2.25,2.25,0,0,1,3.52-.1,8.65,8.65,0,0,1,1.47,1.93,1.62,1.62,0,0,1-.85,2.46A5.77,5.77,0,0,1,128.29,96.08Zm-2.23-2.59c.11.13.23.4.46.53a8.82,8.82,0,0,0,1.75.78,3.84,3.84,0,0,0,2.49-.34.5.5,0,0,0,.24-.8c-.22-.37-.43-.13-.66,0a2.84,2.84,0,0,1-3.07-.34,1.71,1.71,0,0,0-.48-.33C126.44,92.85,126.19,93,126.06,93.49Z"/><path d="M133.22,89a4.75,4.75,0,0,1-2.6-1.23,1.57,1.57,0,0,1-.22-2.1,1.3,1.3,0,0,1,.86-.57c.53,0,.35-.56.61-.85s.94-1.05,1.49-1.05c.79-.38,1.31,0,1.9.59s1.07,1,1.65,1.53c1.23,1,1.19,2.1-.17,3A5.09,5.09,0,0,1,133.22,89Zm.18-1.27a3.29,3.29,0,0,0,2.58-.48c.18-.12.38-.43.33-.59a.7.7,0,0,0-.85-.52c-.23,0-.45.14-.67.21s-.49.27-.67.22a4.76,4.76,0,0,0-2.28,0,1.54,1.54,0,0,1-.37,0c0,.15,0,.33.08.43A2.71,2.71,0,0,0,133.4,87.77Z"/><rect class="cls-1" width="205.95" height="205.95"/></g></g></svg>