<svg xmlns="http://www.w3.org/2000/svg" viewBox="0 0 205.95 205.95"><defs><style>.cls-1{fill:none;}</style></defs><title>Bembel BounceAsset 35</title><g id="Layer_2" data-name="Layer 2"><g id="WEB"><path d="M98.39,93.29c-1.64.1-1.67.08-2.61-1.35-.18-.27-.37-.55-.56-.81a1.67,1.67,0,0,1-.24-2,1.69,1.69,0,0,0,.13-.95q-.3-3.74-.65-7.45c-.07-.84-.13-1.68-.26-2.51a2.53,2.53,0,0,0-.72-1.66,1.75,1.75,0,0,1-.33-2,5.3,5.3,0,0,1,.53-1c.42-.62-.07-1.51,0-2,.06-1.41.63-2.37.59-3.17-.06-1.34-.17-2.86-.6-3.08a4.64,4.64,0,0,0-1-.33c-1.1-.14-1-1.42-.85-2a3,3,0,0,1,2.37-1.76c1.91,0,2.28-.43,3.3-.06.62.22,1.26.49,1.45.87a4.93,4.93,0,0,1-.22,2.77c-.68,1-.44,2.6-.31,3.46.08.54,0,1.24,1,1.55a1.38,1.38,0,0,1,.84,1.33c-.08.62.22.7.63.79a24.2,24.2,0,0,0,5.64.64c.08-1.88,1.66-2.92,2.3-4.46a11.59,11.59,0,0,1,.82-1.56c2.06-1.86,2.46-2.44,6-1.41.94.27,2.61.83,3.07,1.67,1.88,1.44.88,4.29.85,4.44-.16,2-1.5,3.4-2.2,3.5-.23,1.49-1.07,1.9-.91,2.09,1.66,2,2.21,4.45,2.67,6.89a6.59,6.59,0,0,1-.87,5.2,12.62,12.62,0,0,0-2.14,6.26,21.73,21.73,0,0,1-1.62,6.26,4.69,4.69,0,0,0-.06,2.36,8.73,8.73,0,0,1-.06,3.6c-.19.71-.5,1.38-.71,2.07a7.29,7.29,0,0,0-.48,2c0,2.72.15,5.43.21,8.14a1.31,1.31,0,0,0,.9,1.32,62.45,62.45,0,0,1,8.54,5.18c1,.69,2.13,1.29,3.2,1.93a13.11,13.11,0,0,1,2,1.2,7.37,7.37,0,0,1,2.44,3.39,2.87,2.87,0,0,1-1.81,3.63,3.7,3.7,0,0,0-1.36.84c-1.1,1-2.13,2.16-3.67,2.52a3.79,3.79,0,0,1-1.41.14,29.67,29.67,0,0,1-5.88-1.35,4,4,0,0,1-2-1.48,1.09,1.09,0,0,1-.12-1.24,1,1,0,0,1,1.07-.39c.44.06.87.14,1.3.22a7,7,0,0,0,2.5.12c0-.14,0-.23-.07-.25a80.53,80.53,0,0,1-7.61-4.6c-1.51-1-3-1.95-4.43-3a14.12,14.12,0,0,1-5.07-7.4c-.71-2.47-1.59-4.88-2.39-7.32-.07-.2-.17-.4-.32-.74-.75.81-1.44,1.54-2.13,2.27-1,1-1.91,2.13-3,3.1a6.42,6.42,0,0,0-2,4.94,37,37,0,0,0,.54,4.91c.16,1.16.34,2.32.59,3.46a15.27,15.27,0,0,0,.74,2c.35-.29,1.1-.22,1,.1-.2.93.2,1.47.17,2.36s-.11,1.75-.19,2.63a1.56,1.56,0,0,1-1.27,1.47,6.17,6.17,0,0,1-3.78.15,2.35,2.35,0,0,0-1.69.09c-1.71.89-3.48.7-5.27.48-.73-.09-1.45-.2-2.17-.36a3.73,3.73,0,0,1-1.22-.45c-.55-.33-.92-1.19-.41-1.58s1.19-.26,1.67-.44c1.3-.49,2.63-.9,3.93-1.39a3.42,3.42,0,0,0,1.07-.7c.54-.51,1-1.09,1.69-1.8-.54-.08-.88-.15-1.23-.18-1.43-.15-1.51-.18-1.68-1.64-.2-1.78-.28-3.58-.49-5.37a78.58,78.58,0,0,0-1.84-11.61,3.59,3.59,0,0,1,1-3.81c1.82-1.76,3.58-3.59,5.5-5.23,1.47-1.26,3.16-2.24,4.73-3.38a18.25,18.25,0,0,0,1.83-1.57,3,3,0,0,1,1.82-1.11c.7-.06.43-.89.49-1.38C97.83,96.79,98.38,93.58,98.39,93.29ZM85.94,132.14c2.11-.42,4.12.22,6.06-.73,0-.49-.09-1-.16-1.43-.33-2.17-.79-4.33-1-6.51a8.17,8.17,0,0,1,2.57-6.94c1.72-1.64,3.22-3.5,4.82-5.26a4,4,0,0,1,.52-.57c.51-.4.94-.25,1.16.38,1.15,3.29,2.28,6.58,3.45,9.86a13.4,13.4,0,0,0,5.34,6.54c1.51,1,3.09,1.94,4.62,2.94a54,54,0,0,0,6.8,4,1.43,1.43,0,0,0,.92.14,9.05,9.05,0,0,0,1.79-.82c1.06-.65,2.09-1.35,3.12-2.06.5-.34,1-.73,1.48-1.14a2.94,2.94,0,0,0-.43-.39c-.69-.4-1.42-.76-2.1-1.19-1.36-.85-2.69-1.78-4.06-2.61a60.5,60.5,0,0,0-7.81-4.49,1.54,1.54,0,0,1-1-1.54c-.06-2.83-.13-5.65-.24-8.47a6.3,6.3,0,0,1,.75-3.16,7.85,7.85,0,0,0,.33-5.77c-.37.15-.68.25-1,.38a5.13,5.13,0,0,1-5.23-.08,8,8,0,0,0-2.55-1,10.88,10.88,0,0,0-3.17-.07c-1.37.11-2.69,0-3.24-1.48a1.39,1.39,0,0,0-1.4.63A12.55,12.55,0,0,1,94.71,103c-1.4,1-2.86,2-4.31,3a46.05,46.05,0,0,0-6.53,6,2,2,0,0,0-.5,1.93c.49,2.52,1,5,1.39,7.56.35,2.36.53,4.74.79,7.1C85.67,129.74,85.79,130.82,85.94,132.14Zm13.16-40a3,3,0,0,0,.64.22c1,0,2.05.1,3.08.11a2.33,2.33,0,0,0,.86-.15L108,90.75c.59-.21,1.19-.38,1.79-.53.35-.09.74,0,.77.41s-.22.56-.37.82c0,.08-.19.1-.29.14-2,.72-4.07,1.46-6.11,2.16a4.86,4.86,0,0,1-1.09.11l-1,.06c-.11,1-.19,1.92-.33,2.85a3.06,3.06,0,0,1-.42,1.32c-.58.76-1,1.7-2,2a.84.84,0,0,0,.9.86,6.74,6.74,0,0,0,1.42,0,8.45,8.45,0,0,1,5.91,1.13c2,1.26,6,0,6.65-2.65.53-2.07.85-4.16,1.21-6.25A9.76,9.76,0,0,1,116.75,89a6.5,6.5,0,0,0,1.06-5.54,38.17,38.17,0,0,0-1.27-4.32,10.26,10.26,0,0,0-1.14-1.91,33.11,33.11,0,0,1-4.23,1.31,4.41,4.41,0,0,0-2.92,1.66,3,3,0,0,1-.49.44,9.72,9.72,0,0,0-2.51,4.15,10.94,10.94,0,0,0,2.17-.77,1,1,0,0,0,.44-.67,4.83,4.83,0,0,1,1.21-2.43,1.64,1.64,0,0,1,1.38-.71c.38.6,0,1-.28,1.42s-.86,1.13-.88,1.72a2.09,2.09,0,0,1-1.67,2c-1.64.59-3.24,1.38-5.15,1.32a6.57,6.57,0,0,1-2.27,4C99.81,91.13,99.5,91.62,99.1,92.15Zm16.8-17.76c-.07-.07-.2,0-.28.11-.25.2-.53.55-.83.22a1.1,1.1,0,0,1-.13-.88c.12-.5.41-1,.55-1.43.23-.81.43-1.62.59-2.44a1,1,0,0,0-.7-1.25c-.73.31-1.28,1-2.19,1.09-1.58.23-1.57.33-2.07-1.2,0,0-.06,0-.21-.16-.78.92-1.62,1.82-2.34,2.81a2.85,2.85,0,0,0-.45,1.44,13.75,13.75,0,0,0,.33,4.47c.13.52.48,1,1,.87a27.28,27.28,0,0,0,5.64-1.68A1.28,1.28,0,0,0,115.9,74.39Zm-20.77-3.2c-.24,1.25.21,2-.4,2.91-.14.21-.28.43-.4.65A.82.82,0,0,0,94.6,76a2,2,0,0,1,.6,1,5.1,5.1,0,0,1,.26,1.29c.22,2.58.43,5.17.65,7.76a7,7,0,0,0,.16.77l.23,0c.68-1,1.29-2,2-2.94A1.8,1.8,0,0,0,98.87,82,39.06,39.06,0,0,1,97.7,78.2c-.58-2.63-1.25-2.32.78-5.3A5.3,5.3,0,0,0,99,71.72c.1-.31,0-.64-.34-.7C97.53,70.81,95.41,69.72,95.13,71.19Zm11.72,6.4c-.1-.78-.26-1.68-.32-2.59-.09-1.12-.08-1.15-1.2-1.2a16.63,16.63,0,0,1-4.84-.85,2.83,2.83,0,0,0-.52-.08c-.45.72-.92,1.38-1.28,2.09a1.65,1.65,0,0,0,1.12,2.53c1,.28,2,.55,3.06.85s1.09.55,1,1.44a19.92,19.92,0,0,1-.51,2.11c.75-.75,1.49-1.39,2.11-2.14A20.9,20.9,0,0,0,106.85,77.59Zm10,59.47c.55,1.19,4.08,1.33,5.19,1.56a3,3,0,0,0,2.28-.82,18,18,0,0,0,2.16-1.85,2.37,2.37,0,0,1,1.36-.84,1.74,1.74,0,0,0,1.22-.86,2,2,0,0,0-.31-2.24c-.41-.39-.6-.32-1.54.29a29.85,29.85,0,0,1-5.47,3.29c0,.67-.55.79-1.17.91s-.92.21-1.46.29S116.55,136.43,116.84,137.06Zm-23-1.28a1.72,1.72,0,0,0-.48.06c-1.43.75-2.71.75-3.85-.57a1,1,0,0,0-1.49-.12,4.91,4.91,0,0,0-.9.8,4.23,4.23,0,0,1-2.1,1.32c-1.21.36-2.4.83-3.75,1.3.67.15,1.16.27,1.66.35a7.6,7.6,0,0,0,4.84-.41,3,3,0,0,1,2.67-.08,4.11,4.11,0,0,0,2.79-.15.81.81,0,0,0,.46-.54C93.84,137.11,93.85,136.46,93.89,135.78ZM97.41,92l2.73-3.08a5.39,5.39,0,0,0,.47-.6,3.08,3.08,0,0,0-.6-4.14,2.6,2.6,0,0,0-.38.36c-1.12,1.57-2.25,3.13-3.33,4.73a1.17,1.17,0,0,0-.07,1A16.25,16.25,0,0,0,97.41,92Zm3.83-8.58c.34-1.46,1.2-2.43,1.37-3.77l-3.39-1.06c.4,1.46.72,2.72,1.12,4C100.43,82.81,100.81,83,101.24,83.4ZM97.33,69.34A13.77,13.77,0,0,1,97,66.8a9.23,9.23,0,0,1,.67-2.32,4.41,4.41,0,0,1-.93.47c-.69.23-1-.75-1.87,0a17.16,17.16,0,0,1,.62,2.24,15.54,15.54,0,0,1,0,2.27Zm-4.82,63.37-3.53.58,0,.24a5.23,5.23,0,0,1,.72.32,5,5,0,0,1,.79.58c1,.89,1.54.88,2.67-.12ZM97.58,63c.07-.44-.18-1.19-.73-.94a8.22,8.22,0,0,1-2,.25c-.62.1-1.77.11-1.84.82-.14,1.37,1.11.38,1.25.5.43.38.66.1,1.1-.27s.68.52,1.25.61C97,64.05,97.51,63.41,97.58,63ZM99,98.25c.09,0,.5-.41.59-.39a3.16,3.16,0,0,0,.57-1c.15-.86.19-1.74.28-2.61,0-.33-.07-.58-.44-.63s-.49.26-.54.55c-.13.9-.49,2.14-.57,3A3.32,3.32,0,0,0,99,98.25Zm3.39-12.9c.59,0,1.08.24,1.37-.35.52-1.08,1-2.16,1.58-3.24A8.18,8.18,0,0,0,102.38,85.35Zm4.63-6,.12.1.38-.46-.13-.1Z"/><path d="M110.25,76.74c-.31-.06-.73-.24-.74-.67s.87-.1,1.18-.17c.56-.13,1.5-.71,1.79-.39.16.17,0,.58-.19.65A4.35,4.35,0,0,1,110.25,76.74Z"/><path d="M110.22,75.11a2,2,0,0,1-.85-.39.64.64,0,0,1-.19-.55c0-.13.15-.17.33-.17a4.33,4.33,0,0,1,1.86.7C111.45,75,111,75.08,110.22,75.11Z"/><path d="M112.91,72.58a1.42,1.42,0,0,1,1.11.65.5.5,0,0,1-.08.39c-.32.33-.55.14-1,0s-.83-.15-.69-.54A.68.68,0,0,1,112.91,72.58Z"/><path d="M110.32,71.91c.09.44-.6.24-.81.18s-.76-.23-.65-.59c0-.16.35-.25.49-.27A.91.91,0,0,1,110.32,71.91Z"/><rect class="cls-1" width="205.95" height="205.95"/></g></g></svg>