<svg xmlns="http://www.w3.org/2000/svg" viewBox="0 0 205.95 205.95"><defs><style>.cls-1{stroke:#000;stroke-linecap:round;stroke-linejoin:round;stroke-width:0.56px;}.cls-2{fill:none;}</style></defs><title>Bembel BounceAsset 36</title><g id="Layer_2" data-name="Layer 2"><g id="WEB"><path class="cls-1" d="M84.64,102.71c-1.83-.31-3.63-.58-5.43-.9-4.74-.85-9.49-1.67-14.22-2.59-3.54-.7-7.06-1.54-10.57-2.35a13.25,13.25,0,0,1-4.14-2.09,46.42,46.42,0,0,1-6.8-5.5c-.59-.67-2.07-3.21-1.74-4s2-1.17,2.64-1.25c3.4-.39,7.81-.7,9.86-1.15s3.39-1.64,5.48-1.58c3,.07,10.33,2,14.83,2.8q7.07,1.22,14.14,2.45a1.91,1.91,0,0,0,1.42-.27c2.67-1.66,5.37-3.28,8.06-4.91.61-.36,1.23-.7,1.87-1a4.37,4.37,0,0,1,5,1.45,2.84,2.84,0,0,1,.15,2.38c-.47,1.56-1,3.11-1.46,4.67-.24.75-.25.77.54,1,2.26.58,4.55,1.09,6.79,1.72a78.89,78.89,0,0,0,11.76,2.51c2.06.25,4.14.37,6.21.54l2,.16a15,15,0,0,0,4.81-.57,18.88,18.88,0,0,0,8.22-4.29c.47-.41,4.62-3.52,6-4.94,1.19-1.25,2.54-2.38,3.84-3.53a2.79,2.79,0,0,1,2.44-.58c1.4.25,2.8.53,4.2.78.6.11,1.22.16,1.83.26s.94.48.74,1c-1.26,3.22-2.47,6.47-3.84,9.66-.91,2.12-2.07,4.15-3.11,6.22s-1.1,1.83.61,3.36c3.3,2.95,6.7,5.8,10.08,8.67,1,.89,1.29,1.56.77,2.48a1.4,1.4,0,0,1-2,.63L151.06,108c-.61-.25-1.22-.48-1.82-.75a3.27,3.27,0,0,0-2.53-.07c-2.37.83-4.76,1.6-7.13,2.42a10.59,10.59,0,0,1-5.36.39c-5-.86-10.08-1.7-15.12-2.58-2.26-.39-4.52-.83-6.78-1.24a3.31,3.31,0,0,0-.63,0,2.12,2.12,0,0,0,.28.61c.75.85,1.5,1.7,2.31,2.5,2.6,2.59,11.19,9.29,12.54,10.42.73.62,1.38,1.33,2.05,2a2.72,2.72,0,0,1,.47.69c.43.84.13,1.44-.84,1.54-1.26.12-6.87.21-8.39.15a19.18,19.18,0,0,1-2.93-.33,3.73,3.73,0,0,1-1.47-.64,35.25,35.25,0,0,1-3.08-2.35c-3.62-3.14-7.38-6.11-11.23-9-1-.75-2-1.54-2.94-2.34-.43-.35-.68-.28-.91.16s-.56,1-.85,1.52a3.67,3.67,0,0,1-4,2c-2.35-.35-4.7-.64-7-1.09-1.89-.36-3.75-.92-5.62-1.4-1.15-.29-1.44-.59-1.58-1.69a12.9,12.9,0,0,1,.06-4.16,1.92,1.92,0,0,1,1.86-1.68ZM78,86.11v0c-5.25-.87-10.52-1.68-15.77-2.63s-4.44.71-8,1.44c-1.75.16-10.4-1-10.75,1.32S50,92.7,51.25,93.7a8.93,8.93,0,0,0,3.25,1.69c1.58.4,3.17.84,4.78,1.16Q65.55,97.81,71.86,99c3.87.72,7.76,1.38,11.64,2,1.33.23,2.67.43,4,.62a2,2,0,0,1,1.55,1c.56,1,0,1.86-1.26,1.76-.18,0-.36,0-.55-.07a29.5,29.5,0,0,0-6.09.1c-.92.11-1,.19-1.13,1.07s0,2,0,2.94c0,.53.3.77.84.91a84.78,84.78,0,0,0,10.93,2.26c.43.05.87,0,1.3.09a2,2,0,0,0,2.07-1c.39-.6.71-1.24,1.09-1.85a6.58,6.58,0,0,1,.86-1.16c.51-.54.77-.52,1.36,0,.3.25.6.51.91.75,1.92,1.45,3.85,2.88,5.75,4.34,1.56,1.21,3.09,2.45,4.62,3.69,2.08,1.69,4.15,3.4,6.22,5.11a4.76,4.76,0,0,0,3.13,1.07l6.55,0c.51,0,1,0,1.52,0,.31,0,.37-.21.18-.41a11.89,11.89,0,0,0-1.29-1.27c-2.43-2-4.9-3.86-7.34-5.8a67.32,67.32,0,0,1-7.24-6.66,19.76,19.76,0,0,1-2-2.61c-.49-.75-.17-1.27.74-1.33a6.15,6.15,0,0,1,1.42.07c2.26.39,4.52.81,6.79,1.2l16.41,2.8a9.09,9.09,0,0,0,4.68-.54c2.33-.83,4.69-1.58,7-2.36a4.13,4.13,0,0,1,3.07.15q3,1.31,6,2.52c3.24,1.31,6.48,2.58,9.73,3.86a5.16,5.16,0,0,0,.78.17,4.09,4.09,0,0,0-.49-.61c-3.35-2.9-6.73-5.77-10.06-8.68a23,23,0,0,1-2.19-2.33c-.43-.5-.32-.81.2-1.19a18.28,18.28,0,0,0,1.6-2.43,104.17,104.17,0,0,0,5.46-12.1,8.13,8.13,0,0,0,.36-1.37c.09-.41-.09-.62-.55-.7-1.52-.23-3-.48-4.54-.74a1.33,1.33,0,0,0-1.19.35c-1.24,1.13-2.52,2.22-3.68,3.41s-6.18,5.07-7.27,6c-2.81,2.37-6.33,3.27-9.88,4.13a4.3,4.3,0,0,1-1.08.08c-1.46,0-2.91-.14-4.37-.2a61.46,61.46,0,0,1-11.38-1.47c-4.12-1-8.2-2.07-12.3-3.09-3.19-.79-6.36-1.66-9.58-2.28C89.51,88.07,83.74,87.12,78,86.11Zm22.47,2.73,0,.09.43.07c1.14.23,1.13.23,1.44-.76s.69-2.13,1-3.2a12.24,12.24,0,0,0,.45-1.88,1.27,1.27,0,0,0-.33-.9,2.46,2.46,0,0,0-3.15-.39c-2.7,1.56-5.36,3.16-8,4.75A1.46,1.46,0,0,0,92,87a1.34,1.34,0,0,0,.37.16Z"/><rect class="cls-2" width="205.95" height="205.95"/></g></g></svg>