<svg xmlns="http://www.w3.org/2000/svg" viewBox="0 0 205.95 205.95"><defs><style>.cls-1,.cls-3{fill:none;}.cls-1,.cls-2{stroke:#000;stroke-linecap:round;stroke-linejoin:round;stroke-width:0.94px;}</style></defs><title>Bembel BounceAsset 34</title><g id="Layer_2" data-name="Layer 2"><g id="WEB"><path class="cls-1" d="M136.76,98.66a17,17,0,0,0-2.84,4.55c-.67,1.39-1.42,2.74-2.09,4.12a6.54,6.54,0,0,0-.48,1.54c-.27,1.44-.44,2.9-.74,4.33-.18.82-.59,1.59-.83,2.4a74.93,74.93,0,0,1-6.1,15c-.53,1-1.14,1.9-1.72,2.84-.18.29-.41.54-.84.35s-.58-.52-.28-1a49.72,49.72,0,0,0,8.18-20.6,7.87,7.87,0,0,0-.81-4.9,14.09,14.09,0,0,0-2.6-3.75,3.25,3.25,0,0,1-.89-2.16c-.08-.81-.14-1.62-.22-2.43a3.48,3.48,0,0,0-.9-2.16,1.92,1.92,0,0,1-.49-1.68,16.25,16.25,0,0,0,.21-1.69c0-.62,0-1.24-.08-1.86,0-.35-.07-.7-.09-1.05-.09-1.38-.19-2.76-.26-4.14s.33-2.63.09-4a.91.91,0,0,1,.09-.48,24.8,24.8,0,0,0,1.06-3.67,8.68,8.68,0,0,1,1.31-2.83,4.13,4.13,0,0,0,.36-.65c.65-1.45,1.28-2.91,1.94-4.35a15.15,15.15,0,0,1,2.1-3.35,13.36,13.36,0,0,1,3.55-2.79,3.52,3.52,0,0,1,2.14-.52,1.32,1.32,0,0,1,1.08.57c.34.43.78.79,1.13,1.21a5.24,5.24,0,0,1,.68,1,9.83,9.83,0,0,0,1.87,2.92,1.57,1.57,0,0,1,.36.89,7.19,7.19,0,0,0,.86,2.44,10.3,10.3,0,0,1,1.23,5A7.89,7.89,0,0,0,143,79.2a4.53,4.53,0,0,1,.1,1.36,13.79,13.79,0,0,0-.12,4.3,3.49,3.49,0,0,1-.38,2,4.4,4.4,0,0,0-.44,1.31,5.74,5.74,0,0,1-.79,2c-.63,1.09-1.12,2.26-1.67,3.39C138.79,95.27,138.17,97.15,136.76,98.66Z"/><path class="cls-1" d="M74.84,113.89c.33-.1.61-.21.9-.28a.92.92,0,0,1,.57,0c.09,0,.08.3.08.46s-.14.32-.08.39c.33.45,0,.68-.29.92l-.81.65a4.88,4.88,0,0,1,.38.35c.4.43.26.84-.34,1a4.91,4.91,0,0,1-.86.07h-.78a1.4,1.4,0,0,0,.13,1.38c.29.55.89.15,1.24.43a3.63,3.63,0,0,1,.42-.27c.48-.26.8-.25,1.1.17a7,7,0,0,1,.91,1.62,2.78,2.78,0,0,1,.25,1.86c-.1.28.11.45.32.62,1.11.87,2.2,1.76,3.31,2.63l5.76,4.5c.17.14.32.31.47.46-.27.61-.38.65-.87.28-1.16-.89-2.3-1.81-3.45-2.71l-3.89-3c-.1-.08-.2-.19-.32-.2-.73-.1-1.46-.18-2.2-.24-.1,0-.23.09-.33.16a3.45,3.45,0,0,0-.26.28c-.62.55-1,.51-1.39-.12-.52-.06-1-.09-1.5-.19a2.89,2.89,0,0,1-.8-.31.46.46,0,0,1-.26-.62c.12-.26.27-.48.63-.47s.74,0,1.11,0a1.16,1.16,0,0,0,.52-.11c.7-.39.94-.41,1.5.11a1.73,1.73,0,0,0,1.58.44,3.6,3.6,0,0,0-.39-.43L74,121.12a2.9,2.9,0,0,0-1.25-.59c-1.18-.25-2.34-.58-3.53-.81a17.26,17.26,0,0,0-2.28-.22,1.26,1.26,0,0,0-1.27,1.15,2.9,2.9,0,0,1-.76,1.75,2.07,2.07,0,0,1-.65.52.81.81,0,0,1-.65,0c-.22-.12-.18-.38,0-.59s.15-.25.3-.5a6.11,6.11,0,0,1-.77.11,4.85,4.85,0,0,1-1-.05c-.13,0-.26-.24-.29-.38s.16-.25.28-.29c.36-.14.74-.23,1.13-.34-.56-.84-.44-1,.56-1.07a7,7,0,0,1,.79,0c.38,0,.59-.11.76-.5l-1-.32c-.51-.15-1-.27-1.51-.45a.82.82,0,0,0-1,.27,3.52,3.52,0,0,1-2.11,1.22,1.63,1.63,0,0,1-.62,0,.67.67,0,0,1-.41-.36c0-.09.15-.29.28-.37a3,3,0,0,1,.53-.15A2.28,2.28,0,0,0,60.81,118c-.2,0-.36,0-.43,0-.62.49-1.21.1-1.78-.07s-.34-.58-.24-1l-.63-.31-.51-.2c-.73-.28-1-.5-.78-.74.33-.39.71-.14,1.07,0l1.14.4c.06-.14.09-.23.13-.31.2-.51.5-.64.93-.28a5.63,5.63,0,0,1,1,1.14c.25.35.22.36.87.43l-.55-1c-.11-.21-.19-.44.06-.6s.51,0,.65.21c.37.53.84,1,.65,1.8a16.27,16.27,0,0,0,5.32,1.19,3.64,3.64,0,0,0-1.62-1,3.84,3.84,0,0,1-1.59-.79c-.41-.42-.76-.84-.31-1.38a3.65,3.65,0,0,1-.38-.77.59.59,0,0,1,.15-.52.76.76,0,0,1,.64,0,2,2,0,0,1,.67.6c.36.49.66,1,1,1.52.69.06.68.07.92.78a.51.51,0,0,0,.21.29c1.06.6,2.11,1.2,3.2,1.76a1.85,1.85,0,0,0,1.09.09c-.15-.16-.28-.34-.44-.49-.56-.53-1.1-1.06-1.68-1.57a28.28,28.28,0,0,1-3.78-4.34,3.43,3.43,0,0,0-3.41-1.34c-.12.29-.25.61-.39.92a7.19,7.19,0,0,1-.48,1,1.49,1.49,0,0,1-2.07.6c-.31-.12-.39-.31-.26-.58s.23-.57.37-.85.26-.52.42-.82a.76.76,0,0,0-1,.19,3.07,3.07,0,0,0-.5.75c-.3.64-.93,1-1.43,1.45-.21.2-.43.1-.64-.05s-.49-.41-.34-.75a5.75,5.75,0,0,1,.42-.63c-.06-.47-.39-.56-.84-.54a6.66,6.66,0,0,1-1.18,0c-.14,0-.36-.25-.34-.32s.24-.36.38-.37a1.16,1.16,0,0,0,.87-.42c.26-.28.63-.16,1-.07a4.9,4.9,0,0,0,1,.2c-.31-.36-.63-.67-.6-1.16,0-.1-.2-.22-.32-.3-.27-.16-.56-.28-.81-.46a.4.4,0,0,1-.19-.35.42.42,0,0,1,.31-.27,2.18,2.18,0,0,0,1.17-.26c.12-.07.55.15.7.34a14.19,14.19,0,0,1,.88,1.39,6.67,6.67,0,0,0,.43.61.41.41,0,0,0,.65,0c-.2-.48-.41-1-.61-1.45a.29.29,0,0,1,.23-.45,1.71,1.71,0,0,1,2.17,1,4.8,4.8,0,0,1,.27.81l2.44.22a24.65,24.65,0,0,0-3.54-4.47c-.27.28-.54.57-.82.84a5.73,5.73,0,0,1-.74.66c-.55.34-.85.22-1-.37a2.16,2.16,0,0,0-.08-.23c-.34,0-.68,0-1,0a1.55,1.55,0,0,1-.66-.2.6.6,0,0,1-.2-.5c0-.11.26-.23.42-.26a2.1,2.1,0,0,1,.55,0c.42,0,.82.1,1.08-.36.08-.14.37-.16.55-.24l.72-.32c-.13-.38-.36-.27-.56-.28-.63,0-1.26,0-1.89-.06a1.4,1.4,0,0,1-.65-.25.59.59,0,0,1-.22-.48c0-.24.3-.22.52-.15l.8.19.07-.15c-.12-.1-.23-.22-.36-.31l-1.61-1.19a.89.89,0,0,1-.31-.33.57.57,0,0,1,0-.47.6.6,0,0,1,.47-.15q1.14.32,2.25.69a7,7,0,0,1,.75.35l.16-.24c.3-.35.58-.38.78,0A8.85,8.85,0,0,1,59.9,104c.06.2,0,.46.43.48,0-.23.08-.46.1-.69s.18-.61.64-.57.56-.19.49-.56c0-.07-.06-.16,0-.21s.15-.35.28-.38a.54.54,0,0,1,.46.14,7,7,0,0,1,.34,1.27,9.94,9.94,0,0,1,0,1.09,1.5,1.5,0,0,1-.94,1.63l1.94,2.63a.9.9,0,0,0,.22-1.15,3,3,0,0,1-.29-.92c-.08-.52.14-.66.68-.45l.29.12c.13-.23.33-.41.34-.61,0-.75.7-1,1.25-1.25a.48.48,0,0,1,.42,0,.5.5,0,0,1,.16.44c-.12.35-.27.67,0,1,.06.09-.07.32-.17.45A6.62,6.62,0,0,1,66,107c0,.07,0,.14.08.15.28.07.6.12.55.49s-.33.35-.59.42l-.31.05a1,1,0,0,0-.87,1.29c.07.31.1.62.17.92a1.32,1.32,0,0,0,.18.4c.92,1.2,1.85,2.39,2.78,3.59.06.07.15.12.21.18l.11,0s0,0,0,0a61.32,61.32,0,0,1,1.91-8.85c-.36-.18-.69-.32-1-.5-.48-.29-1-.6-1.43-.91a.38.38,0,0,1-.14-.58.46.46,0,0,1,.63-.08c.32.17.62.38,1,.53a2.18,2.18,0,0,0,.74.22.54.54,0,0,0,.41-.24c.11-.19,0-.39-.22-.47A5.48,5.48,0,0,1,68,102a1.57,1.57,0,0,1-.32-.41c0-.12,0-.34,0-.4a.54.54,0,0,1,.48-.11,6.64,6.64,0,0,1,.92.56c.48.32.48.33,1.12,0,.06-.27-.11-.35-.34-.39a3.41,3.41,0,0,1-1.94-1.32c-.18-.2-.3-.43-.08-.66s.47-.14.72,0a2,2,0,0,0,.8.23c-.1-.15-.2-.29-.29-.44-.37-.62-.76-1.23-1.11-1.87-.12-.23-.2-.54.09-.74a.71.71,0,0,1,.87.11,5.07,5.07,0,0,1,1.75,2.23c.09.24.2.48.3.72h.19c.06-.25.14-.49.2-.74a1.93,1.93,0,0,1,.11-.5.47.47,0,0,1,.35-.22.48.48,0,0,1,.31.27.78.78,0,0,1,0,.43,3.19,3.19,0,0,1-.73,1.84,1,1,0,0,0-.16,1.18,1.45,1.45,0,0,0,1.16-1,3.62,3.62,0,0,1,.84-1.14.52.52,0,0,1,.82-.09c.26.23.49.06.74,0a1.19,1.19,0,0,1,1.33.37c.36.44.39.58-.12.83s-1.32.61-2,.92c0,0,0,.06,0,.09.16.18.44.35.22.62s-.52.16-.8.07l-.14-.07a1.24,1.24,0,0,0-1.76.3.56.56,0,0,0-.17.32c0,.63,0,1.26,0,1.91.71-.12,1.36-.19,2-.35.23-.05.41-.28.62-.43s.7-.52,1.07-.75c.1,0,.38,0,.42,0a.51.51,0,0,1,0,.45,7.49,7.49,0,0,1-.74.7c.3.06.48.1.67.12.55.06,1.11.1,1.66.15a1.59,1.59,0,0,1,.38.07c.31.1.64.22.58.59s-.38.45-.72.43c-.64,0-1.27-.08-1.9-.12-.2,0-.4,0-.82,0,.4.37.7.59.94.85s.38.44.34.61a2.25,2.25,0,0,0,.13,1.15c.12.56.08.75-.43,1a2.07,2.07,0,0,1-.58.23.67.67,0,0,0-.65.77c0,.49-.13.62-.67.6a14.4,14.4,0,0,1-2.18-.24c-1-.21-1.66.12-1.83,1-.13.75-.19,1.51-.36,2.26a2.42,2.42,0,0,0,.73,2.29c.75.79,1.58,1.51,2.39,2.25a1.92,1.92,0,0,0,.45.23,3.06,3.06,0,0,1,0-2,1.34,1.34,0,0,0-.1-.64,8.38,8.38,0,0,1-.27-1.07.65.65,0,0,1,.2-.57c.24-.16.43,0,.56.25l.19.27c.47-.31.71-.65.49-1.19a1.39,1.39,0,0,1-.09-.64c0-.11.18-.24.3-.28a.39.39,0,0,1,.33.13A5.76,5.76,0,0,1,74.84,113.89Zm.41-6.25a14.82,14.82,0,0,0-2.35-1.87,1.18,1.18,0,0,0-1.6.23,1.63,1.63,0,0,0-.35.57c-.3,1.12-.56,2.24-.83,3.37,0,0,0,.07.11.14.62-.24,1.27-.42,1.45-1.17a1.89,1.89,0,0,1,.39-.63.83.83,0,0,1,.86-.42c.43.12.17.49.19.89Z"/><path class="cls-1" d="M92.93,86.69c-.22-1.59-.47-3.27-.68-5-.15-1.14-.29-2.29-.36-3.44a4.86,4.86,0,0,0-2-3.36,2.47,2.47,0,0,1-1.06-2.1,10.93,10.93,0,0,1,.51-3.7c.16-.41.38-.89-.34-1.19-.48-.19-1,0-1.51.69C86.61,69.79,85.83,71,85,72.11a6.68,6.68,0,0,1-1.25,1.42,2.81,2.81,0,0,0-1.25,2.16,2.46,2.46,0,0,1-1.25,2.13,2.17,2.17,0,0,0-.75.91A7.38,7.38,0,0,1,79,80.67a7.3,7.3,0,0,0-2.08,3.57c-.21.9-.5,1.8-.71,2.7A7.5,7.5,0,0,0,76,88.43a2,2,0,0,0,1.07,1.82c.94.63,1,1,.26,1.78a1.53,1.53,0,0,0-.44,1.52,8.08,8.08,0,0,0,.52,1.36A1.47,1.47,0,0,1,77.11,97c-.83.7-.53,1.15.73,1.37.2,0,.4.06.6.11.61.13,1.39,0,1.8.45a3,3,0,0,1,1,2,27.06,27.06,0,0,0,3,13.14c.66,1.37,1.37,2.73,2.1,4.08a14.84,14.84,0,0,0,1.15,1.77.72.72,0,0,0,.93.22c.34-.17.15-.4,0-.63-.44-.73-.87-1.46-1.26-2.21-.52-1-.93-2-1.5-3a22.68,22.68,0,0,1-2.72-8.08c-.24-1.53-.39-3.06-.5-4.6-.07-.9,0-.93,1.23-1.13a14.24,14.24,0,0,1,2.08-.15c1.64,0,2.34-.43,2.65-1.57.24-.87.4-1.75.68-2.61a4.61,4.61,0,0,1,.8-1.47A12.88,12.88,0,0,0,92.93,86.69Z"/><path class="cls-1" d="M96,105c.87,3.34,1.73,6.63,2.6,10a1,1,0,0,0,.14-.3,54.27,54.27,0,0,1,1.36-7.3s-.06-.09-.13-.19l-.35.2c-.15.09-.32.25-.46.23-.69-.09-1.37-.23-2.05-.37-.06,0-.1-.14-.17-.25.3-.52.41-1.17,1-1.54.14-.09.13-.4.24-.56a2.52,2.52,0,0,1,.53-.55c.31-.22.66-.36.95-.6a.94.94,0,0,0,.3-.59c0-.45,0-.9,0-1.38-.44-.14-.75-.13-.82.38s-.36,1-1,.89c-.33,0-.69.5-1,.07a4.27,4.27,0,0,1-.39-1c-.06-.14-.11-.28-.18-.41A2,2,0,0,1,96.81,99a3.82,3.82,0,0,0,.48-1.07l-.36-.77A1.58,1.58,0,0,1,99,97c.61.47.58.42,1.24.06s1.11-.71,1.8-.32a.72.72,0,0,0,.48,0c.31-.08.61-.2.93-.31a5.23,5.23,0,0,1,.23-.57c.08-.15.2-.38.33-.39.62-.08,1.2-.49,1.84-.29a3.68,3.68,0,0,0,2.38.19h.09c.22.07.52.06.64.21a5.76,5.76,0,0,1,.9,1.4c.21.5-.18.84-.51,1.16s-.59.55-.87.84c-.64.69-1.26.68-2,0-.46,0-.89.08-1.31.15a1.31,1.31,0,0,0-.6.27,2.83,2.83,0,0,0-.5.63,5,5,0,0,0-.57,2.72c.2-.14.38-.28.57-.39.54-.29,1-.89,1.72-.35.07,0,.22,0,.34-.06s.29-.08.33,0c.35.45,1,.64,1.24,1a8.37,8.37,0,0,0,.81,1.07c-.34.58-.69,1.14-1,1.73a4.89,4.89,0,0,0-.23.77c-.22.63-.57.75-1,.28a1.93,1.93,0,0,0-1.67-.44,4.16,4.16,0,0,0-.13.59c-.1,1-.21,1.1-1.16.64-.14.21-.3.42-.44.65-.35.55-.66,1.15-1,1.67a12.29,12.29,0,0,0-2.33,7.29c-.09,3.06-.08,6.13-.07,9.19,0,.9.17,1.81.2,2.71s0,1.7,0,2.55a.63.63,0,0,1-.64.7l-.26,0c-1.37.11-1.56-.1-1.29-1.45a32.6,32.6,0,0,0,.33-6.62c0-1.45,0-2.91,0-4.36a32.61,32.61,0,0,0-1.9-11,4.14,4.14,0,0,0-3.34-2.86,8.11,8.11,0,0,0-2.25.07c-.72.08-1,0-1.29-.73-.09-.22-.21-.42-.32-.64s-.18-.29-.16-.41a5.39,5.39,0,0,1,.62-2.09,4.35,4.35,0,0,0,.8-1.84c.26-1,.41-1.15,1.36-1.06.22,0,.45-.07.68-.06.62,0,1.25.08,1.87.12a4.79,4.79,0,0,0,.65,0,.62.62,0,0,1,.76.55,14.21,14.21,0,0,0,1,2.84c.06.13,0,.3.1.43a4.64,4.64,0,0,0,.44,1c.15.23.38.4.17.7a.47.47,0,0,1-.76.11S96,105,96,105Zm4.69,4.4a4.18,4.18,0,0,0,1.49-2.57c0-.49-.24-.68-.66-.79C100.75,107,100.81,108.18,100.65,109.39Zm1.31-8.56c-.33.28-.68.42-.73.64a8,8,0,0,0-.11,1.44c.73.52,1.07,0,1.53-.43Zm.38-1.69c.3.77.17,1.57.64,2.18l.23,0,.12-2.15Zm-8.13,7.07,1.25,1.18.15-.11a5.75,5.75,0,0,0-.68-2.12Zm9.7-6.85c.24-.28.79-.39.55-1C104,98.55,103.69,98.77,103.91,99.36Z"/><path class="cls-1" d="M148.36,99c.21-.34.44-.67.65-1a4,4,0,0,1,.31-.58.81.81,0,0,1,1.36,0,1,1,0,0,0,.76.44c.64.06.69.19.5.81a2,2,0,0,0-.1.47c-.08.66-.27.87-1,.85s-1.61-.16-2.54-.26a2.2,2.2,0,0,0-.21.57,8.28,8.28,0,0,1-1.16,3c-.48.9-1,1.79-1.44,2.69a7.31,7.31,0,0,0-.27.72.73.73,0,0,0,.88-.56,1.72,1.72,0,0,0,0-.24c.21-1.06.67-1.21,1.69-.68a9.88,9.88,0,0,0,1.4.32c.56.18.86-.14,1.24-.39s.9-.5,1.34-.76a.94.94,0,0,0,.45-.45,8.19,8.19,0,0,1-1.4,0,6.7,6.7,0,0,1-1.29-.42.75.75,0,0,1-.25-.22,3.23,3.23,0,0,1,0-2,2.32,2.32,0,0,1,1.76-.55,3.22,3.22,0,0,1,1,.32,1.23,1.23,0,0,1,.54.59,16.27,16.27,0,0,1,.39,1.63,9.47,9.47,0,0,0,1.08-1.78c-1.18-.25-.8-1.17-.94-1.84,0-.2.33-.57.61-.7a9.78,9.78,0,0,1,1.78-.59,1.46,1.46,0,0,1,.77.08,2.88,2.88,0,0,1,.93.4.87.87,0,0,1,.37.65,2.48,2.48,0,0,1-2.17,2.37h-.69l-.55,1.14c.39.15.69.3,1,.39a1.24,1.24,0,0,1,.83,1.88c-.1.17-.17.35-.27.51a2.63,2.63,0,0,1-2.66.48,18.35,18.35,0,0,1-1.36-1.25,3.84,3.84,0,0,0-1.95,1.18.59.59,0,0,0-.1.5,1.05,1.05,0,0,1-.21,1.21c-.09.09-.06.26-.11.39s-.13.38-.24.4c-.87.17-1.56,1-2.57.61a.76.76,0,0,0-.92.24c-.29.3-.57.61-.87.91a1.44,1.44,0,0,0-.43,1.62l.55-.38a.91.91,0,0,1,1.4.27,2.16,2.16,0,0,0,.59.53c.54.35.5.53.24,1.06-.43.88-1.28.81-2,.9a1.16,1.16,0,0,1-1-1.27,2.5,2.5,0,0,1,.19-.52c-.07-.08-.12-.17-.19-.2a5.28,5.28,0,0,0-.52-.2l-1.42,2.1a10.31,10.31,0,0,1,1.16.29c.31.12.56.36.86.51.5.27.6.68.18,1.07s-1,1.06-1.85.83c-.11,0-.27.08-.37.11a6.3,6.3,0,0,1-.05,1.9c-.17.52-.41,1-.61,1.56a.47.47,0,0,1-.3.27,2.21,2.21,0,0,0-.89.59,2.69,2.69,0,0,1-1.11.41c-.51.11-.7-.24-.91-.59a3.06,3.06,0,0,0-.48-.53.69.69,0,0,0-.78.45c-.27.72-.53,1.44-.8,2.15a.62.62,0,0,0,.26.78,1.47,1.47,0,0,1,.18,1.65s-.07.11-.11.12l-1.41.26c-.56.12-.74,0-1.12-.64a1.61,1.61,0,0,0-.52-.48c-.52-.31-.56-.69,0-1a2,2,0,0,0,1-.83c.07-.14.4-.21.61-.23a3.7,3.7,0,0,1,.75.1l.67-1.8a1.23,1.23,0,0,0-1.1-.09c-.37.15-.68.1-.81-.34a.66.66,0,0,0-.27-.38c-.56-.33-.41-1-.78-1.4-.06-.06,0-.27.09-.38a1.28,1.28,0,0,0,.32-1c0-.3.26-.37.54-.42a1.75,1.75,0,0,0,.7-.22c.53-.4.51-.42,1.11-.1l.31.15,1.07-.37.28,1.44,1.9-2.09c-.12-.12-.15-.19-.19-.19-.86,0-1.38-.34-1.4-1.21,0-.16-.22-.31-.33-.46a.82.82,0,0,1,.27-1.32c.19-.12.38-.24.58-.35A.82.82,0,0,1,140,113a1.68,1.68,0,0,0,.62.5,3.31,3.31,0,0,1,.74.88,3,3,0,0,0,.72-1.55l-1.61-.68c-.61-.23-1.22-.46-1.84-.67s-.88-.7-.35-1.15.92-1.23,1.86-1.22c.12,0,.24-.13.36-.21a1.14,1.14,0,0,1,1.87.53c.26.55.26.55.93.71l.67-2a2.94,2.94,0,0,0-1.49-.37c-.73,0-.84-.1-1.05-.78-.15-.51-.41-1,.39-1.29-.53-.76-.08-1.35.24-1.94a.75.75,0,0,1,.87-.39,6.65,6.65,0,0,0,.77.06c.15,0,.35,0,.42.08.45.48,1.36.59,1.35,1.48.88-1.63,2.21-3,2.25-5l-1,.17a1.93,1.93,0,0,1-2.41-1.5,5.88,5.88,0,0,0-.57-1.49c-.27-.52-.08-.91.55-.93a3.11,3.11,0,0,1,.6.09,13.13,13.13,0,0,1,1.55.21,5.22,5.22,0,0,1,1.25.51c.48.27.46.7.37,1.16a2.24,2.24,0,0,0,.13.75Zm-2.47,9.87c-.25-.44-.42-.74-.61-1-.08-.12-.21-.3-.32-.31a.52.52,0,0,0-.38.26c-.31.76-.59,1.53-.86,2.3a3,3,0,0,0-.08.65c.19,0,.35,0,.4,0C144.68,110.13,145.3,109.49,145.89,108.88Zm-4.29,8.47-.57-.59C140.81,117.39,140.81,117.4,141.6,117.35Zm-1.19-.84a1.22,1.22,0,0,0-.31.17s0,.13,0,.19a.71.71,0,0,0,.28-.09S140.42,116.65,140.41,116.51Z"/><path class="cls-1" d="M121.58,68.61a6.76,6.76,0,0,1-.17.78,22.41,22.41,0,0,0-1.19,8.06c0,4.93.23,9.86,0,14.78-.18,4.33.44,11.38.93,12.85,1.17,3.55,1.71,10.44,1.12,15.74-.08.72-.16,1.44-.26,2.15a2.45,2.45,0,0,1-.18.6.88.88,0,0,1-1,.58.69.69,0,0,1-.6-.8c.07-1.13.1-2.27.28-3.39a41,41,0,0,0-.3-13.39c-.29-1.67-.63-3.31-.8-5s0-3.64,0-5.46c0-.28,0-.55,0-.83q.15-10.18.28-20.36a16.91,16.91,0,0,1,1.37-6.07,1.65,1.65,0,0,1,.23-.33Z"/><path class="cls-1" d="M115.48,68.56a14.4,14.4,0,0,0,0,1.47q.75,7.56,1.52,15.12a75.85,75.85,0,0,1,0,15.51c-.56,5.14-1.14,10.27-1.71,15.4-.13,1.18-.22,2.37-.32,3.55s2,1.4,1.74.35c.09-1.29.53-3.52.46-4.81,0-5.3.49-9.19.88-14.25a57.18,57.18,0,0,0,.18-11.33c-.27-2.25-.57-4.5-.82-6.76-.48-4.31-.94-8.62-1.41-12.93,0-.45-.14-.89-.21-1.34Z"/><path class="cls-1" d="M114.22,88.14c0,.18-.49,9.17-.7,13.43-.15,3.2-.4,6.39-.55,9.59a29,29,0,0,0,1.57,11.73c.14.36.4.74-.16,1a.94.94,0,0,1-1.25-.52A15.25,15.25,0,0,1,112,120a41.56,41.56,0,0,1,0-12.25c.62-4.05.82-8.15,1.19-12.24.18-2,.54-4,.72-6,0-.45.06-.78.15-1.32C114,88.16,114.14,88.13,114.22,88.14Z"/><path class="cls-2" d="M55.76,78.94c.14-.33.23-.56.33-.78a.62.62,0,0,1,.84-.38,1.14,1.14,0,0,1,.57,1.1,3.16,3.16,0,0,1-.23,1,1.22,1.22,0,0,0,.27,1.38,15.56,15.56,0,0,1,1.15,1.4c.35.49.63,1,1,1.54a43.16,43.16,0,0,1,3.69,6.67A8,8,0,0,1,63.73,92c.08.33.16.74-.21.83s-.47-.26-.56-.56a21.58,21.58,0,0,0-2.13-4.37c-.85-1.45-1.8-2.82-2.7-4.22A1.29,1.29,0,0,0,57.07,83c-.42,0-.85-.11-1.27-.17a.71.71,0,0,1-.69-.56c-.1-.38.11-.53.33-.68a2.7,2.7,0,0,0,.3-.26,1.73,1.73,0,0,0-1.05-.73c-.61-.28-1.22-.5-1.81-.82a2.33,2.33,0,0,1-.76-.74c-.37-.53-.29-1,.21-1.19a2.71,2.71,0,0,1,2.78.53C55.3,78.51,55.49,78.69,55.76,78.94Z"/><path class="cls-2" d="M66.23,86.58c.11-.94.19-1.88.32-2.82s.26-1.57.4-2.36a1.61,1.61,0,0,0-1.14-1.83c-.92-.42-1.18-.91-.85-1.32s1.06-.33,1.82.18c.31.2.57.45,1,.79.27-.41.49-.76.7-1.1a5.45,5.45,0,0,1,3-2.38c.8-.27,1.36-.16,1.7.3s.2,1-.47,1.43a6.6,6.6,0,0,1-1.67.8,4,4,0,0,0-3.12,3.23c-.32,1.6-.68,3.21-1,4.81a1.19,1.19,0,0,1-.22.31Z"/><path class="cls-2" d="M62.83,80.82c0-.66,0-1.17,0-1.67a6.91,6.91,0,0,1,.74-3.63,3.65,3.65,0,0,1,.32-.54c.22-.28.4-.79.87-.47s.17.73,0,1c-1.18,1.71-1.19,3.64-1.12,5.6,0,.44,0,.44-.38.89-.13-.08-.32-.13-.41-.26A7.66,7.66,0,0,0,59,79.19a4.2,4.2,0,0,1-1-.54,2.59,2.59,0,0,1-.45-.68,1.77,1.77,0,0,1,2.25.36c.82.64,1.59,1.34,2.38,2C62.35,80.48,62.52,80.59,62.83,80.82Z"/><path class="cls-2" d="M67.73,93.53c-.09-.37-.19-.73-.28-1.1-.32-1.32-.59-2.65-1-4a3.8,3.8,0,0,0-2.81-3,6.15,6.15,0,0,1-1.45-.52,3.08,3.08,0,0,1-1-.79c-.48-.61-.24-1.35.42-1.39a2.42,2.42,0,0,1,1,.23,7.87,7.87,0,0,1,3.75,4.16,18.75,18.75,0,0,1,1.51,6,3,3,0,0,1,0,.42Z"/><rect class="cls-3" width="205.95" height="205.95"/></g></g></svg>