<svg xmlns="http://www.w3.org/2000/svg" viewBox="0 0 205.95 205.95"><defs><style>.cls-1{fill:none;}</style></defs><title>Bembel BounceAsset 32</title><g id="Layer_2" data-name="Layer 2"><g id="WEB"><path d="M120.67,113.45a3.9,3.9,0,0,1-.07-.93c-.07-1.1,1.45-1.66,2.57-2.11s1.47.14,2.33.86c.33.27,2.32,2.69,2.72,3.12a16.89,16.89,0,0,1,2.49,4.14,13,13,0,0,1,1.26,3.36,7.06,7.06,0,0,1-.06,2.38,1.74,1.74,0,0,1-2.88,1.15,9.58,9.58,0,0,1-1.52-1.65c-.58-.7-1.13-1.42-1.67-2.15a1.47,1.47,0,0,0-1.43-.68,1.66,1.66,0,0,1-2-1.35c-1.11.07-2.21.12-3.31.2a.55.55,0,0,0-.32.12,9.52,9.52,0,0,1-3.74,1.45c-2.86.79-5.71,1.61-8.57,2.4-.83.23-1.69.37-2.6.57,0,.43-.08.82-.07,1.21.08,2.93.16,5.86.27,8.79a20.87,20.87,0,0,0,.29,3.17,5.55,5.55,0,0,0,.86,1.65,6.23,6.23,0,0,0,.54.63c1,1.34,1,2.48.25,3.05a15.11,15.11,0,0,1-5.14,2.59,51.73,51.73,0,0,1-6.09.53,1.85,1.85,0,0,1-.46-.08c-.56-.14-1.07-.36-1.18-1s.53-1.16,1.26-1.45A18.71,18.71,0,0,0,97,141.84c.5-.4,3-2.13,2.69-3.33-.11-.46-.3-1-.38-1.43a2.91,2.91,0,0,0-.72-.18c-1.56-.25-1-.16-1.13-1.76-.36-3.18-.74-6.37-1.08-9.55a32.65,32.65,0,0,1-.16-6.55c.78-4.81,1.43-8.23,2.14-13.05.25-1.64.9-3.11,1.13-4.76.06-.43-.45-1.81.13-2.43-.38-.52-.35-.22-.9-.82a1.6,1.6,0,0,0-1-.27c-.71,0-1.43.07-2.14,0a1.18,1.18,0,0,0-1.29.77c-1,1.87-2.1,3.72-3.18,5.57a12.42,12.42,0,0,1-1.23,1.74,12,12,0,0,0-1.74,2.53,2.84,2.84,0,0,1-1.13,1.15c-1.81,1-3.81.94-5.79.81-.74,0-1-.62-.59-1.31.11-.2.25-.38.46-.69-.39-.21-.74-.38-1.06-.58-1.26-.78-2-1.87-.67-3.53,1.82-1.82,2.8-1.26,5.9-.09a.65.65,0,0,0,.83-.24c.2-.39.2-.75.36-1.14.72-1.8,1.47-3.59,2.12-5.41a11.22,11.22,0,0,0,.34-2.1,13.28,13.28,0,0,0,.24-1.76A3.67,3.67,0,0,0,88.92,92a3.54,3.54,0,0,1,.68-4.54c.07-.07.47-.35.2-.48s-.25.18-1.11.82a3.84,3.84,0,0,1-3.24.32c-.63-.25-1.1-.65-1.91-.48-.54.11-1.29,0-1.37-.71a10.23,10.23,0,0,1,0-1.66c.06-1.24-.1-3-1.61-3.2-.88-.31-1.35-.21-1.33-1.22a12.46,12.46,0,0,0-.38-1.61,2.34,2.34,0,0,1,1-2.39,1.72,1.72,0,0,0,.59-.93,6,6,0,0,1,2-3,1.72,1.72,0,0,1,.95-.43,1.47,1.47,0,0,0,1.3-.85,2.61,2.61,0,0,1,2.88-1.48c.19,0,1,0,1.27.44.63,1,1.41.67,2,1,.46.21.61.83.89,1.21a3.84,3.84,0,0,0,.86.8,2.7,2.7,0,0,1,.7,1.53,11.52,11.52,0,0,1,.32,2.24c1.69-1.57,3.31-2.91,5.72-2.2.42-.45.81-.91,1.57-.79.31,0,.69-.33,1-.53,1-.56,2-1.12,3-1.7a2.57,2.57,0,0,0,.71-.59,14.16,14.16,0,0,1,3.2-3c.81-.55,1.75-.92,2.59-1.44,1.42-.85,2.84-1.71,4.2-2.66a2.44,2.44,0,0,0,.87-1.36c.52-2.38,1.86-4.35,3-6.42A5.17,5.17,0,0,1,120,56a1.24,1.24,0,0,1,1.37-.47,1.11,1.11,0,0,1,.91,1.11,12.61,12.61,0,0,1-.07,2.13c-.13.9-.37,1.78-.55,2.67s-.32,1.63-.48,2.44a2.94,2.94,0,0,1-1.72,2.57c-2.18,1.78-4.29,3.78-6.47,5.56l-3.85,3.16a1.63,1.63,0,0,0-.38.45,14.21,14.21,0,0,1-4.14,4.52l-.91.75c1.32,1.85,2.7,3.58,3.86,5.45a21.82,21.82,0,0,1,2.81,5.21,9.43,9.43,0,0,0,1.13,2.83,33.49,33.49,0,0,0,3.11,3.55c.9,1,1.87,2.19,2.72,3.28s.71,2.75.43,4.18a11.85,11.85,0,0,1-1.86,4.6c-.47.68-1,1.34-1.48,2-.25.32-.53.61-.24,1s.7.29,1.08.21.83-.24,1.26-.33a1.55,1.55,0,0,1,1.81.5,1,1,0,0,0,.68.37C119.63,113.8,119.9,113.45,120.67,113.45ZM110,95.11a4.16,4.16,0,0,0-.7.08c-1,.26-1.89.6-2.85.8a11.65,11.65,0,0,0-4,1.81c-1.53,1-1.58,1.16-.78,2.77a10.09,10.09,0,0,1,1,5.88,37,37,0,0,1-.87,4.29c-.53,2-1.24,4-1.7,6.05a37,37,0,0,0-.67,4.93c-.09,1,.11,1.21,1.15,1.16a27.65,27.65,0,0,0,4.82-.5c3.65-.88,7.26-1.94,10.88-2.95,1-.29,1.12-.45,1.13-1.5a15.06,15.06,0,0,0,0-1.9c-.06-.57,0-1.2-.55-1.61-.77.14-1.5.34-2.24.42a10.16,10.16,0,0,0-3.61,1.06c-1.13.56-2.34,1-3.51,1.42a.77.77,0,0,1-1-.33.71.71,0,0,1,.3-1,5.74,5.74,0,0,1,1.05-.53c1-.39,1.93-.72,2.87-1.15a2.54,2.54,0,0,0,.93-.83c.66-.89,1.23-1.84,1.89-2.72a13.83,13.83,0,0,0,2.64-5.14,4.09,4.09,0,0,0-.81-4.11,36.72,36.72,0,0,1-2.32-2.94C112.28,97.48,110.87,96.28,110,95.11Zm-.45-1.57a24.15,24.15,0,0,0-2.31-4.85c-1.28-1.79-2.45-3.68-3.68-5.51a3,3,0,0,0-.7-.8,1.55,1.55,0,0,0-1-.3,1.62,1.62,0,0,1-1.61-.78,5.46,5.46,0,0,1-1.16-3.53c0-1.25-.6-1.71-1.8-1.32a3.25,3.25,0,0,0-1.26.63,31.27,31.27,0,0,0-2.46,2.56,1.78,1.78,0,0,0-.3,1.11c0,1.3,0,2.6,0,3.9,0,1.58,0,3.17,0,4.75,0,1.26-.64,1.76-1.83,1.37-.58-.19-1.39-1.51-1.83-1.1-.22.2.22.93.41,1.16.5.59,1.09,1.12,1.58,1.72.68.83,1.3,1.7,1.94,2.55A2.91,2.91,0,0,0,96,96.27a9.82,9.82,0,0,0,1.54-.06,2.58,2.58,0,0,1,2.45.9,5.75,5.75,0,0,0,.56.48C103.09,95.18,106.32,94.46,109.58,93.54ZM101.32,80.1a7.92,7.92,0,0,0,1.9-.77,13.83,13.83,0,0,0,4.09-4.08,4.13,4.13,0,0,1,.83-1.14C109.39,73,110.7,72,112,71c2.17-1.78,4.34-3.57,6.53-5.33a3.19,3.19,0,0,0,1.22-1.83c.35-1.58,1-2.85,1.3-4.44.11-.55.68-1.74-.1-2.18-.3-.17-.58.61-.44.34-1,1.85-2.48,2.71-2.57,5.71a3,3,0,0,1-1.26,1.86,22.58,22.58,0,0,1-4.58,3.32,17.58,17.58,0,0,0-2.48,1.37,8.13,8.13,0,0,0-2.9,2.75,1.7,1.7,0,0,1-.87.76c-1.7.54-3,1.74-4.5,2.63a1.36,1.36,0,0,0-.62.66A3.86,3.86,0,0,0,101.32,80.1Zm-18,6.23c.39.56,1.09.17,1.59.52a2.79,2.79,0,0,0,3.26,0,7.91,7.91,0,0,1,1.56-1.11c.54-.35,1.42.46,1.31,1,0,.27-.31.78-.33,1.05-.11,1.86,1.8,1.9,1.78,1.13a67,67,0,0,1-.17-6.79A2.69,2.69,0,0,0,91,79.75c-3,1-5.92,2-9.26,1.83C83.7,82.57,83,86,83.28,86.33ZM83,108.76a4.82,4.82,0,0,0,3.24-.49,1.77,1.77,0,0,0,.81-.81,13.77,13.77,0,0,1,1.74-2.52c1.23-1.79,2.34-3.66,3.46-5.53.47-.77.84-1.59,1.21-2.31l-2.9-3.91c-.09.71-.15,1.18-.21,1.63a20.23,20.23,0,0,1-.43,3c-.34,1.18-.9,2.28-1.35,3.42-.39,1-.73,1.93-1.17,2.86-.66,1.7-2.47.85-2.58.79-1.14-.32-3.41-1.92-4.28-.05-1.16,1.17-.11,1.34.5,1.71.2.12.43.21.64.32A2,2,0,0,1,83,108.76Zm19.28,15.8c-.64-.07-1.21-.15-1.79-.18-1.69-.09-2.23-.54-2.59-2.33a17.53,17.53,0,0,0-.09,2.32c.35,3.54.76,7.08,1.15,10.62a1.08,1.08,0,0,0,.17.34,5.79,5.79,0,0,0,3.4-.47ZM81.7,76.18c2.86,1,10,2,10.78,1,.35-.45,0-2.14-.52-2.81-.77-.92-.87-1.49-1.7-2-.65-.4-1.59-.24-1.88-.59-.67-.76-1.57-.54-2.25.22a6,6,0,0,0-.72,1.08,1.16,1.16,0,0,1-1,.68C82.75,73.76,82.34,75,81.7,76.18Zm48.56,48.06c2.4-1-1.33-6.63-3.31-9.49A16.44,16.44,0,0,0,124.7,112a1.61,1.61,0,0,0-2.24-.18c-1.28.72.07,3,1.29,4.09a2.49,2.49,0,0,1,.94,2.85c-.08.2-.15.4-.25.67a3.12,3.12,0,0,1,2.61,1.38c.55.77,1.15,1.5,1.73,2.25C129.16,123.54,129.51,124.56,130.26,124.24Zm-34.75,20a1.58,1.58,0,0,0,.59.34,7.82,7.82,0,0,0,2.05,0,17.83,17.83,0,0,0,6-2.07c1-.59,1.1-1.23.31-2a6.17,6.17,0,0,1-1.73-3.42,3.38,3.38,0,0,0-.26-.63c-.58.18-1.3.3-1.86.47.14.73.41,1.36.56,1.93.2.78,0,1.09-.64,1.89l-.92.74C98.39,142.41,96.78,143.38,95.51,144.25ZM88.53,79l0-.23c-.85-.12-1.71-.21-2.56-.36-1.29-.23-2.57-.47-3.84-.78a2,2,0,0,0-1.54.42c-.38.22-.45,1.09-.23,1.66s.59.42,1,.4l1.9-.07A20.56,20.56,0,0,0,88.53,79Zm30.54,36.09v3.27l4.4-.22a12,12,0,0,0-.68-1.21c-.26-.34-.65-.6-.87-1a1.8,1.8,0,0,0-2-.92C119.67,115.1,119.39,115.1,119.07,115.11ZM100.67,102c-.44,3.85-1.45,8.18-1.89,12a38.17,38.17,0,0,0,2.31-6,22.59,22.59,0,0,0,.27-4.12A4.13,4.13,0,0,0,100.67,102Z"/><path d="M85.71,83.94c.06-.48-1-.25-1.32-.1a.93.93,0,0,0-.41.56c.1.16.32.39.48.31S85.67,84.22,85.71,83.94Z"/><rect class="cls-1" width="205.95" height="205.95"/></g></g></svg>