<svg xmlns="http://www.w3.org/2000/svg" viewBox="0 0 205.95 205.95"><defs><style>.cls-1{opacity:0.99;}.cls-2{stroke:#000;stroke-miterlimit:10;stroke-width:0.72px;}.cls-3{fill:none;}</style></defs><title>Bembel BounceAsset 37</title><g id="Layer_2" data-name="Layer 2"><g id="WEB"><g class="cls-1"><path class="cls-2" d="M125.51,105l-1.5,2,1.52,1.85a3.39,3.39,0,0,1,.27,3.91,3.34,3.34,0,0,1-3.28,1.71c-.54-.06-1.09-.06-1.68-.09,0,.15,0,.26,0,.32,1.45,1.9.38,4.16-.67,5.35a1.82,1.82,0,0,1-1.1.53,18.57,18.57,0,0,1-2.11,0c-.29,1-.55,1.93-.86,2.88a2.78,2.78,0,0,1-3.87,1.6,15.89,15.89,0,0,0-1.7-.74c-.72-.24-.88-.16-1.31.45a5.11,5.11,0,0,0-.48.73,2.43,2.43,0,0,1-2.91,1.23c-.93-.17-1.84-.43-2.85-.66-.37.37-.79.77-1.18,1.19a2,2,0,0,1-2.22.58c-1.28-.38-2.56-.72-4.07-1.13a.87.87,0,0,1-.09.29,2.2,2.2,0,0,1-2,1.21,7.16,7.16,0,0,1-3-.32,3.9,3.9,0,0,1-2.7-3.3c-.08-.7-.09-1.41-.13-2.18a4.88,4.88,0,0,0-.56.34c-.72.62-1.45,1.22-2.13,1.87A5.11,5.11,0,0,1,81,126a3.29,3.29,0,0,1-2.66-1.62,2.32,2.32,0,0,1,.23-2.84c-.57-.22-1.09-.48-1.63-.63a19,19,0,0,0-6.61-1.07c-2.53.17-5.08.14-7.62.26-1.88.1-3.76.33-5.64.47-.64,0-1.29,0-2,.06-.06-.37-.13-.68-.17-1a121,121,0,0,1-.8-13.45c0-2.18,0-4.37.07-6.55a3.14,3.14,0,0,1,.14-1,.67.67,0,0,1,.89-.49,2.56,2.56,0,0,0,.67.08c2.73,0,5.47,0,8.2.12a43.35,43.35,0,0,0,9.71-.89,8.21,8.21,0,0,0,3.41-1.62c.94-.74,1.95-1.4,2.93-2.1a3,3,0,0,0,1.27-2.09,16.06,16.06,0,0,1,.71-2.43,2.31,2.31,0,0,1,1.64-1.55,25.71,25.71,0,0,0,5.11-2.42,34.66,34.66,0,0,0,2.83-2.07c1-.69,2-1.35,3-2a4.89,4.89,0,0,1,3-.62,28.08,28.08,0,0,0,5.65-.22c2.64-.4,5.3-.63,8-1a5.14,5.14,0,0,0,1.74-.56,51.28,51.28,0,0,0,9.76-7.12,26.08,26.08,0,0,0,4.08-4.19c.28-.41.56-.81.86-1.2.42-.56.53-.58,1.12-.29a8.41,8.41,0,0,1,1,.55c2.73,2,5.75,3.47,8.28,5.71,1.46,1.29,3,2.51,4.39,3.87A7.92,7.92,0,0,1,144,78.34c.45.92.3,1.38-.53,2s-1.68,1.24-2.5,1.87A62.53,62.53,0,0,0,133.91,89c-.81.84-1.6,1.71-2.36,2.6a9.76,9.76,0,0,0-2.19,4.52,2.36,2.36,0,0,1-.19.76c-.39.73-.06,1.18.49,1.66a14.44,14.44,0,0,1,1.21,1.37,7.18,7.18,0,0,0,1,1,1.85,1.85,0,0,1,.83,2.11c-.28,1-.66,1.86-1.83,2a1.22,1.22,0,0,0-.38.07A5.11,5.11,0,0,1,125.51,105ZM94.74,119.41a6.14,6.14,0,0,0-.49.65,2.1,2.1,0,0,1-1.63,1.26,6.7,6.7,0,0,1-1.55,0c-1.25-.16-1.26-.21-1.54-1.47,0-.11-.07-.22-.17-.52a4,4,0,0,0-.21.61c-.19,1.09-.44,2.17-.54,3.27a3.52,3.52,0,0,0,.91,3.07,4.68,4.68,0,0,0,4.47,1c.74-.15,1-.9.59-1.61a3.47,3.47,0,0,1-.27-2.18c.11-.71.2-1.42.28-2.13s.09-1.29.12-1.94v-.29l-.07,0Zm34.84-19.69a8,8,0,0,0-2.1-1.63,30.61,30.61,0,0,0-5.89-2,13.19,13.19,0,0,1-3.39-1.21,5,5,0,0,0-1.73-.63c-1.52-.18-3-.21-4.57-.37a56,56,0,0,1-6.09-.78c-2.23-.49-4.41-1.13-6.68-1.4a5.25,5.25,0,0,0-2.49.26L93.7,93a6.54,6.54,0,0,0-2.38,1.5c-.18.17-.41.32-.58.51a2.23,2.23,0,0,0-.48.67,11.46,11.46,0,0,1-6.06,6.57,3.32,3.32,0,0,1-3.55-.56,1.87,1.87,0,0,1-.63-2c.31-1.39.5-2.81.72-4.22a4.26,4.26,0,0,0,0-.75c-1.06.74-2.06,1.36-3,2.09a8.48,8.48,0,0,1-3.86,1.78,45.59,45.59,0,0,1-9,.85c-2.41-.07-4.82-.2-7.22-.27-.83,0-1.67.08-2.47.12-.45,3.3.2,18.88.86,20.54l.84-.11c1.91-.18,3.82-.42,5.73-.54,2.53-.15,5.07-.2,7.61-.33a15.76,15.76,0,0,1,5.87.77c2,.68,4,1.41,6,2.1a6,6,0,0,0,5.35-.36,1.33,1.33,0,0,0,.77-1c.12-.77.33-1.53.44-2.3a5.1,5.1,0,0,1,1.65-2.91,3.08,3.08,0,0,1,4.58.3c.13.17.28.32.47.53.39-.48.75-.9,1.1-1.32.62-.76,1.19-1.56,1.86-2.27a2.47,2.47,0,0,1,4.21.55c.5,1,.89,2,1.34,3,.11-.38.29-.76.9-.61l6.54,1.6a5.57,5.57,0,0,1,1.08.44c1.36.63,2.7,1.31,4.07,1.9a7.85,7.85,0,0,0,2,.52A1.39,1.39,0,0,0,120,119a12.56,12.56,0,0,0,.64-1.52,2.43,2.43,0,0,0-.54-2.45,9,9,0,0,0-.7-.81,2,2,0,0,0-.7-.48c-3.12-.92-6.24-1.84-9.37-2.72a16.22,16.22,0,0,1-4-1.53c-.28-.17-.51-.39-.34-.69a1,1,0,0,1,.64-.3.75.75,0,0,1,.53.19,6.09,6.09,0,0,0,2.48,1.1l5.9,1.74A46.91,46.91,0,0,1,119.4,113a9.55,9.55,0,0,0,3.71.58,2.14,2.14,0,0,0,2-1.49,2.34,2.34,0,0,0-.26-2.57,8,8,0,0,0-2.31-2.18,15.82,15.82,0,0,1-1.89-1.39,9.4,9.4,0,0,0-3.28-1.2c-3.89-1-7.6-2.7-11.54-3.6a1.7,1.7,0,0,1-.53-.24,1.58,1.58,0,0,1-.83-1.55.6.6,0,0,1,1-.48,2,2,0,0,1,.48.47,2.06,2.06,0,0,0,1.21.77c1.94.54,3.91,1,5.8,1.69a7.3,7.3,0,0,0,3.92.29,4.42,4.42,0,0,1,2.95.36,8,8,0,0,0,1.11.36c2,.66,4.08.89,6,1.82a2.06,2.06,0,0,0,1.83,0c-1.82-.49-2.63-1.51-2.09-3.34C127.07,99.85,128.31,100,129.58,99.72ZM90.52,94.2c.33-.26.54-.45.78-.61a11.88,11.88,0,0,1,1.79-1.16c1.25-.55,2.53-1,3.83-1.47a4,4,0,0,1,1.72-.19c1.55.18,3.09.44,4.62.73s2.9.8,4.38,1c2.71.34,5.43.54,8.16.73a6.25,6.25,0,0,1,2.79.79,12.7,12.7,0,0,0,3.11,1.12c1,.27,1.94.53,2.9.84,1.17.38,2.32.8,3.49,1.21a3.56,3.56,0,0,0,.2-.42,3.84,3.84,0,0,0,.16-.67A9.91,9.91,0,0,1,131,90.79c1.61-1.79,3.29-3.53,4.95-5.27a37.15,37.15,0,0,1,6.12-5.29c.22-.15.4-.35.62-.49a.79.79,0,0,0,.25-1.18A7.22,7.22,0,0,0,141.81,77c-1.72-1.54-3.48-3-5.26-4.5a35.88,35.88,0,0,0-3-2.21c-1.29-.87-2.63-1.69-4-2.51-.4-.25-.83-.45-1.28-.68a22.72,22.72,0,0,1-1.47,2c-1.1,1.15-2.25,2.26-3.41,3.35a55.48,55.48,0,0,1-9.72,7.18,6.82,6.82,0,0,1-2.87.85c-1.23.11-2.46.27-3.69.42-3.22.4-6.42,1.08-9.71.72a4.15,4.15,0,0,0-2.71.64,22.37,22.37,0,0,0-2.34,1.59,26.54,26.54,0,0,1-8.26,4.72,2.19,2.19,0,0,0-1.12.85,15.5,15.5,0,0,0-1.29,4.89,11.81,11.81,0,0,1,1.62-.32c.86-.07,1.21.29,1.15,1.15s-.18,1.55-.24,2.33a8.53,8.53,0,0,1-.93,3,1.22,1.22,0,0,1-1,.76,3.87,3.87,0,0,0-.59.18,1.91,1.91,0,0,0,2,.15,10.79,10.79,0,0,0,5.12-4.91,4,4,0,0,0,.38-3.38,18,18,0,0,1-.58-2.06c-.08-.3,0-.6.33-.7s.45.15.54.42c.18.58.37,1.17.54,1.76S90.37,93.57,90.52,94.2ZM97,115.9a1.9,1.9,0,0,0-1.16,1.95c-.2,2-.41,4-.6,6a1.59,1.59,0,0,0,.13.84,3,3,0,0,0,1.89,1.56L100,127a1.07,1.07,0,0,0,1.1-.21c.38-.35.75-.71,1.16-1.1-1.09-.94-1.15-2.22-1.28-3.49s.58-2.41.92-3.62a.69.69,0,0,0-.37.28,3,3,0,0,1-3.56,1,2,2,0,0,1-1.27-2.63A11.18,11.18,0,0,0,97,115.9Zm11.73,7a22.58,22.58,0,0,1,2.19.56c.7.24,1.35.64,2,.92a2,2,0,0,0,2.09-.66,9.57,9.57,0,0,0,1.05-3.46,29.2,29.2,0,0,0-10.1-3.62c.21.85.84,1.18,1.36,1.61a3.51,3.51,0,0,1,1.47,3.84A8.15,8.15,0,0,0,108.75,123Zm-2.62-4.53c-.1.42-.21.78-.28,1.15s-.11,1-.22,1.44c-.27,1.19-.61,1.52-1.84,1.64a12.36,12.36,0,0,1-1.72-.05c-.13,1.49.23,2.14,1.57,2.62.73.26,1.51.39,2.26.6a1.66,1.66,0,0,0,2.27-1.23c-.59-.12-.64-.54-.54-1,.13-.64.25-1.28.38-1.91a2.23,2.23,0,0,0-.28-1.69A4.24,4.24,0,0,0,106.13,118.42Zm-6.57-4.85c-.51.1-1,.19-1.19.74-.35,1.08-.7,2.16-1,3.26a1.27,1.27,0,0,0,1,1.51A2,2,0,0,0,101,118a9.6,9.6,0,0,0,.7-3.3.79.79,0,0,0-.7-.91C100.52,113.68,100,113.64,99.56,113.57Zm-5.23,2.59a3.9,3.9,0,0,0-.44-.48,1.79,1.79,0,0,0-2.9.4,5.61,5.61,0,0,0-.61,4,.67.67,0,0,0,.43.44c1.44.29,2.59.1,2.93-1.51.06-.31.11-.64.18-1C94,117.49,94.17,116.89,94.33,116.16Zm34.46-15.37a2.85,2.85,0,0,0-.35.08,1.61,1.61,0,0,0-1.12,1.44c-.07.68.45.88.9,1.1s1,.45,1.52.65c.88.34,1.46.18,1.84-.51a1.49,1.49,0,0,0-.45-2.19A3.79,3.79,0,0,0,128.79,100.79Zm-49.3,21a1.63,1.63,0,0,0,.14,2.61c1.22,1.17,4.41.5,5.26-1.3C82.89,123.42,81.24,122.48,79.49,121.84Zm1.45-21.73c1,.35,1.34.31,1.61-.18a10.77,10.77,0,0,0,1-5.13c-.67.22-1.19.36-1.69.56a.63.63,0,0,0-.28.46C81.35,97.23,81.16,98.64,80.94,100.11Zm22.65,21.62c.87-.12,1-.23,1.18-1s.37-1.3.54-2a3.41,3.41,0,0,0,.15-.76.94.94,0,0,0-1.41-.88,1.37,1.37,0,0,0-.62.59c-.35,1.11-.67,2.23-.94,3.36-.1.42.19.66.62.69C103.3,121.75,103.5,121.73,103.59,121.73Zm12.87-18.56,0,.25a14.91,14.91,0,0,0,1.92.55,7.44,7.44,0,0,1,3.33,1.54l1.53,1.15,1.38-1.93-1-.27c-1.38-.38-2.79-.68-4.12-1.18A5,5,0,0,0,116.46,103.17Zm-14.18,14.09a1,1,0,0,0,.2-1.37ZM101,112.8c-.5-.42-.5-.42-1.08-.11Z"/></g><rect class="cls-3" width="205.95" height="205.95"/></g></g></svg>