<svg xmlns="http://www.w3.org/2000/svg" viewBox="0 0 205.95 205.95"><defs><style>.cls-1{fill:#ccc;}.cls-2{fill:none;}</style></defs><title>FARBIG Bembel BounceAsset 46</title><g id="Layer_2" data-name="Layer 2"><g id="WEB"><path class="cls-1" d="M70.3,108s7,5.67,14,6.63L86.53,112s8,3.62,12.21,6.72c2.44,1.82,10.71,10.5,25.16,10.69s23.48-1.16,29.87-5.24c1.23-.78,3.48-3.54,3.42-4.7-.06-1.46-.4-5.47-1.81-7.59s-2.51-4.14-13.68-6.45S108.63,82.5,108,82.09c-5.82-3.72-6.72,5.08-19.87.62-13.52-4.6-10.35-6.76-12.37-6s-3.71,1.7-3.93,2.66a14.5,14.5,0,0,1-1,4.88c-2.48,5.1-.45,12.77-.33,14.62,0,.49-1.13,1-1.16,1.51A59.38,59.38,0,0,0,70.3,108Z"/><rect class="cls-2" width="205.95" height="205.95"/></g></g></svg>