<svg xmlns="http://www.w3.org/2000/svg" viewBox="0 0 205.95 205.95"><defs><style>.cls-1{fill:silver;}.cls-2{fill:none;}</style></defs><title>FARBIG Bembel BounceAsset 50</title><g id="Layer_2" data-name="Layer 2"><g id="WEB"><path class="cls-1" d="M84.3,108.33c-.36-5.45,1.29-11.21-.4-15.6s-4-6.08-3.3-11.27c.52-3.95,2.23-7.33,5.87-9.07,1.93-.92,4.24-.46,6.14-1.32,2.06-.94,2.89-2.82,5.29-3.34,4.17-.9,18.88-.86,24.57,4.06,2,1.71-1,5.2-1.49,7.86-.81,4,4.94,8.81,6.62,12.11,4.29,8.41,4.12,17.43.89,26.2-2.34,6.36-9.73,19.49-11,19.87-4.37,1.32-23.7,1.32-25.79-1.66C86.77,129.12,84.85,116.67,84.3,108.33Zm8.93-26.61c-.3-5.93-10.85-.21-7.53,5.79C88.89,93.28,93.43,85.46,93.23,81.72Z"/><rect class="cls-2" width="205.95" height="205.95"/></g></g></svg>