<svg xmlns="http://www.w3.org/2000/svg" viewBox="0 0 205.95 205.95"><defs><style>.cls-1{fill:#ff6d65;}.cls-2{fill:none;}</style></defs><title>FARBIG Bembel BounceAsset 48</title><g id="Layer_2" data-name="Layer 2"><g id="WEB"><path class="cls-1" d="M132.54,75.14c2.94-2.19,10.82,13.77,8.85,20.16s-2.46,22.12-2,24.08-5.82,2.71-7.87,2.46a36.47,36.47,0,0,1-4.67-1.43s.3-14.63-3-12.71-11.59,12-17.31,16.6c-3.67,3-27.19,9.06-48.61,5.76,0,0-3.23-11.07,7.69-12.63,5.77-.82,8.88-1.94,12.64-4.12,11.4-6.59,9.44-23.83,14.22-24.45C120.16,85.28,128.17,78.41,132.54,75.14Z"/><rect class="cls-2" width="205.95" height="205.95"/></g></g></svg>