<svg xmlns="http://www.w3.org/2000/svg" viewBox="0 0 205.95 205.95"><defs><style>.cls-1{fill:#89d3e6;}.cls-2{fill:none;}</style></defs><title>FARBIG Bembel BounceAsset 47</title><g id="Layer_2" data-name="Layer 2"><g id="WEB"><path class="cls-1" d="M134.39,124c-12.73,0-56.35-1-61.71-1-6.12,0-10.74-1.22-11.74-4.19-3.46-10.24.81-20.06,8.61-21.14a21.29,21.29,0,0,1,11.67,2,33.13,33.13,0,0,1,6.21-8.95C92,86,98.38,81.53,109,82c5.92.28,17.84.44,26.41,9.36,4.09,4.26,5.24,14.87,5.24,14.87s11.72-2.19,15.58,4.66c1.52,2.7,1.13,6.6-1,10C153.43,123.82,142.31,124,134.39,124Z"/><rect class="cls-2" width="205.95" height="205.95"/></g></g></svg>