<svg xmlns="http://www.w3.org/2000/svg" viewBox="0 0 1263.66 1807.32"><defs><style>.a{fill:none;}.b{fill:#fee389;}.c{fill:#ff6e66;}.d{fill:#89d3e6;}.e{fill:silver;}</style></defs><title>Element 27</title><rect class="a" x="59.65" y="28.91" width="1174.36" height="1736.77"/><path class="b" d="M1161.23,1766.33c1-4.84,23-29.66,26.27-29.56,4.6.15,16.41,33.61,15.26,39.72-1.21,6.44-24.86,31.7-28.22,30.81C1170.32,1806.18,1160.92,1774,1161.23,1766.33Z"/><path class="c" d="M769.93,1653.51c-1.14-8.92,7.76-12.17,14.62-9.81,9,3.08,9,8.79,17.11,1.1,4.14-3.94,10.22-11.28,16.9-7.61,6.43,3.54,5,17.29,3.16,22.58-3.66,10.59-16.66,31.51-29,24.27S770.05,1667.47,769.93,1653.51Z"/><path class="d" d="M1004.6,1651.29s19.59,11.86,34.62-16.9c0,0,17.13,10,36.72-5.86l2.72,20.55s-9.71,14.1-31.33,9.92a32.21,32.21,0,0,1-27.47,15.54Z"/><path class="b" d="M574.05,1766.33c1-4.84,23-29.66,26.27-29.56,4.6.15,16.41,33.61,15.26,39.72-1.21,6.44-24.86,31.7-28.22,30.81C583.14,1806.18,573.74,1774,574.05,1766.33Z"/><path class="c" d="M182.75,1653.51c-1.14-8.92,7.76-12.17,14.62-9.81,9,3.08,9,8.79,17.11,1.1,4.14-3.94,10.22-11.28,16.9-7.61,6.43,3.54,5,17.29,3.16,22.58-3.67,10.59-16.66,31.51-28.95,24.27S182.87,1667.47,182.75,1653.51Z"/><path class="d" d="M417.42,1651.29s19.59,11.86,34.61-16.9c0,0,17.14,10,36.73-5.86l2.72,20.55s-9.71,14.1-31.34,9.92a32.18,32.18,0,0,1-27.46,15.54Z"/><path class="d" d="M941.54,1439.44c-10.36,0-45.86-.74-50.23-.74-5,0-8.74-.92-9.55-3.18-2.81-7.77.66-15.22,7-16a18.45,18.45,0,0,1,9.5,1.5,25,25,0,0,1,5.05-6.8,22.42,22.42,0,0,1,17.55-6.58c4.81.21,14.52.34,21.49,7.11,3.33,3.23,4.27,11.28,4.27,11.28s9.54-1.66,12.68,3.54c1.24,2,.92,5-.79,7.57C957,1439.33,948,1439.44,941.54,1439.44Z"/><path class="e" d="M1122.72,1472.26c-.29-4.42,1-9.09-.33-12.65s-3.23-4.93-2.67-9.14c.43-3.19,1.81-5.94,4.76-7.35,1.56-.75,3.44-.37,5-1.07s2.34-2.29,4.29-2.71c3.38-.73,15.3-.7,19.92,3.29,1.6,1.39-.78,4.22-1.21,6.38-.66,3.27,4,7.14,5.37,9.82,3.48,6.81,3.34,14.13.72,21.24-1.9,5.15-7.89,15.8-8.92,16.11-3.54,1.07-19.22,1.07-20.91-1.35C1124.72,1489.12,1123.16,1479,1122.72,1472.26Zm7.24-21.58c-.24-4.8-8.8-.17-6.1,4.7C1126.44,1460.06,1130.13,1453.72,1130,1450.68Z"/><path class="c" d="M916.73,1219.31c-1.14-8.91,7.75-12.16,14.61-9.81,9,3.09,9,8.8,17.12,1.11,4.14-3.94,10.22-11.28,16.89-7.61,6.43,3.53,5,17.29,3.17,22.57-3.67,10.59-16.66,31.52-29,24.28S916.84,1233.27,916.73,1219.31Z"/><path class="d" d="M1151.39,1217.09S1171,1229,1186,1200.19c0,0,17.13,10,36.73-5.86l2.71,20.56s-9.7,14.09-31.33,9.92c0,0-7.86,15.09-27.47,15.54Z"/><path class="b" d="M720.84,1332.14c1-4.85,22.95-29.67,26.28-29.56,4.59.15,16.4,33.6,15.25,39.72-1.21,6.43-24.85,31.7-28.21,30.8C729.94,1372,720.53,1339.85,720.84,1332.14Z"/><path class="d" d="M354.36,1439.44c-10.37,0-45.86-.74-50.23-.74-5,0-8.74-.92-9.55-3.18-2.82-7.77.66-15.22,7-16a18.47,18.47,0,0,1,9.51,1.5,25,25,0,0,1,5.05-6.8,22.4,22.4,0,0,1,17.54-6.58c4.82.21,14.52.34,21.5,7.11,3.33,3.23,4.27,11.28,4.27,11.28s9.54-1.66,12.68,3.54c1.24,2,.92,5-.79,7.57C369.86,1439.33,360.81,1439.44,354.36,1439.44Z"/><path class="e" d="M535.54,1472.26c-.29-4.42,1.05-9.09-.33-12.65s-3.23-4.93-2.67-9.14c.42-3.19,1.81-5.94,4.76-7.35,1.56-.75,3.44-.37,5-1.07s2.34-2.29,4.29-2.71c3.37-.73,15.3-.7,19.92,3.29,1.6,1.39-.78,4.22-1.21,6.38-.66,3.27,4,7.14,5.37,9.82,3.48,6.81,3.34,14.13.72,21.24-1.9,5.15-7.89,15.8-8.92,16.11-3.54,1.07-19.22,1.07-20.91-1.35C537.54,1489.12,536,1479,535.54,1472.26Zm7.24-21.58c-.25-4.8-8.8-.17-6.1,4.7C539.26,1460.06,543,1453.72,542.78,1450.68Z"/><path class="c" d="M329.55,1219.31c-1.14-8.91,7.75-12.16,14.61-9.81,9,3.09,9,8.8,17.11,1.11,4.15-3.94,10.22-11.28,16.9-7.61,6.43,3.53,5,17.29,3.17,22.57-3.67,10.59-16.66,31.52-29,24.28S329.66,1233.27,329.55,1219.31Z"/><path class="d" d="M564.21,1217.09s19.59,11.86,34.62-16.9c0,0,17.13,10,36.73-5.86l2.71,20.56s-9.7,14.09-31.33,9.92c0,0-7.86,15.09-27.47,15.54Z"/><path class="b" d="M133.66,1332.14c1-4.85,23-29.67,26.28-29.56,4.59.15,16.4,33.6,15.25,39.72-1.21,6.43-24.85,31.7-28.22,30.8C142.76,1372,133.35,1339.85,133.66,1332.14Z"/><path class="d" d="M1088.34,1005.25c-10.37,0-45.87-.74-50.23-.74-5,0-8.74-.93-9.56-3.18-2.81-7.78.66-15.23,7-16.05a18.47,18.47,0,0,1,9.5,1.49,25,25,0,0,1,5.06-6.79,22.38,22.38,0,0,1,17.54-6.58c4.82.21,14.52.33,21.5,7.1,3.32,3.23,4.27,11.29,4.27,11.29s9.53-1.66,12.68,3.53c1.23,2,.91,5-.79,7.58C1103.83,1005.14,1094.78,1005.25,1088.34,1005.25Z"/><path class="c" d="M1063.52,785.12c-1.14-8.92,7.76-12.17,14.62-9.81,9,3.08,9,8.79,17.11,1.1,4.14-3.94,10.22-11.27,16.9-7.6,6.43,3.53,5,17.28,3.16,22.57-3.66,10.59-16.66,31.52-29,24.28S1063.64,799.08,1063.52,785.12Z"/><path class="b" d="M867.64,898c1-4.85,23-29.67,26.27-29.56,4.6.15,16.41,33.6,15.26,39.71-1.21,6.44-24.86,31.7-28.22,30.81C876.73,937.79,867.33,905.65,867.64,898Z"/><path class="d" d="M501.16,1005.25c-10.37,0-45.87-.74-50.24-.74-5,0-8.73-.93-9.55-3.18-2.81-7.78.66-15.23,7-16.05a18.5,18.5,0,0,1,9.5,1.49,25,25,0,0,1,5.06-6.79,22.38,22.38,0,0,1,17.54-6.58c4.82.21,14.52.33,21.5,7.1,3.32,3.23,4.27,11.29,4.27,11.29s9.53-1.66,12.67,3.53c1.24,2,.92,5-.78,7.58C516.65,1005.14,507.6,1005.25,501.16,1005.25Z"/><path class="e" d="M682.33,1038.06c-.29-4.41,1-9.08-.32-12.64s-3.24-4.93-2.68-9.14c.43-3.2,1.81-5.94,4.77-7.36,1.56-.74,3.43-.36,5-1.07s2.35-2.28,4.29-2.7c3.38-.73,15.31-.7,19.92,3.29,1.61,1.39-.78,4.21-1.21,6.37-.65,3.28,4,7.14,5.37,9.82,3.48,6.82,3.34,14.14.73,21.24-1.9,5.16-7.9,15.81-8.92,16.12-3.55,1.07-19.22,1.07-20.92-1.35C684.34,1054.93,682.78,1044.83,682.33,1038.06Zm7.24-21.57c-.24-4.81-8.79-.17-6.1,4.7C686.06,1025.86,689.74,1019.52,689.57,1016.49Z"/><path class="c" d="M476.34,785.12C475.2,776.2,484.1,773,491,775.31c9,3.08,9,8.79,17.11,1.1,4.14-3.94,10.22-11.27,16.9-7.6,6.43,3.53,5,17.28,3.16,22.57-3.66,10.59-16.66,31.52-28.95,24.28S476.46,799.08,476.34,785.12Z"/><path class="d" d="M711,782.9s19.59,11.86,34.62-16.9c0,0,17.13,10,36.72-5.86l2.72,20.55s-9.71,14.1-31.34,9.93c0,0-7.86,15.08-27.46,15.54Z"/><path class="b" d="M280.46,898c1-4.85,23-29.67,26.27-29.56,4.59.15,16.4,33.6,15.26,39.71-1.21,6.44-24.86,31.7-28.22,30.81C289.55,937.79,280.14,905.65,280.46,898Z"/><path class="e" d="M95.15,1038.06c-.29-4.41,1-9.08-.32-12.64s-3.24-4.93-2.68-9.14c.43-3.2,1.81-5.94,4.77-7.36,1.55-.74,3.43-.36,5-1.07s2.35-2.28,4.29-2.7c3.38-.73,15.31-.7,19.92,3.29,1.61,1.39-.78,4.21-1.21,6.37-.65,3.28,4,7.14,5.37,9.82,3.48,6.82,3.34,14.14.72,21.24-1.89,5.16-7.89,15.81-8.91,16.12-3.55,1.07-19.22,1.07-20.92-1.35C97.16,1054.93,95.6,1044.83,95.15,1038.06Zm7.24-21.57c-.24-4.81-8.79-.17-6.1,4.7C98.88,1025.86,102.56,1019.52,102.39,1016.49Z"/><path class="d" d="M123.82,782.9s19.6,11.86,34.62-16.9c0,0,17.14,10,36.73-5.86l2.72,20.55s-9.71,14.1-31.34,9.93c0,0-7.86,15.08-27.46,15.54Z"/><path class="d" d="M1235.13,571.06c-10.36,0-45.86-.74-50.23-.74-5,0-8.73-.93-9.55-3.18-2.81-7.78.66-15.23,7-16a18.39,18.39,0,0,1,9.5,1.49,25.18,25.18,0,0,1,5.05-6.8,22.42,22.42,0,0,1,17.55-6.57c4.81.2,14.52.33,21.49,7.1,3.33,3.23,4.27,11.28,4.27,11.28s9.54-1.66,12.68,3.54c1.24,2,.92,5-.79,7.57C1250.63,570.94,1241.58,571.06,1235.13,571.06Z"/><path class="c" d="M1210.32,350.92c-1.14-8.91,7.75-12.16,14.61-9.81,9,3.09,9,8.8,17.12,1.11,4.14-3.94,10.22-11.28,16.89-7.61,6.43,3.54,5,17.29,3.17,22.58-3.67,10.58-16.66,31.51-29,24.27S1210.43,364.89,1210.32,350.92Z"/><path class="b" d="M1014.43,463.75c1-4.84,23-29.66,26.28-29.56,4.59.15,16.4,33.61,15.25,39.72-1.21,6.43-24.85,31.7-28.21,30.8C1023.53,503.6,1014.12,471.46,1014.43,463.75Z"/><path class="d" d="M648,571.06c-10.36,0-45.86-.74-50.23-.74-5,0-8.74-.93-9.55-3.18-2.82-7.78.66-15.23,7-16a18.41,18.41,0,0,1,9.51,1.49,25.18,25.18,0,0,1,5.05-6.8,22.42,22.42,0,0,1,17.55-6.57c4.81.2,14.52.33,21.49,7.1,3.33,3.23,4.27,11.28,4.27,11.28s9.54-1.66,12.68,3.54c1.24,2,.92,5-.79,7.57C663.45,570.94,654.4,571.06,648,571.06Z"/><path class="e" d="M829.13,603.87c-.29-4.42,1-9.09-.33-12.64s-3.23-4.94-2.67-9.14c.43-3.2,1.81-5.94,4.76-7.36,1.56-.74,3.44-.37,5-1.07s2.34-2.29,4.29-2.71c3.37-.72,15.3-.7,19.92,3.29,1.6,1.39-.78,4.22-1.21,6.38-.66,3.27,4,7.14,5.37,9.82,3.48,6.82,3.34,14.13.72,21.24-1.9,5.16-7.89,15.8-8.92,16.11-3.54,1.07-19.22,1.07-20.91-1.35C831.13,620.73,829.57,610.64,829.13,603.87Zm7.24-21.57c-.25-4.81-8.8-.17-6.1,4.69C832.85,591.67,836.54,585.33,836.37,582.3Z"/><path class="c" d="M623.14,350.92c-1.14-8.91,7.75-12.16,14.61-9.81,9,3.09,9,8.8,17.12,1.11,4.14-3.94,10.21-11.28,16.89-7.61,6.43,3.54,5,17.29,3.17,22.58-3.67,10.58-16.66,31.51-29,24.27S623.25,364.89,623.14,350.92Z"/><path class="d" d="M857.8,348.71s19.59,11.86,34.62-16.9c0,0,17.13,10,36.73-5.86l2.71,20.55s-9.7,14.09-31.33,9.92c0,0-7.86,15.09-27.47,15.54Z"/><path class="b" d="M427.25,463.75c1-4.84,22.95-29.66,26.28-29.56,4.59.15,16.4,33.61,15.25,39.72-1.21,6.43-24.85,31.7-28.22,30.8C436.35,503.6,426.94,471.46,427.25,463.75Z"/><path class="d" d="M60.77,571.06c-10.37,0-45.86-.74-50.23-.74-5,0-8.74-.93-9.55-3.18-2.82-7.78.65-15.23,7-16a18.41,18.41,0,0,1,9.51,1.49,25.18,25.18,0,0,1,5.05-6.8,22.39,22.39,0,0,1,17.54-6.57c4.82.2,14.52.33,21.5,7.1,3.33,3.23,4.27,11.28,4.27,11.28s9.54-1.66,12.68,3.54c1.23,2,.92,5-.79,7.57C76.27,570.94,67.21,571.06,60.77,571.06Z"/><path class="e" d="M242,603.87c-.29-4.42,1.05-9.09-.33-12.64s-3.23-4.94-2.67-9.14c.42-3.2,1.81-5.94,4.76-7.36,1.56-.74,3.44-.37,5-1.07S251,571.37,253,571c3.37-.72,15.3-.7,19.92,3.29,1.6,1.39-.78,4.22-1.21,6.38-.66,3.27,4,7.14,5.37,9.82,3.48,6.82,3.33,14.13.72,21.24-1.9,5.16-7.89,15.8-8.92,16.11-3.54,1.07-19.22,1.07-20.91-1.35C244,620.73,242.39,610.64,242,603.87Zm7.24-21.57c-.25-4.81-8.8-.17-6.1,4.69C245.67,591.67,249.35,585.33,249.19,582.3Z"/><path class="c" d="M36,350.92c-1.14-8.91,7.76-12.16,14.62-9.81,9,3.09,9,8.8,17.11,1.11,4.15-3.94,10.22-11.28,16.9-7.61,6.43,3.54,5,17.29,3.17,22.58-3.67,10.58-16.66,31.51-29,24.27S36.07,364.89,36,350.92Z"/><path class="d" d="M270.62,348.71s19.59,11.86,34.62-16.9c0,0,17.13,10,36.73-5.86l2.71,20.55s-9.7,14.09-31.33,9.92c0,0-7.86,15.09-27.47,15.54Z"/><path class="b" d="M1161.23,29.56c1-4.85,23-29.67,26.27-29.56,4.6.15,16.41,33.6,15.26,39.72-1.21,6.43-24.86,31.69-28.22,30.8C1170.32,69.4,1160.92,37.27,1161.23,29.56Z"/><path class="d" d="M794.75,136.86c-10.37,0-45.87-.74-50.23-.74-5,0-8.74-.92-9.56-3.18-2.81-7.77.66-15.22,7-16a18.45,18.45,0,0,1,9.5,1.5,24.93,24.93,0,0,1,5.06-6.8A22.38,22.38,0,0,1,774.07,105c4.82.21,14.52.33,21.5,7.11,3.32,3.22,4.27,11.28,4.27,11.28s9.53-1.66,12.67,3.54c1.24,2,.92,5-.78,7.57C810.24,136.75,801.19,136.86,794.75,136.86Z"/><path class="e" d="M975.92,169.68c-.29-4.42,1.05-9.09-.32-12.65s-3.24-4.93-2.68-9.14c.43-3.2,1.81-5.94,4.77-7.35,1.56-.75,3.43-.37,5-1.07s2.35-2.29,4.29-2.71c3.38-.73,15.31-.7,19.92,3.29,1.61,1.39-.78,4.22-1.21,6.38-.65,3.27,4,7.14,5.38,9.82,3.47,6.81,3.33,14.13.72,21.23-1.9,5.16-7.9,15.81-8.92,16.12-3.55,1.07-19.22,1.07-20.91-1.35C977.93,186.54,976.37,176.44,975.92,169.68Zm7.24-21.58c-.24-4.8-8.79-.17-6.1,4.7C979.65,157.48,983.33,151.13,983.16,148.1Z"/><path class="b" d="M574.05,29.56C575,24.71,597-.11,600.32,0c4.6.15,16.41,33.6,15.26,39.72-1.21,6.43-24.86,31.69-28.22,30.8C583.14,69.4,573.74,37.27,574.05,29.56Z"/><path class="d" d="M207.57,136.86c-10.37,0-45.87-.74-50.24-.74-5,0-8.73-.92-9.55-3.18-2.81-7.77.66-15.22,7-16a18.45,18.45,0,0,1,9.5,1.5,24.93,24.93,0,0,1,5.06-6.8A22.38,22.38,0,0,1,186.89,105c4.82.21,14.52.33,21.49,7.11,3.33,3.22,4.28,11.28,4.28,11.28s9.53-1.66,12.67,3.54c1.24,2,.92,5-.78,7.57C223.06,136.75,214,136.86,207.57,136.86Z"/><path class="e" d="M388.74,169.68c-.29-4.42,1.05-9.09-.32-12.65s-3.24-4.93-2.68-9.14c.43-3.2,1.81-5.94,4.77-7.35,1.55-.75,3.43-.37,5-1.07s2.35-2.29,4.29-2.71c3.38-.73,15.31-.7,19.92,3.29,1.61,1.39-.78,4.22-1.21,6.38-.65,3.27,4,7.14,5.37,9.82,3.48,6.81,3.34,14.13.73,21.23-1.9,5.16-7.9,15.81-8.92,16.12-3.55,1.07-19.22,1.07-20.92-1.35C390.75,186.54,389.19,176.44,388.74,169.68ZM396,148.1c-.24-4.8-8.79-.17-6.1,4.7C392.47,157.48,396.15,151.13,396,148.1Z"/></svg>