<svg xmlns="http://www.w3.org/2000/svg" viewBox="0 0 552.66 817.15"><title>Element 1</title><path d="M352.52,785.12c-1.14-8.92,7.76-12.12,14.66-9.81,9,3.08,9,8.79,17.11,1.1,4.14-3.94,10.22-11.27,16.9-7.6,6.43,3.53,5,17.28,3.16,22.57-3.66,10.59-16.66,31.52-29,24.28S352.64,799.08,352.52,785.12Z"/><path d="M0,782.9S19.6,794.76,34.62,766c0,0,17.14,10,36.73-5.86l2.72,20.55s-9.71,14.1-31.34,9.93c0,0-7.86,15.08-27.46,15.54Z"/><path d="M524.18,571.06c-10.36,0-45.86-.74-50.23-.74-5,0-8.74-.93-9.55-3.18-2.82-7.78.66-15.23,7-16a18.37,18.37,0,0,1,9.51,1.49,25.14,25.14,0,0,1,5-6.8,22.4,22.4,0,0,1,17.55-6.57c4.81.2,14.52.33,21.49,7.1,3.33,3.23,4.27,11.28,4.27,11.28s9.54-1.66,12.68,3.54c1.24,2,.92,5-.79,7.57C539.63,570.94,530.58,571.06,524.18,571.06Z"/><path d="M499.32,350.92c-1.14-8.91,7.75-12.16,14.61-9.81,9,3.09,9,8.8,17.12,1.11,4.14-3.94,10.21-11.28,16.89-7.61,6.43,3.54,5,17.29,3.17,22.58-3.67,10.58-16.66,31.51-29,24.27S499.43,364.89,499.32,350.92Z"/><path d="M303.43,463.75c1-4.84,22.95-29.66,26.28-29.56,4.59.15,16.4,33.61,15.25,39.72-1.21,6.43-24.85,31.7-28.22,30.8C312.53,503.6,303.12,471.46,303.43,463.75Z"/><path d="M118.18,603.87c-.29-4.42,1-9.09-.33-12.64s-3.23-4.94-2.67-9.14c.42-3.2,1.81-5.94,4.76-7.36,1.56-.74,3.44-.37,5-1.07s2.24-2.29,4.24-2.66c3.37-.72,15.3-.7,19.92,3.29,1.6,1.39-.78,4.22-1.21,6.38-.66,3.27,4,7.14,5.37,9.82,3.48,6.82,3.33,14.13.72,21.24-1.9,5.16-7.89,15.8-8.92,16.11-3.54,1.07-19.22,1.07-20.91-1.35C120.18,620.73,118.57,610.64,118.18,603.87Zm7.24-21.57c-.25-4.81-8.8-.17-6.1,4.69,2.53,4.68,6.21-1.66,6.05-4.69Z"/><path d="M146.8,348.71s19.59,11.86,34.62-16.9c0,0,17.13,10,36.73-5.86l2.71,20.55s-9.7,14.09-31.33,9.92c0,0-7.86,15.09-27.47,15.54Z"/><path d="M450.23,29.56C451.18,24.71,473.18-.11,476.5,0c4.6.15,16.41,33.6,15.26,39.72-1.21,6.43-24.86,31.69-28.22,30.8C459.32,69.4,449.92,37.27,450.23,29.56Z"/><path d="M83.75,136.86c-10.37,0-45.87-.74-50.24-.74-5,0-8.73-.92-9.55-3.18-2.81-7.77.66-15.22,7-16a18.46,18.46,0,0,1,9.5,1.5,25,25,0,0,1,5.06-6.8A22.38,22.38,0,0,1,63.07,105c4.82.21,14.52.33,21.49,7.11,3.33,3.22,4.28,11.28,4.28,11.28s9.53-1.66,12.67,3.54c1.24,2,.92,5-.78,7.57C99.24,136.75,90.18,136.86,83.75,136.86Z"/><path d="M264.92,169.68c-.29-4.42,1.05-9.09-.32-12.65s-3.24-4.93-2.68-9.14c.43-3.2,1.81-5.94,4.77-7.35,1.55-.75,3.43-.37,5-1.07s2.35-2.29,4.29-2.71c3.38-.73,15.31-.7,19.92,3.29,1.61,1.39-.78,4.22-1.21,6.38-.65,3.27,4,7.14,5.37,9.82,3.48,6.81,3.34,14.13.73,21.23-1.9,5.16-7.9,15.81-8.92,16.12-3.55,1.07-19.22,1.07-20.92-1.35C266.93,186.54,265.37,176.44,264.92,169.68Zm7.26-21.58c-.24-4.8-8.79-.17-6.1,4.7C268.65,157.48,272.33,151.13,272.18,148.1Z"/></svg>