<svg xmlns="http://www.w3.org/2000/svg" xmlns:xlink="http://www.w3.org/1999/xlink" viewBox="0 0 1208.7 1839"><defs><style>.a{fill:none;}.b{fill:#ff6e66;}.c{fill:#fee389;}.d{fill:#89d3e6;}.e{fill:silver;}.f{fill:url(#a);}</style><pattern id="a" width="1234.01" height="7113.65" patternTransform="translate(-82.68 1104.66)" patternUnits="userSpaceOnUse" viewBox="0 0 1234.01 7113.65"><rect class="a" width="1234.01" height="7113.65"/><rect class="a" x="676.66" y="6224.44" width="1174.36" height="1736.77"/><path class="b" d="M1093.35,6980.65c-1.14-8.91,7.75-12.16,14.61-9.81,9,3.09,9,8.8,17.12,1.11,4.14-3.94,10.22-11.28,16.89-7.61,6.43,3.54,5,17.29,3.17,22.58-3.67,10.58-16.66,31.51-29,24.27S1093.46,6994.62,1093.35,6980.65Z"/><path class="c" d="M897.46,7093.48c1-4.85,22.95-29.66,26.28-29.56,4.59.15,16.4,33.61,15.25,39.72-1.21,6.43-24.85,31.7-28.21,30.8C906.56,7133.32,897.15,7101.19,897.46,7093.48Z"/><path class="d" d="M740.83,6978.44s19.59,11.85,34.62-16.9c0,0,17.13,10,36.73-5.86l2.71,20.55s-9.7,14.09-31.33,9.92c0,0-7.86,15.09-27.47,15.54Z"/><path class="d" d="M1265,6766.59c-10.37,0-45.87-.74-50.23-.74-5,0-8.74-.92-9.56-3.18-2.81-7.77.66-15.22,7-16.05a18.42,18.42,0,0,1,9.5,1.5,24.93,24.93,0,0,1,5.06-6.8,22.38,22.38,0,0,1,17.54-6.58c4.82.21,14.52.33,21.5,7.1,3.32,3.23,4.27,11.29,4.27,11.29s9.54-1.66,12.68,3.54c1.23,2,.91,5-.79,7.57C1280.45,6766.48,1271.4,6766.59,1265,6766.59Z"/><path class="c" d="M1044.26,6659.29c1-4.85,23-29.67,26.27-29.56,4.6.15,16.41,33.6,15.26,39.72-1.21,6.43-24.86,31.69-28.22,30.8C1053.35,6699.13,1044,6667,1044.26,6659.29Z"/><path class="d" d="M677.78,6766.59c-10.37,0-45.87-.74-50.24-.74-5,0-8.73-.92-9.55-3.18-2.81-7.77.66-15.22,7-16.05a18.45,18.45,0,0,1,9.5,1.5,24.93,24.93,0,0,1,5.06-6.8,22.38,22.38,0,0,1,17.54-6.58c4.82.21,14.52.33,21.5,7.1,3.32,3.23,4.27,11.29,4.27,11.29s9.53-1.66,12.67,3.54c1.24,2,.92,5-.78,7.57C693.27,6766.48,684.22,6766.59,677.78,6766.59Z"/><path class="e" d="M859,6799.41c-.29-4.42,1-9.09-.32-12.65s-3.24-4.93-2.68-9.14c.43-3.2,1.81-5.94,4.77-7.35,1.56-.75,3.43-.37,5-1.08s2.35-2.28,4.29-2.7c3.38-.73,15.31-.7,19.92,3.29,1.61,1.39-.78,4.22-1.21,6.38-.65,3.27,4,7.14,5.37,9.81,3.48,6.82,3.34,14.14.73,21.24-1.9,5.16-7.9,15.81-8.92,16.12-3.55,1.07-19.22,1.07-20.92-1.35C861,6816.27,859.4,6806.17,859,6799.41Zm7.24-21.58c-.24-4.8-8.79-.17-6.1,4.7C862.68,6787.21,866.36,6780.86,866.19,6777.83Z"/><path class="b" d="M653,6546.46c-1.14-8.91,7.76-12.17,14.62-9.81,9,3.09,9,8.79,17.11,1.11,4.14-3.95,10.22-11.28,16.9-7.61,6.43,3.53,5,17.29,3.16,22.57-3.66,10.59-16.66,31.52-29,24.28S653.08,6560.42,653,6546.46Z"/><path class="d" d="M887.63,6544.24s19.59,11.86,34.62-16.9c0,0,17.13,10,36.72-5.86l2.72,20.55s-9.71,14.1-31.34,9.93a32.18,32.18,0,0,1-27.46,15.54Z"/><path class="c" d="M1191.06,6225.09c1-4.84,22.94-29.66,26.27-29.55,4.59.14,16.4,33.6,15.25,39.71-1.21,6.44-24.85,31.7-28.21,30.81C1200.15,6264.94,1190.74,6232.8,1191.06,6225.09Z"/><path class="d" d="M824.57,6332.4c-10.36,0-45.86-.74-50.23-.74-5,0-8.74-.93-9.55-3.18-2.82-7.78.66-15.23,7-16a18.53,18.53,0,0,1,9.51,1.49,25.06,25.06,0,0,1,5.05-6.79,22.39,22.39,0,0,1,17.55-6.58c4.81.21,14.52.33,21.49,7.1,3.33,3.23,4.27,11.28,4.27,11.28s9.54-1.66,12.68,3.54c1.24,2.05.92,5-.79,7.58C840.07,6332.28,831,6332.4,824.57,6332.4Z"/><path class="e" d="M1005.75,6365.21c-.29-4.41,1-9.08-.33-12.64s-3.23-4.93-2.67-9.14c.43-3.2,1.81-5.94,4.76-7.36,1.56-.74,3.44-.37,5-1.07s2.34-2.29,4.29-2.7c3.38-.73,15.3-.7,19.92,3.29,1.6,1.38-.78,4.21-1.21,6.37-.66,3.28,4,7.14,5.37,9.82,3.48,6.82,3.34,14.13.72,21.24-1.9,5.16-7.89,15.8-8.92,16.11-3.54,1.07-19.22,1.07-20.91-1.35C1007.75,6382.08,1006.19,6372,1005.75,6365.21Zm7.24-21.57c-.25-4.81-8.8-.17-6.1,4.7C1009.47,6353,1013.16,6346.67,1013,6343.64Z"/><rect class="a" x="-557.36" y="6224.44" width="1174.36" height="1736.77"/><path class="b" d="M446.52,6980.65c-1.14-8.91,7.75-12.16,14.61-9.81,9,3.09,9,8.8,17.12,1.11,4.14-3.94,10.21-11.28,16.89-7.61,6.43,3.54,5,17.29,3.17,22.58-3.67,10.58-16.66,31.51-29,24.27S446.63,6994.62,446.52,6980.65Z"/><path class="c" d="M250.63,7093.48c1-4.85,22.95-29.66,26.28-29.56,4.59.15,16.4,33.61,15.25,39.72-1.21,6.43-24.85,31.7-28.22,30.8C259.73,7133.32,250.32,7101.19,250.63,7093.48Z"/><path class="d" d="M94,6978.44s19.59,11.85,34.62-16.9c0,0,17.13,10,36.73-5.86l2.71,20.55s-9.7,14.09-31.33,9.92c0,0-7.86,15.09-27.47,15.54Z"/><path class="d" d="M618.13,6766.59c-10.37,0-45.87-.74-50.24-.74-5,0-8.73-.92-9.55-3.18-2.81-7.77.66-15.22,7-16.05a18.45,18.45,0,0,1,9.5,1.5,24.93,24.93,0,0,1,5.06-6.8,22.38,22.38,0,0,1,17.54-6.58c4.82.21,14.52.33,21.5,7.1,3.32,3.23,4.27,11.29,4.27,11.29s9.53-1.66,12.67,3.54c1.24,2,.92,5-.78,7.57C633.62,6766.48,624.57,6766.59,618.13,6766.59Z"/><path class="b" d="M593.31,6546.46c-1.14-8.91,7.76-12.17,14.62-9.81,9,3.09,9,8.79,17.11,1.11,4.14-3.95,10.22-11.28,16.9-7.61,6.43,3.53,5,17.29,3.16,22.57-3.66,10.59-16.66,31.52-29,24.28S593.43,6560.42,593.31,6546.46Z"/><path class="c" d="M397.43,6659.29c1-4.85,22.95-29.67,26.27-29.56,4.6.15,16.4,33.6,15.26,39.72-1.21,6.43-24.86,31.69-28.22,30.8C406.52,6699.13,397.11,6667,397.43,6659.29Z"/><path class="d" d="M31,6766.59c-10.37,0-45.87-.74-50.24-.74-5,0-8.73-.92-9.55-3.18-2.81-7.77.66-15.22,7-16.05a18.45,18.45,0,0,1,9.5,1.5,24.93,24.93,0,0,1,5.06-6.8,22.38,22.38,0,0,1,17.54-6.58c4.82.21,14.52.33,21.49,7.1,3.33,3.23,4.27,11.29,4.27,11.29s9.54-1.66,12.68,3.54c1.24,2,.92,5-.78,7.57C46.44,6766.48,37.39,6766.59,31,6766.59Z"/><path class="e" d="M212.12,6799.41c-.29-4.42,1-9.09-.32-12.65s-3.24-4.93-2.68-9.14c.43-3.2,1.81-5.94,4.77-7.35,1.55-.75,3.43-.37,5-1.08s2.35-2.28,4.29-2.7c3.38-.73,15.31-.7,19.92,3.29,1.61,1.39-.78,4.22-1.21,6.38-.65,3.27,4,7.14,5.37,9.81,3.48,6.82,3.34,14.14.72,21.24-1.89,5.16-7.89,15.81-8.91,16.12-3.55,1.07-19.22,1.07-20.92-1.35C214.13,6816.27,212.57,6806.17,212.12,6799.41Zm7.24-21.58c-.24-4.8-8.79-.17-6.1,4.7C215.85,6787.21,219.53,6780.86,219.36,6777.83Z"/><path class="b" d="M6.13,6546.46c-1.14-8.91,7.76-12.17,14.62-9.81,9,3.09,9,8.79,17.11,1.11,4.14-3.95,10.22-11.28,16.89-7.61,6.44,3.53,5,17.29,3.17,22.57C54.25,6563.31,41.26,6584.24,29,6577S6.25,6560.42,6.13,6546.46Z"/><path class="d" d="M240.79,6544.24s19.6,11.86,34.62-16.9c0,0,17.14,10,36.73-5.86l2.72,20.55s-9.71,14.1-31.34,9.93a32.18,32.18,0,0,1-27.46,15.54Z"/><path class="c" d="M544.22,6225.09c1-4.84,22.95-29.66,26.28-29.55,4.59.14,16.4,33.6,15.25,39.71-1.21,6.44-24.85,31.7-28.22,30.81C553.32,6264.94,543.91,6232.8,544.22,6225.09Z"/><path class="d" d="M177.74,6332.4c-10.37,0-45.86-.74-50.23-.74-5,0-8.74-.93-9.55-3.18-2.82-7.78.66-15.23,7-16a18.53,18.53,0,0,1,9.51,1.49,25.06,25.06,0,0,1,5.05-6.79,22.36,22.36,0,0,1,17.54-6.58c4.82.21,14.52.33,21.5,7.1,3.33,3.23,4.27,11.28,4.27,11.28s9.54-1.66,12.68,3.54c1.24,2.05.92,5-.79,7.58C193.24,6332.28,184.19,6332.4,177.74,6332.4Z"/><path class="e" d="M358.92,6365.21c-.29-4.41,1.05-9.08-.33-12.64s-3.23-4.93-2.67-9.14c.42-3.2,1.81-5.94,4.76-7.36,1.56-.74,3.44-.37,5-1.07s2.34-2.29,4.29-2.7c3.37-.73,15.3-.7,19.92,3.29,1.6,1.38-.78,4.21-1.21,6.37-.66,3.28,4,7.14,5.37,9.82,3.48,6.82,3.34,14.13.72,21.24-1.9,5.16-7.89,15.8-8.92,16.11-3.54,1.07-19.22,1.07-20.91-1.35C360.92,6382.08,359.36,6372,358.92,6365.21Zm7.24-21.57c-.25-4.81-8.8-.17-6.1,4.7C362.64,6353,366.32,6346.67,366.16,6343.64Z"/><rect class="a" x="985.16" y="4446.03" width="1174.36" height="1736.77"/><path class="b" d="M1108.26,6070.63c-1.14-8.92,7.76-12.17,14.62-9.81,9,3.08,9,8.79,17.11,1.1,4.14-3.94,10.22-11.27,16.89-7.6,6.44,3.53,5,17.28,3.17,22.57-3.67,10.59-16.66,31.52-29,24.28S1108.38,6084.59,1108.26,6070.63Z"/><path class="d" d="M1279.87,5856.57c-10.37,0-45.86-.74-50.23-.74-5,0-8.74-.93-9.55-3.18-2.82-7.78.66-15.23,7-16a18.41,18.41,0,0,1,9.51,1.49,25.18,25.18,0,0,1,5.05-6.8,22.39,22.39,0,0,1,17.54-6.57c4.82.2,14.52.33,21.5,7.1,3.33,3.23,4.27,11.28,4.27,11.28s9.54-1.66,12.68,3.54c1.23,2,.92,5-.79,7.58C1295.37,5856.45,1286.32,5856.57,1279.87,5856.57Z"/><path class="c" d="M1059.17,5749.26c1-4.84,22.95-29.66,26.27-29.56,4.6.15,16.41,33.61,15.26,39.72-1.21,6.44-24.85,31.7-28.22,30.81C1068.27,5789.11,1058.86,5757,1059.17,5749.26Z"/><path class="c" d="M1206,5315.07c1-4.85,22.94-29.67,26.27-29.56,4.59.15,16.4,33.6,15.26,39.72-1.21,6.43-24.86,31.69-28.22,30.8C1215.06,5354.91,1205.65,5322.78,1206,5315.07Z"/><path class="e" d="M1020.66,5455.19c-.29-4.42,1.05-9.09-.32-12.65s-3.24-4.93-2.68-9.14c.43-3.19,1.81-5.94,4.77-7.35,1.55-.75,3.43-.37,5-1.07s2.35-2.29,4.29-2.71c3.38-.73,15.31-.7,19.92,3.29,1.6,1.39-.78,4.22-1.21,6.38-.65,3.27,4,7.14,5.37,9.82,3.48,6.81,3.34,14.13.72,21.23-1.89,5.16-7.89,15.81-8.92,16.12-3.54,1.07-19.21,1.07-20.91-1.35C1022.67,5472.05,1021.11,5462,1020.66,5455.19Zm7.24-21.58c-.24-4.8-8.79-.17-6.1,4.7C1024.39,5443,1028.07,5436.65,1027.9,5433.61Z"/><path class="d" d="M1049.33,5200s19.59,11.86,34.62-16.9c0,0,17.14,10,36.73-5.86l2.72,20.56s-9.71,14.09-31.34,9.92a32.18,32.18,0,0,1-27.46,15.54Z"/><path class="d" d="M986.28,4988.18c-10.37,0-45.86-.74-50.23-.74-5,0-8.74-.93-9.55-3.18-2.82-7.78.65-15.23,7-16.05a18.53,18.53,0,0,1,9.51,1.49,25.06,25.06,0,0,1,5-6.79,22.36,22.36,0,0,1,17.54-6.58c4.82.21,14.52.33,21.5,7.1,3.33,3.23,4.27,11.29,4.27,11.29s9.54-1.66,12.68,3.53c1.23,2.05.91,5-.79,7.58C1001.78,4988.07,992.72,4988.18,986.28,4988.18Z"/><path class="e" d="M1167.46,5021c-.29-4.41,1-9.08-.33-12.64s-3.24-4.93-2.67-9.14c.42-3.2,1.81-5.94,4.76-7.36,1.56-.74,3.44-.36,5-1.07s2.34-2.28,4.29-2.7c3.37-.73,15.3-.7,19.91,3.29,1.61,1.39-.77,4.21-1.21,6.37-.65,3.28,4,7.14,5.38,9.82,3.48,6.82,3.33,14.14.72,21.24-1.9,5.16-7.89,15.81-8.92,16.12-3.55,1.07-19.22,1.07-20.91-1.35C1169.46,5037.86,1167.9,5027.76,1167.46,5021Zm7.24-21.57c-.25-4.81-8.8-.17-6.11,4.7C1171.18,5008.79,1174.86,5002.45,1174.7,4999.42Z"/><path class="b" d="M961.46,4768.05c-1.14-8.92,7.76-12.17,14.62-9.81,9,3.08,9,8.79,17.11,1.1,4.15-3.94,10.22-11.28,16.9-7.6,6.43,3.53,5,17.28,3.17,22.57-3.67,10.59-16.66,31.52-29,24.28S961.58,4782,961.46,4768.05Z"/><path class="d" d="M1196.13,4765.83s19.59,11.86,34.62-16.9c0,0,17.13,10,36.73-5.86l2.71,20.55s-9.7,14.1-31.33,9.93c0,0-7.86,15.08-27.47,15.53Z"/><path class="d" d="M1133.08,4554c-10.37,0-45.87-.74-50.24-.74-5,0-8.73-.93-9.55-3.18-2.81-7.78.66-15.23,7-16a18.39,18.39,0,0,1,9.5,1.49,25.1,25.1,0,0,1,5.06-6.8,22.38,22.38,0,0,1,17.54-6.57c4.82.2,14.52.33,21.49,7.1,3.33,3.23,4.27,11.28,4.27,11.28s9.54-1.66,12.68,3.54c1.24,2,.92,5-.78,7.57C1148.57,4553.87,1139.52,4554,1133.08,4554Z"/><rect class="a" x="-248.85" y="4446.03" width="1174.36" height="1736.77"/><path class="c" d="M852.73,6183.46c1-4.85,22.94-29.67,26.27-29.56,4.59.15,16.4,33.6,15.25,39.72-1.2,6.43-24.85,31.69-28.21,30.8C861.82,6223.3,852.41,6191.17,852.73,6183.46Z"/><path class="b" d="M461.43,6070.63c-1.14-8.92,7.76-12.17,14.62-9.81,9,3.08,9,8.79,17.11,1.1,4.14-3.94,10.22-11.27,16.89-7.6,6.43,3.53,5,17.28,3.17,22.57-3.67,10.59-16.66,31.52-29,24.28S461.55,6084.59,461.43,6070.63Z"/><path class="d" d="M696.09,6068.41s19.59,11.86,34.62-16.9c0,0,17.14,10,36.73-5.86l2.72,20.55s-9.71,14.1-31.34,9.93c0,0-7.86,15.09-27.47,15.54Z"/><path class="c" d="M265.55,6183.46c1-4.85,22.94-29.67,26.27-29.56,4.59.15,16.4,33.6,15.25,39.72-1.21,6.43-24.85,31.69-28.21,30.8C274.64,6223.3,265.23,6191.17,265.55,6183.46Z"/><path class="d" d="M108.91,6068.41s19.59,11.86,34.62-16.9c0,0,17.13,10,36.73-5.86L183,6066.2s-9.7,14.1-31.33,9.93c0,0-7.86,15.09-27.47,15.54Z"/><path class="d" d="M633,5856.57c-10.37,0-45.86-.74-50.23-.74-5,0-8.74-.93-9.55-3.18-2.82-7.78.65-15.23,7-16a18.35,18.35,0,0,1,9.5,1.49,25.36,25.36,0,0,1,5.06-6.8,22.39,22.39,0,0,1,17.54-6.57c4.82.2,14.52.33,21.5,7.1,3.33,3.23,4.27,11.28,4.27,11.28s9.54-1.66,12.68,3.54c1.23,2,.91,5-.79,7.58C648.54,5856.45,639.48,5856.57,633,5856.57Z"/><path class="e" d="M814.21,5889.38c-.29-4.41,1.06-9.08-.32-12.64s-3.24-4.94-2.67-9.14c.42-3.2,1.8-5.94,4.76-7.36,1.56-.74,3.44-.37,5-1.07s2.35-2.29,4.3-2.71c3.37-.72,15.3-.7,19.91,3.29,1.61,1.39-.78,4.22-1.21,6.38-.65,3.28,4,7.14,5.38,9.82,3.48,6.82,3.33,14.13.72,21.24-1.9,5.16-7.89,15.8-8.92,16.11-3.55,1.07-19.22,1.07-20.91-1.35C816.22,5906.24,814.66,5896.15,814.21,5889.38Zm7.25-21.57c-.25-4.81-8.8-.17-6.11,4.7C817.94,5877.18,821.62,5870.84,821.46,5867.81Z"/><path class="b" d="M608.22,5636.43c-1.14-8.91,7.76-12.16,14.62-9.8,9,3.08,9,8.79,17.11,1.1,4.14-3.94,10.22-11.28,16.9-7.61,6.43,3.54,5,17.29,3.16,22.58-3.66,10.59-16.66,31.51-29,24.27S608.34,5650.4,608.22,5636.43Z"/><path class="d" d="M842.89,5634.22s19.59,11.86,34.62-16.9c0,0,17.13,10,36.72-5.86L917,5632s-9.7,14.1-31.33,9.92c0,0-7.86,15.09-27.47,15.54Z"/><path class="c" d="M412.34,5749.26c1-4.84,23-29.66,26.27-29.56,4.6.15,16.41,33.61,15.26,39.72-1.21,6.44-24.85,31.7-28.22,30.81C421.43,5789.11,412,5757,412.34,5749.26Z"/><path class="d" d="M45.86,5856.57c-10.37,0-45.87-.74-50.23-.74-5,0-8.74-.93-9.56-3.18-2.81-7.78.66-15.23,7-16a18.35,18.35,0,0,1,9.5,1.49,25.1,25.1,0,0,1,5.06-6.8,22.38,22.38,0,0,1,17.54-6.57c4.82.2,14.52.33,21.5,7.1C50,5835.05,51,5843.1,51,5843.1s9.54-1.66,12.68,3.54c1.23,2,.91,5-.79,7.58C61.35,5856.45,52.3,5856.57,45.86,5856.57Z"/><path class="e" d="M227,5889.38c-.29-4.41,1.06-9.08-.32-12.64s-3.24-4.94-2.68-9.14c.43-3.2,1.81-5.94,4.77-7.36,1.56-.74,3.43-.37,5-1.07s2.35-2.29,4.29-2.71c3.38-.72,15.31-.7,19.92,3.29,1.61,1.39-.78,4.22-1.21,6.38-.65,3.28,4,7.14,5.38,9.82,3.47,6.82,3.33,14.13.72,21.24-1.9,5.16-7.9,15.8-8.92,16.11-3.55,1.07-19.22,1.07-20.91-1.35C229,5906.24,227.48,5896.15,227,5889.38Zm7.25-21.57c-.25-4.81-8.8-.17-6.11,4.7C230.76,5877.18,234.44,5870.84,234.28,5867.81Z"/><path class="b" d="M21,5636.43c-1.14-8.91,7.76-12.16,14.62-9.8,9,3.08,9,8.79,17.11,1.1,4.14-3.94,10.22-11.28,16.9-7.61,6.43,3.54,5,17.29,3.16,22.58-3.66,10.59-16.66,31.51-28.95,24.27S21.16,5650.4,21,5636.43Z"/><path class="d" d="M255.71,5634.22s19.59,11.86,34.62-16.9c0,0,17.13,10,36.72-5.86l2.72,20.55s-9.71,14.1-31.33,9.92c0,0-7.86,15.09-27.47,15.54Z"/><path class="d" d="M779.84,5422.37c-10.37,0-45.87-.74-50.24-.74-5,0-8.73-.92-9.55-3.18-2.81-7.77.66-15.22,7-16.05a18.45,18.45,0,0,1,9.5,1.5,25,25,0,0,1,5.05-6.8,22.42,22.42,0,0,1,17.55-6.58c4.81.21,14.52.34,21.49,7.11,3.33,3.23,4.27,11.28,4.27,11.28s9.54-1.66,12.68,3.54c1.24,2.05.92,5-.78,7.57C795.33,5422.26,786.28,5422.37,779.84,5422.37Z"/><path class="b" d="M755,5202.24c-1.14-8.91,7.76-12.16,14.62-9.81,9,3.09,9,8.8,17.11,1.11,4.14-3.94,10.22-11.28,16.89-7.61,6.44,3.53,5,17.29,3.17,22.57-3.67,10.59-16.66,31.52-28.95,24.28S755.14,5216.2,755,5202.24Z"/><path class="c" d="M559.14,5315.07c1-4.85,22.94-29.67,26.27-29.56,4.59.15,16.4,33.6,15.25,39.72-1.2,6.43-24.85,31.69-28.21,30.8C568.23,5354.91,558.82,5322.78,559.14,5315.07Z"/><path class="d" d="M192.65,5422.37c-10.36,0-45.86-.74-50.23-.74-5,0-8.73-.92-9.55-3.18-2.81-7.77.66-15.22,7-16.05a18.45,18.45,0,0,1,9.5,1.5,25,25,0,0,1,5.05-6.8,22.42,22.42,0,0,1,17.55-6.58c4.81.21,14.52.34,21.49,7.11,3.33,3.23,4.27,11.28,4.27,11.28s9.54-1.66,12.68,3.54c1.24,2.05.92,5-.79,7.57C208.15,5422.26,199.1,5422.37,192.65,5422.37Z"/><path class="e" d="M373.83,5455.19c-.29-4.42,1.05-9.09-.32-12.65s-3.24-4.93-2.68-9.14c.43-3.19,1.81-5.94,4.76-7.35,1.56-.75,3.44-.37,5-1.07s2.35-2.29,4.29-2.71c3.38-.73,15.3-.7,19.92,3.29,1.6,1.39-.78,4.22-1.21,6.38-.66,3.27,4,7.14,5.37,9.82,3.48,6.81,3.34,14.13.72,21.23-1.9,5.16-7.89,15.81-8.92,16.12-3.54,1.07-19.21,1.07-20.91-1.35C375.83,5472.05,374.27,5462,373.83,5455.19Zm7.24-21.58c-.24-4.8-8.8-.17-6.1,4.7C377.56,5443,381.24,5436.65,381.07,5433.61Z"/><path class="b" d="M167.84,5202.24c-1.14-8.91,7.76-12.16,14.62-9.81,9,3.09,9,8.8,17.11,1.11,4.14-3.94,10.22-11.28,16.89-7.61,6.43,3.53,5,17.29,3.17,22.57-3.67,10.59-16.66,31.52-29,24.28S168,5216.2,167.84,5202.24Z"/><path class="d" d="M402.5,5200s19.59,11.86,34.62-16.9c0,0,17.13,10,36.73-5.86l2.71,20.56s-9.7,14.09-31.33,9.92c0,0-7.86,15.09-27.47,15.54Z"/><path class="c" d="M-28,5315.07c1-4.85,22.94-29.67,26.27-29.56,4.59.15,16.4,33.6,15.25,39.72-1.21,6.43-24.85,31.69-28.21,30.8C-18.95,5354.91-28.36,5322.78-28,5315.07Z"/><path class="d" d="M926.63,4988.18c-10.37,0-45.86-.74-50.23-.74-5,0-8.74-.93-9.55-3.18-2.82-7.78.65-15.23,7-16.05a18.53,18.53,0,0,1,9.51,1.49,25.06,25.06,0,0,1,5-6.79,22.36,22.36,0,0,1,17.54-6.58c4.82.21,14.52.33,21.5,7.1,3.33,3.23,4.27,11.29,4.27,11.29s9.54-1.66,12.68,3.53c1.23,2.05.91,5-.79,7.58C942.13,4988.07,933.07,4988.18,926.63,4988.18Z"/><path class="b" d="M901.81,4768.05c-1.14-8.92,7.76-12.17,14.62-9.81,9,3.08,9,8.79,17.11,1.1,4.14-3.94,10.22-11.28,16.9-7.6,6.43,3.53,5,17.28,3.16,22.57-3.66,10.59-16.65,31.52-29,24.28S901.93,4782,901.81,4768.05Z"/><path class="c" d="M705.93,4880.88c1-4.85,23-29.67,26.27-29.56,4.6.15,16.41,33.6,15.26,39.71-1.21,6.44-24.85,31.7-28.22,30.81C715,4920.72,705.62,4888.58,705.93,4880.88Z"/><path class="d" d="M339.45,4988.18c-10.37,0-45.87-.74-50.23-.74-5,0-8.74-.93-9.56-3.18-2.81-7.78.66-15.23,7-16.05a18.47,18.47,0,0,1,9.5,1.49,25,25,0,0,1,5.06-6.79,22.36,22.36,0,0,1,17.54-6.58c4.82.21,14.52.33,21.5,7.1,3.32,3.23,4.27,11.29,4.27,11.29s9.54-1.66,12.68,3.53c1.23,2.05.91,5-.79,7.58C354.94,4988.07,345.89,4988.18,339.45,4988.18Z"/><path class="e" d="M520.62,5021c-.29-4.41,1.06-9.08-.32-12.64s-3.24-4.93-2.68-9.14c.43-3.2,1.81-5.94,4.77-7.36,1.56-.74,3.44-.36,5-1.07s2.35-2.28,4.3-2.7c3.37-.73,15.3-.7,19.91,3.29,1.61,1.39-.78,4.21-1.21,6.37-.65,3.28,4,7.14,5.38,9.82,3.48,6.82,3.33,14.14.72,21.24-1.9,5.16-7.9,15.81-8.92,16.12-3.55,1.07-19.22,1.07-20.91-1.35C522.63,5037.86,521.07,5027.76,520.62,5021Zm7.25-21.57c-.25-4.81-8.8-.17-6.11,4.7C524.35,5008.79,528,5002.45,527.87,4999.42Z"/><path class="b" d="M314.63,4768.05c-1.14-8.92,7.76-12.17,14.62-9.81,9,3.08,9,8.79,17.11,1.1,4.14-3.94,10.22-11.28,16.9-7.6,6.43,3.53,5,17.28,3.16,22.57-3.66,10.59-16.66,31.52-28.95,24.28S314.75,4782,314.63,4768.05Z"/><path class="d" d="M549.3,4765.83s19.59,11.86,34.62-16.9c0,0,17.13,10,36.72-5.86l2.72,20.55s-9.71,14.1-31.33,9.93c0,0-7.86,15.08-27.47,15.53Z"/><path class="c" d="M118.75,4880.88c1-4.85,22.95-29.67,26.27-29.56,4.6.15,16.41,33.6,15.26,39.71-1.21,6.44-24.86,31.7-28.22,30.81C127.84,4920.72,118.44,4888.58,118.75,4880.88Z"/><path class="d" d="M-37.88,4765.83s19.59,11.86,34.62-16.9c0,0,17.13,10,36.72-5.86l2.72,20.55s-9.71,14.1-31.33,9.93c0,0-7.86,15.08-27.47,15.53Z"/><path class="c" d="M852.73,4446.68c1-4.85,22.94-29.66,26.27-29.56,4.59.15,16.4,33.61,15.25,39.72-1.2,6.43-24.85,31.7-28.21,30.8C861.82,4486.53,852.41,4454.39,852.73,4446.68Z"/><path class="d" d="M486.24,4554c-10.36,0-45.86-.74-50.23-.74-5,0-8.73-.93-9.55-3.18-2.81-7.78.66-15.23,7-16a18.39,18.39,0,0,1,9.5,1.49,25.18,25.18,0,0,1,5-6.8,22.42,22.42,0,0,1,17.55-6.57c4.81.2,14.52.33,21.49,7.1,3.33,3.23,4.27,11.28,4.27,11.28s9.54-1.66,12.68,3.54c1.24,2,.92,5-.78,7.57C501.74,4553.87,492.69,4554,486.24,4554Z"/><path class="e" d="M667.42,4586.8c-.29-4.42,1.05-9.09-.32-12.64s-3.24-4.94-2.68-9.14c.43-3.2,1.81-5.94,4.76-7.36,1.56-.74,3.44-.37,5-1.07s2.35-2.29,4.29-2.71c3.38-.72,15.3-.7,19.92,3.29,1.6,1.39-.78,4.22-1.21,6.38-.65,3.27,4,7.14,5.37,9.82,3.48,6.82,3.34,14.13.72,21.24-1.89,5.16-7.89,15.8-8.92,16.11-3.54,1.07-19.21,1.07-20.91-1.35C669.43,4603.66,667.87,4593.57,667.42,4586.8Zm7.24-21.57c-.24-4.81-8.8-.17-6.1,4.69C671.15,4574.6,674.83,4568.26,674.66,4565.23Z"/><path class="c" d="M265.55,4446.68c1-4.85,22.94-29.66,26.27-29.56,4.59.15,16.4,33.61,15.25,39.72-1.21,6.43-24.85,31.7-28.21,30.8C274.64,4486.53,265.23,4454.39,265.55,4446.68Z"/><path class="e" d="M80.24,4586.8c-.29-4.42,1.05-9.09-.33-12.64s-3.23-4.94-2.67-9.14c.43-3.2,1.81-5.94,4.76-7.36,1.56-.74,3.44-.37,5-1.07s2.35-2.29,4.29-2.71c3.38-.72,15.3-.7,19.92,3.29,1.6,1.39-.78,4.22-1.21,6.38-.66,3.27,4,7.14,5.37,9.82,3.48,6.82,3.34,14.13.72,21.24-1.9,5.16-7.89,15.8-8.92,16.11-3.54,1.07-19.21,1.07-20.91-1.35C82.24,4603.66,80.68,4593.57,80.24,4586.8Zm7.24-21.57c-.24-4.81-8.8-.17-6.1,4.69C84,4574.6,87.65,4568.26,87.48,4565.23Z"/><rect class="a" x="59.65" y="2667.62" width="1174.36" height="1736.77"/><path class="c" d="M1161.23,4405c1-4.84,23-29.66,26.27-29.55,4.6.14,16.41,33.6,15.26,39.71-1.21,6.44-24.86,31.7-28.22,30.81C1170.32,4444.89,1160.92,4412.75,1161.23,4405Z"/><path class="b" d="M769.93,4292.22c-1.14-8.92,7.76-12.17,14.62-9.81,9,3.08,9,8.79,17.11,1.1,4.14-3.94,10.22-11.28,16.9-7.61,6.43,3.54,5,17.29,3.16,22.58-3.66,10.59-16.66,31.51-29,24.27S770.05,4306.18,769.93,4292.22Z"/><path class="d" d="M1004.6,4290s19.59,11.86,34.62-16.9c0,0,17.13,10,36.72-5.86l2.72,20.55s-9.71,14.1-31.33,9.92a32.21,32.21,0,0,1-27.47,15.54Z"/><path class="c" d="M574.05,4405c1-4.84,23-29.66,26.27-29.55,4.6.14,16.41,33.6,15.26,39.71-1.21,6.44-24.86,31.7-28.22,30.81C583.14,4444.89,573.74,4412.75,574.05,4405Z"/><path class="b" d="M182.75,4292.22c-1.14-8.92,7.76-12.17,14.62-9.81,9,3.08,9,8.79,17.11,1.1,4.14-3.94,10.22-11.28,16.9-7.61,6.43,3.54,5,17.29,3.16,22.58-3.67,10.59-16.66,31.51-28.95,24.27S182.87,4306.18,182.75,4292.22Z"/><path class="d" d="M417.41,4290s19.6,11.86,34.62-16.9c0,0,17.14,10,36.73-5.86l2.72,20.55s-9.71,14.1-31.34,9.92a32.18,32.18,0,0,1-27.46,15.54Z"/><path class="d" d="M941.54,4078.16c-10.36,0-45.86-.74-50.23-.74-5,0-8.74-.93-9.55-3.18-2.81-7.78.66-15.23,7-16a18.39,18.39,0,0,1,9.5,1.49,25,25,0,0,1,5.05-6.8,22.38,22.38,0,0,1,17.55-6.57c4.81.2,14.52.33,21.49,7.1,3.33,3.23,4.27,11.28,4.27,11.28s9.54-1.66,12.68,3.54c1.24,2.05.92,5-.79,7.57C957,4078,948,4078.16,941.54,4078.16Z"/><path class="e" d="M1122.72,4111c-.29-4.42,1-9.09-.33-12.64s-3.23-4.94-2.67-9.14c.43-3.2,1.81-6,4.76-7.36,1.56-.75,3.44-.37,5-1.07s2.34-2.29,4.29-2.71c3.38-.73,15.3-.7,19.92,3.29,1.6,1.39-.78,4.22-1.21,6.38-.66,3.27,4,7.14,5.37,9.82,3.48,6.82,3.34,14.13.72,21.24-1.9,5.15-7.89,15.8-8.92,16.11-3.54,1.07-19.22,1.07-20.91-1.35C1124.72,4127.83,1123.16,4117.74,1122.72,4111Zm7.24-21.57c-.24-4.81-8.8-.17-6.1,4.69C1126.44,4098.77,1130.13,4092.43,1130,4089.4Z"/><path class="b" d="M916.73,3858c-1.14-8.91,7.75-12.16,14.61-9.81,9,3.09,9,8.8,17.12,1.11,4.14-3.94,10.22-11.28,16.89-7.61,6.43,3.54,5,17.29,3.17,22.57-3.67,10.59-16.66,31.52-29,24.28S916.84,3872,916.73,3858Z"/><path class="d" d="M1151.39,3855.81s19.59,11.85,34.62-16.9c0,0,17.13,10,36.73-5.87l2.71,20.56s-9.7,14.09-31.33,9.92c0,0-7.86,15.09-27.47,15.54Z"/><path class="c" d="M720.84,3970.85c1-4.85,22.95-29.66,26.28-29.56,4.59.15,16.4,33.6,15.25,39.72-1.21,6.43-24.85,31.7-28.21,30.8C729.94,4010.69,720.53,3978.56,720.84,3970.85Z"/><path class="d" d="M354.36,4078.16c-10.37,0-45.86-.74-50.23-.74-5,0-8.74-.93-9.55-3.18-2.82-7.78.66-15.23,7-16a18.41,18.41,0,0,1,9.51,1.49,25,25,0,0,1,5.05-6.8,22.36,22.36,0,0,1,17.54-6.57c4.82.2,14.52.33,21.5,7.1,3.33,3.23,4.27,11.28,4.27,11.28s9.54-1.66,12.68,3.54c1.24,2.05.92,5-.79,7.57C369.86,4078,360.81,4078.16,354.36,4078.16Z"/><path class="e" d="M535.54,4111c-.29-4.42,1.05-9.09-.33-12.64s-3.23-4.94-2.67-9.14c.42-3.2,1.81-6,4.76-7.36,1.56-.75,3.44-.37,5-1.07s2.34-2.29,4.29-2.71c3.37-.73,15.3-.7,19.92,3.29,1.6,1.39-.78,4.22-1.21,6.38-.66,3.27,4,7.14,5.37,9.82,3.48,6.82,3.34,14.13.72,21.24-1.9,5.15-7.89,15.8-8.92,16.11-3.54,1.07-19.22,1.07-20.91-1.35C537.54,4127.83,536,4117.74,535.54,4111Zm7.24-21.57c-.25-4.81-8.8-.17-6.1,4.69C539.26,4098.77,543,4092.43,542.78,4089.4Z"/><path class="b" d="M329.54,3858c-1.13-8.91,7.76-12.16,14.62-9.81,9,3.09,9,8.8,17.11,1.11,4.15-3.94,10.22-11.28,16.9-7.61,6.43,3.54,5,17.29,3.17,22.57-3.67,10.59-16.66,31.52-29,24.28S329.66,3872,329.54,3858Z"/><path class="d" d="M564.21,3855.81s19.59,11.85,34.62-16.9c0,0,17.13,10,36.73-5.87l2.71,20.56s-9.7,14.09-31.33,9.92c0,0-7.86,15.09-27.47,15.54Z"/><path class="c" d="M133.66,3970.85c1-4.85,23-29.66,26.28-29.56,4.59.15,16.4,33.6,15.25,39.72-1.21,6.43-24.85,31.7-28.22,30.8C142.76,4010.69,133.35,3978.56,133.66,3970.85Z"/><path class="d" d="M1088.34,3644c-10.37,0-45.87-.74-50.23-.74-5,0-8.74-.92-9.56-3.18-2.81-7.77.66-15.23,7-16.05a18.42,18.42,0,0,1,9.5,1.5,24.93,24.93,0,0,1,5.06-6.8,22.38,22.38,0,0,1,17.54-6.58c4.82.21,14.52.33,21.5,7.1,3.32,3.23,4.27,11.29,4.27,11.29s9.53-1.66,12.68,3.54c1.23,2,.91,5-.79,7.57C1103.83,3643.85,1094.78,3644,1088.34,3644Z"/><path class="b" d="M1063.52,3423.83c-1.14-8.92,7.76-12.17,14.62-9.81,9,3.09,9,8.79,17.11,1.1,4.14-3.94,10.22-11.27,16.9-7.6,6.43,3.53,5,17.28,3.16,22.57-3.66,10.59-16.66,31.52-29,24.28S1063.64,3437.79,1063.52,3423.83Z"/><path class="c" d="M867.64,3536.66c1-4.85,23-29.67,26.27-29.56,4.6.15,16.41,33.6,15.26,39.72-1.21,6.43-24.86,31.69-28.22,30.8C876.73,3576.5,867.33,3544.37,867.64,3536.66Z"/><path class="d" d="M501.16,3644c-10.37,0-45.87-.74-50.24-.74-5,0-8.73-.92-9.55-3.18-2.81-7.77.66-15.23,7-16.05a18.45,18.45,0,0,1,9.5,1.5,24.93,24.93,0,0,1,5.06-6.8,22.38,22.38,0,0,1,17.54-6.58c4.82.21,14.52.33,21.5,7.1,3.32,3.23,4.27,11.29,4.27,11.29s9.53-1.66,12.67,3.54c1.24,2,.92,5-.78,7.57C516.65,3643.85,507.6,3644,501.16,3644Z"/><path class="e" d="M682.33,3676.78c-.29-4.42,1-9.09-.32-12.65s-3.24-4.93-2.68-9.14c.43-3.2,1.81-5.94,4.77-7.35,1.56-.75,3.43-.37,5-1.08s2.35-2.28,4.29-2.7c3.38-.73,15.31-.7,19.92,3.29,1.61,1.39-.78,4.22-1.21,6.37-.65,3.28,4,7.15,5.37,9.82,3.48,6.82,3.34,14.14.73,21.24-1.9,5.16-7.9,15.81-8.92,16.12-3.55,1.07-19.22,1.07-20.92-1.35C684.34,3693.64,682.78,3683.54,682.33,3676.78Zm7.24-21.58c-.24-4.8-8.79-.17-6.1,4.7C686.06,3664.57,689.74,3658.23,689.57,3655.2Z"/><path class="b" d="M476.34,3423.83c-1.14-8.92,7.76-12.17,14.62-9.81,9,3.09,9,8.79,17.11,1.1,4.14-3.94,10.22-11.27,16.9-7.6,6.43,3.53,5,17.28,3.16,22.57-3.66,10.59-16.66,31.52-28.95,24.28S476.46,3437.79,476.34,3423.83Z"/><path class="d" d="M711,3421.61s19.59,11.86,34.62-16.9c0,0,17.13,10,36.72-5.86l2.72,20.55s-9.71,14.1-31.34,9.93a32.18,32.18,0,0,1-27.46,15.54Z"/><path class="c" d="M280.46,3536.66c1-4.85,23-29.67,26.27-29.56,4.59.15,16.4,33.6,15.26,39.72-1.21,6.43-24.86,31.69-28.22,30.8C289.55,3576.5,280.14,3544.37,280.46,3536.66Z"/><path class="e" d="M95.15,3676.78c-.29-4.42,1-9.09-.32-12.65s-3.24-4.93-2.68-9.14c.43-3.2,1.81-5.94,4.77-7.35,1.55-.75,3.43-.37,5-1.08s2.35-2.28,4.29-2.7c3.38-.73,15.31-.7,19.92,3.29,1.61,1.39-.78,4.22-1.21,6.37-.65,3.28,4,7.15,5.37,9.82,3.48,6.82,3.34,14.14.72,21.24-1.89,5.16-7.89,15.81-8.91,16.12-3.55,1.07-19.22,1.07-20.92-1.35C97.16,3693.64,95.6,3683.54,95.15,3676.78Zm7.24-21.58c-.24-4.8-8.79-.17-6.1,4.7C98.88,3664.57,102.56,3658.23,102.39,3655.2Z"/><path class="d" d="M123.82,3421.61s19.6,11.86,34.62-16.9c0,0,17.14,10,36.73-5.86l2.72,20.55s-9.71,14.1-31.34,9.93a32.18,32.18,0,0,1-27.46,15.54Z"/><path class="d" d="M1235.13,3209.77c-10.36,0-45.86-.74-50.23-.74-5,0-8.73-.93-9.55-3.18-2.81-7.78.66-15.23,7-16a18.5,18.5,0,0,1,9.5,1.49,25.06,25.06,0,0,1,5.05-6.79,22.39,22.39,0,0,1,17.55-6.58c4.81.2,14.52.33,21.49,7.1,3.33,3.23,4.27,11.28,4.27,11.28s9.54-1.66,12.68,3.54c1.24,2,.92,5-.79,7.58C1250.63,3209.65,1241.58,3209.77,1235.13,3209.77Z"/><path class="b" d="M1210.32,2989.64c-1.14-8.92,7.75-12.17,14.61-9.81,9,3.08,9,8.79,17.12,1.1,4.14-3.94,10.22-11.28,16.89-7.61,6.43,3.54,5,17.29,3.17,22.58-3.67,10.59-16.66,31.51-29,24.27S1210.43,3003.6,1210.32,2989.64Z"/><path class="c" d="M1014.43,3102.46c1-4.84,23-29.66,26.28-29.55,4.59.14,16.4,33.6,15.25,39.71-1.21,6.44-24.85,31.7-28.21,30.81C1023.53,3142.31,1014.12,3110.17,1014.43,3102.46Z"/><path class="d" d="M648,3209.77c-10.36,0-45.86-.74-50.23-.74-5,0-8.74-.93-9.55-3.18-2.82-7.78.66-15.23,7-16a18.53,18.53,0,0,1,9.51,1.49,25.06,25.06,0,0,1,5.05-6.79,22.39,22.39,0,0,1,17.55-6.58c4.81.2,14.52.33,21.49,7.1,3.33,3.23,4.27,11.28,4.27,11.28s9.54-1.66,12.68,3.54c1.24,2,.92,5-.79,7.58C663.45,3209.65,654.4,3209.77,648,3209.77Z"/><path class="e" d="M829.13,3242.58c-.29-4.41,1-9.08-.33-12.64s-3.23-4.93-2.67-9.14c.43-3.2,1.81-5.94,4.76-7.36,1.56-.74,3.44-.37,5-1.07s2.34-2.29,4.29-2.71c3.37-.72,15.3-.69,19.92,3.29,1.6,1.39-.78,4.22-1.21,6.38-.66,3.28,4,7.14,5.37,9.82,3.48,6.82,3.34,14.13.72,21.24-1.9,5.16-7.89,15.8-8.92,16.11-3.54,1.07-19.22,1.07-20.91-1.35C831.13,3259.44,829.57,3249.35,829.13,3242.58Zm7.24-21.57c-.25-4.81-8.8-.17-6.1,4.7C832.85,3230.38,836.54,3224,836.37,3221Z"/><path class="b" d="M623.14,2989.64c-1.14-8.92,7.75-12.17,14.61-9.81,9,3.08,9,8.79,17.12,1.1,4.14-3.94,10.21-11.28,16.89-7.61,6.43,3.54,5,17.29,3.17,22.58-3.67,10.59-16.66,31.51-29,24.27S623.25,3003.6,623.14,2989.64Z"/><path class="d" d="M857.8,2987.42s19.59,11.86,34.62-16.9c0,0,17.13,10,36.73-5.86l2.71,20.55s-9.7,14.1-31.33,9.92c0,0-7.86,15.09-27.47,15.54Z"/><path class="c" d="M427.25,3102.46c1-4.84,22.95-29.66,26.28-29.55,4.59.14,16.4,33.6,15.25,39.71-1.21,6.44-24.85,31.7-28.22,30.81C436.35,3142.31,426.94,3110.17,427.25,3102.46Z"/><path class="d" d="M60.77,3209.77c-10.37,0-45.86-.74-50.23-.74-5,0-8.74-.93-9.55-3.18-2.82-7.78.65-15.23,7-16a18.53,18.53,0,0,1,9.51,1.49,25.06,25.06,0,0,1,5.05-6.79,22.36,22.36,0,0,1,17.54-6.58c4.82.2,14.52.33,21.5,7.1,3.33,3.23,4.27,11.28,4.27,11.28s9.54-1.66,12.68,3.54c1.23,2,.91,5-.79,7.58C76.27,3209.65,67.21,3209.77,60.77,3209.77Z"/><path class="e" d="M242,3242.58c-.29-4.41,1.05-9.08-.33-12.64s-3.23-4.93-2.67-9.14c.42-3.2,1.81-5.94,4.76-7.36,1.56-.74,3.44-.37,5-1.07s2.34-2.29,4.29-2.71c3.37-.72,15.3-.69,19.92,3.29,1.6,1.39-.78,4.22-1.21,6.38-.66,3.28,4,7.14,5.37,9.82,3.48,6.82,3.33,14.13.72,21.24-1.9,5.16-7.89,15.8-8.92,16.11-3.55,1.07-19.22,1.07-20.91-1.35C244,3259.44,242.39,3249.35,242,3242.58Zm7.24-21.57c-.25-4.81-8.8-.17-6.1,4.7C245.67,3230.38,249.35,3224,249.19,3221Z"/><path class="b" d="M36,2989.64c-1.14-8.92,7.76-12.17,14.62-9.81,9,3.08,9,8.79,17.11,1.1,4.15-3.94,10.22-11.28,16.9-7.61,6.43,3.54,5,17.29,3.17,22.58-3.67,10.59-16.66,31.51-29,24.27S36.07,3003.6,36,2989.64Z"/><path class="d" d="M270.62,2987.42s19.59,11.86,34.62-16.9c0,0,17.13,10,36.73-5.86l2.71,20.55s-9.7,14.1-31.33,9.92c0,0-7.86,15.09-27.47,15.54Z"/><path class="c" d="M1161.23,2668.27c1-4.85,23-29.67,26.27-29.56,4.6.15,16.41,33.6,15.26,39.72-1.21,6.43-24.86,31.7-28.22,30.8C1170.32,2708.11,1160.92,2676,1161.23,2668.27Z"/><path class="d" d="M794.75,2775.57c-10.37,0-45.87-.74-50.23-.74-5,0-8.74-.92-9.56-3.18-2.81-7.77.66-15.22,7-16a18.39,18.39,0,0,1,9.5,1.49,24.93,24.93,0,0,1,5.06-6.8,22.38,22.38,0,0,1,17.54-6.58c4.82.21,14.52.34,21.5,7.11,3.32,3.23,4.27,11.28,4.27,11.28s9.53-1.66,12.67,3.54c1.24,2,.92,5-.78,7.57C810.24,2775.46,801.19,2775.57,794.75,2775.57Z"/><path class="e" d="M975.92,2808.39c-.29-4.42,1.05-9.09-.32-12.65s-3.24-4.93-2.68-9.13c.43-3.2,1.81-6,4.77-7.36,1.56-.75,3.43-.37,5-1.07s2.35-2.29,4.29-2.71c3.38-.73,15.31-.7,19.92,3.29,1.61,1.39-.78,4.22-1.21,6.38-.65,3.27,4,7.14,5.38,9.82,3.47,6.82,3.33,14.13.72,21.24-1.9,5.15-7.9,15.8-8.92,16.11-3.55,1.07-19.22,1.07-20.91-1.35C977.93,2825.25,976.37,2815.15,975.92,2808.39Zm7.24-21.57c-.24-4.81-8.79-.18-6.1,4.69C979.65,2796.19,983.33,2789.85,983.16,2786.82Z"/><path class="c" d="M574.05,2668.27c1-4.85,23-29.67,26.27-29.56,4.6.15,16.41,33.6,15.26,39.72-1.21,6.43-24.86,31.7-28.22,30.8C583.14,2708.11,573.74,2676,574.05,2668.27Z"/><path class="d" d="M207.57,2775.57c-10.37,0-45.87-.74-50.24-.74-5,0-8.73-.92-9.55-3.18-2.81-7.77.66-15.22,7-16a18.39,18.39,0,0,1,9.5,1.49,24.93,24.93,0,0,1,5.06-6.8,22.38,22.38,0,0,1,17.54-6.58c4.82.21,14.52.34,21.49,7.11,3.33,3.23,4.28,11.28,4.28,11.28s9.53-1.66,12.67,3.54c1.24,2,.92,5-.78,7.57C223.06,2775.46,214,2775.57,207.57,2775.57Z"/><path class="e" d="M388.74,2808.39c-.29-4.42,1.05-9.09-.32-12.65s-3.24-4.93-2.68-9.13c.43-3.2,1.81-6,4.77-7.36,1.55-.75,3.43-.37,5-1.07s2.35-2.29,4.29-2.71c3.38-.73,15.31-.7,19.92,3.29,1.61,1.39-.78,4.22-1.21,6.38-.65,3.27,4,7.14,5.37,9.82,3.48,6.82,3.34,14.13.73,21.24-1.9,5.15-7.9,15.8-8.92,16.11-3.55,1.07-19.22,1.07-20.92-1.35C390.75,2825.25,389.19,2815.15,388.74,2808.39Zm7.24-21.57c-.24-4.81-8.79-.18-6.1,4.69C392.47,2796.19,396.15,2789.85,396,2786.82Z"/><rect class="a" x="-1174.36" y="2667.62" width="1174.36" height="1736.77"/><path class="d" d="M1.12,3209.77c-10.37,0-45.86-.74-50.23-.74-5,0-8.74-.93-9.55-3.18-2.82-7.78.65-15.23,7-16a18.53,18.53,0,0,1,9.51,1.49,25.06,25.06,0,0,1,5-6.79,22.36,22.36,0,0,1,17.54-6.58c4.82.2,14.52.33,21.5,7.1,3.33,3.23,4.27,11.28,4.27,11.28s9.54-1.66,12.68,3.54c1.23,2,.91,5-.79,7.58C16.62,3209.65,7.56,3209.77,1.12,3209.77Z"/><path class="b" d="M-23.7,2989.64c-1.14-8.92,7.76-12.17,14.62-9.81,9,3.08,9,8.79,17.11,1.1,4.15-3.94,10.22-11.28,16.9-7.61,6.43,3.54,5,17.29,3.17,22.58-3.67,10.59-16.66,31.51-29,24.27S-23.58,3003.6-23.7,2989.64Z"/><rect class="a" x="368.15" y="889.21" width="1174.36" height="1736.77"/><path class="b" d="M1078.43,2513.8c-1.14-8.91,7.76-12.16,14.62-9.81,9,3.09,9,8.8,17.11,1.11,4.15-3.94,10.22-11.28,16.9-7.61,6.43,3.54,5,17.29,3.17,22.58-3.67,10.58-16.66,31.51-29,24.27S1078.55,2527.77,1078.43,2513.8Z"/><path class="c" d="M882.55,2626.63c1-4.84,23-29.66,26.27-29.56,4.6.15,16.41,33.61,15.26,39.72-1.21,6.43-24.85,31.7-28.22,30.81C891.65,2666.48,882.24,2634.34,882.55,2626.63Z"/><path class="b" d="M491.25,2513.8c-1.14-8.91,7.76-12.16,14.62-9.81,9,3.09,9,8.8,17.11,1.11,4.14-3.94,10.22-11.28,16.9-7.61,6.43,3.54,5,17.29,3.16,22.58-3.66,10.58-16.66,31.51-28.95,24.27S491.37,2527.77,491.25,2513.8Z"/><path class="d" d="M725.92,2511.59s19.59,11.86,34.62-16.9c0,0,17.13,10,36.72-5.86l2.72,20.55s-9.71,14.1-31.33,9.92c0,0-7.86,15.09-27.47,15.54Z"/><path class="d" d="M1250.05,2299.74c-10.37,0-45.87-.74-50.24-.74-5,0-8.73-.92-9.55-3.18-2.81-7.77.66-15.22,7-16.05a18.45,18.45,0,0,1,9.5,1.5,24.93,24.93,0,0,1,5.06-6.8,22.38,22.38,0,0,1,17.54-6.58c4.82.21,14.52.33,21.49,7.11,3.33,3.22,4.27,11.28,4.27,11.28s9.54-1.66,12.68,3.54c1.24,2,.92,5-.78,7.57C1265.54,2299.63,1256.49,2299.74,1250.05,2299.74Z"/><path class="b" d="M1225.23,2079.61c-1.14-8.91,7.76-12.17,14.62-9.81,9,3.09,9,8.8,17.11,1.11,4.14-3.94,10.22-11.28,16.89-7.61,6.44,3.53,5,17.29,3.17,22.57-3.67,10.59-16.66,31.52-29,24.28S1225.35,2093.57,1225.23,2079.61Z"/><path class="c" d="M1029.35,2192.44c1-4.85,22.94-29.67,26.27-29.56,4.59.15,16.4,33.6,15.25,39.72-1.2,6.43-24.85,31.69-28.21,30.8C1038.44,2232.28,1029,2200.15,1029.35,2192.44Z"/><path class="d" d="M662.86,2299.74c-10.36,0-45.86-.74-50.23-.74-5,0-8.73-.92-9.55-3.18-2.81-7.77.66-15.22,7-16.05a18.45,18.45,0,0,1,9.5,1.5,25,25,0,0,1,5-6.8,22.42,22.42,0,0,1,17.55-6.58c4.81.21,14.52.33,21.49,7.11,3.33,3.22,4.27,11.28,4.27,11.28s9.54-1.66,12.68,3.54c1.24,2,.92,5-.78,7.57C678.36,2299.63,669.31,2299.74,662.86,2299.74Z"/><path class="e" d="M844,2332.56c-.29-4.42,1.05-9.09-.32-12.65s-3.24-4.93-2.68-9.14c.43-3.2,1.81-5.94,4.77-7.35,1.55-.75,3.43-.37,5-1.07s2.35-2.29,4.29-2.71c3.38-.73,15.31-.7,19.92,3.29,1.6,1.39-.78,4.22-1.21,6.38-.65,3.27,4,7.14,5.37,9.82,3.48,6.81,3.34,14.13.72,21.23-1.89,5.16-7.89,15.81-8.92,16.12-3.54,1.07-19.21,1.07-20.91-1.35C846.05,2349.42,844.49,2339.32,844,2332.56Zm7.24-21.58c-.24-4.8-8.8-.17-6.1,4.7C847.77,2320.36,851.45,2314,851.28,2311Z"/><path class="b" d="M638.05,2079.61c-1.14-8.91,7.76-12.17,14.62-9.81,9,3.09,9,8.8,17.11,1.11,4.14-3.94,10.22-11.28,16.89-7.61,6.43,3.53,5,17.29,3.17,22.57-3.67,10.59-16.66,31.52-29,24.28S638.17,2093.57,638.05,2079.61Z"/><path class="d" d="M872.71,2077.39s19.59,11.86,34.62-16.9c0,0,17.14,10,36.73-5.86l2.72,20.56s-9.71,14.09-31.34,9.92A32.18,32.18,0,0,1,888,2100.65Z"/><path class="c" d="M442.17,2192.44c1-4.85,22.94-29.67,26.27-29.56,4.59.15,16.4,33.6,15.25,39.72-1.2,6.43-24.85,31.69-28.21,30.8C451.26,2232.28,441.85,2200.15,442.17,2192.44Z"/><path class="c" d="M1176.14,1758.24c1-4.84,22.95-29.66,26.27-29.55,4.6.14,16.41,33.6,15.26,39.71-1.21,6.44-24.85,31.7-28.22,30.81C1185.24,1798.09,1175.83,1766,1176.14,1758.24Z"/><path class="d" d="M809.66,1865.55c-10.37,0-45.86-.74-50.23-.74-5,0-8.74-.93-9.55-3.18-2.82-7.78.65-15.23,7-16.05a18.47,18.47,0,0,1,9.5,1.49,25.24,25.24,0,0,1,5.06-6.79A22.36,22.36,0,0,1,789,1833.7c4.82.21,14.52.33,21.5,7.1,3.33,3.23,4.27,11.29,4.27,11.29s9.54-1.66,12.68,3.53c1.23,2.05.91,5-.79,7.58C825.16,1865.43,816.1,1865.55,809.66,1865.55Z"/><path class="e" d="M990.84,1898.36c-.3-4.41,1-9.08-.33-12.64s-3.24-4.93-2.67-9.14c.42-3.2,1.81-5.94,4.76-7.36,1.56-.74,3.44-.36,5-1.07s2.34-2.28,4.29-2.7c3.37-.73,15.3-.7,19.91,3.29,1.61,1.38-.77,4.21-1.21,6.37-.65,3.28,4,7.14,5.38,9.82,3.48,6.82,3.33,14.13.72,21.24-1.9,5.16-7.89,15.8-8.92,16.11-3.55,1.08-19.22,1.08-20.91-1.34C992.84,1915.23,991.28,1905.13,990.84,1898.36Zm7.24-21.57c-.25-4.81-8.8-.17-6.11,4.7C994.56,1886.16,998.24,1879.82,998.08,1876.79Z"/><path class="b" d="M784.84,1645.42c-1.14-8.92,7.76-12.17,14.62-9.81,9,3.08,9,8.79,17.11,1.1,4.14-3.94,10.22-11.28,16.9-7.61,6.43,3.54,5,17.29,3.16,22.58-3.66,10.59-16.66,31.52-29,24.28S785,1659.38,784.84,1645.42Z"/><path class="d" d="M1019.51,1643.2s19.59,11.86,34.62-16.9c0,0,17.13,10,36.72-5.86l2.72,20.55s-9.7,14.1-31.33,9.93c0,0-7.86,15.08-27.47,15.53Z"/><path class="c" d="M589,1758.24c1-4.84,22.95-29.66,26.27-29.55,4.6.14,16.41,33.6,15.26,39.71-1.21,6.44-24.85,31.7-28.22,30.81C598.05,1798.09,588.65,1766,589,1758.24Z"/><path class="e" d="M403.65,1898.36c-.29-4.41,1.06-9.08-.32-12.64s-3.24-4.93-2.68-9.14c.43-3.2,1.81-5.94,4.77-7.36,1.56-.74,3.43-.36,5-1.07s2.35-2.28,4.3-2.7c3.37-.73,15.3-.7,19.91,3.29,1.61,1.38-.78,4.21-1.21,6.37-.65,3.28,4,7.14,5.38,9.82,3.48,6.82,3.33,14.13.72,21.24-1.9,5.16-7.9,15.8-8.92,16.11-3.55,1.08-19.22,1.08-20.91-1.34C405.66,1915.23,404.1,1905.13,403.65,1898.36Zm7.25-21.57c-.25-4.81-8.8-.17-6.11,4.7C407.38,1886.16,411.06,1879.82,410.9,1876.79Z"/><path class="d" d="M432.33,1643.2s19.59,11.86,34.62-16.9c0,0,17.13,10,36.72-5.86l2.72,20.55s-9.71,14.1-31.33,9.93c0,0-7.86,15.08-27.47,15.53Z"/><path class="d" d="M956.46,1431.36c-10.37,0-45.87-.74-50.24-.74-5,0-8.73-.93-9.55-3.18-2.81-7.78.66-15.23,7-16a18.39,18.39,0,0,1,9.5,1.49,25.1,25.1,0,0,1,5.06-6.8,22.38,22.38,0,0,1,17.54-6.57c4.81.2,14.52.33,21.49,7.1,3.33,3.23,4.27,11.28,4.27,11.28s9.54-1.66,12.68,3.54c1.24,2,.92,5-.78,7.57C972,1431.24,962.9,1431.36,956.46,1431.36Z"/><path class="e" d="M1137.63,1464.17c-.29-4.42,1-9.09-.32-12.64s-3.24-4.94-2.68-9.14c.43-3.2,1.81-5.94,4.77-7.36,1.55-.75,3.43-.37,5-1.07s2.35-2.29,4.29-2.71c3.38-.73,15.31-.7,19.92,3.29,1.61,1.39-.78,4.22-1.21,6.38-.65,3.27,4,7.14,5.37,9.82,3.48,6.82,3.34,14.13.72,21.24-1.89,5.16-7.89,15.8-8.91,16.11-3.55,1.07-19.22,1.07-20.92-1.35C1139.64,1481,1138.08,1470.94,1137.63,1464.17Zm7.24-21.57c-.24-4.81-8.79-.17-6.1,4.69C1141.36,1452,1145,1445.63,1144.87,1442.6Z"/><path class="b" d="M931.64,1211.22c-1.14-8.91,7.76-12.16,14.62-9.81,9,3.09,9,8.8,17.11,1.11,4.14-3.94,10.22-11.28,16.89-7.61,6.44,3.54,5,17.29,3.17,22.58-3.67,10.58-16.66,31.51-28.95,24.27S931.76,1225.19,931.64,1211.22Z"/><path class="d" d="M1166.3,1209s19.59,11.85,34.62-16.9c0,0,17.14,10,36.73-5.86l2.72,20.55s-9.71,14.09-31.34,9.92a32.18,32.18,0,0,1-27.46,15.54Z"/><path class="c" d="M735.76,1324.05c1-4.85,22.94-29.66,26.27-29.56,4.59.15,16.4,33.61,15.25,39.72-1.2,6.43-24.85,31.7-28.21,30.8C744.85,1363.89,735.44,1331.76,735.76,1324.05Z"/><path class="d" d="M369.27,1431.36c-10.36,0-45.86-.74-50.23-.74-5,0-8.73-.93-9.55-3.18-2.81-7.78.66-15.23,7-16a18.39,18.39,0,0,1,9.5,1.49,25.18,25.18,0,0,1,5.05-6.8,22.42,22.42,0,0,1,17.55-6.57c4.81.2,14.52.33,21.49,7.1,3.33,3.23,4.27,11.28,4.27,11.28s9.54-1.66,12.68,3.54c1.24,2,.92,5-.78,7.57C384.77,1431.24,375.72,1431.36,369.27,1431.36Z"/><path class="e" d="M550.45,1464.17c-.29-4.42,1-9.09-.32-12.64s-3.24-4.94-2.68-9.14c.43-3.2,1.81-5.94,4.76-7.36,1.56-.75,3.44-.37,5-1.07s2.35-2.29,4.29-2.71c3.38-.73,15.3-.7,19.92,3.29,1.6,1.39-.78,4.22-1.21,6.38-.65,3.27,4,7.14,5.37,9.82,3.48,6.82,3.34,14.13.72,21.24-1.89,5.16-7.89,15.8-8.92,16.11-3.54,1.07-19.21,1.07-20.91-1.35C552.46,1481,550.89,1470.94,550.45,1464.17Zm7.24-21.57c-.24-4.81-8.8-.17-6.1,4.69C554.18,1452,557.86,1445.63,557.69,1442.6Z"/><path class="b" d="M344.46,1211.22c-1.14-8.91,7.76-12.16,14.62-9.81,9,3.09,9,8.8,17.11,1.11,4.14-3.94,10.22-11.28,16.89-7.61,6.43,3.54,5,17.29,3.17,22.58-3.67,10.58-16.66,31.51-29,24.27S344.58,1225.19,344.46,1211.22Z"/><path class="d" d="M579.12,1209s19.59,11.85,34.62-16.9c0,0,17.14,10,36.73-5.86l2.72,20.55s-9.71,14.09-31.34,9.92c0,0-7.86,15.09-27.47,15.54Z"/><path class="d" d="M1103.25,997.16c-10.37,0-45.86-.74-50.23-.74-5,0-8.74-.92-9.55-3.18-2.82-7.77.65-15.22,7-16a18.47,18.47,0,0,1,9.51,1.5,25,25,0,0,1,5-6.8,22.4,22.4,0,0,1,17.54-6.58c4.82.21,14.52.33,21.5,7.1,3.33,3.23,4.27,11.29,4.27,11.29s9.54-1.66,12.68,3.54c1.23,2,.91,5-.79,7.57C1118.75,997.05,1109.69,997.16,1103.25,997.16Z"/><path class="c" d="M882.55,889.86c1-4.85,23-29.67,26.27-29.56,4.6.15,16.41,33.6,15.26,39.72-1.21,6.43-24.85,31.69-28.22,30.8C891.65,929.7,882.24,897.57,882.55,889.86Z"/><path class="d" d="M516.07,997.16c-10.37,0-45.86-.74-50.23-.74-5,0-8.74-.92-9.55-3.18-2.82-7.77.65-15.22,7-16a18.42,18.42,0,0,1,9.5,1.5,25.19,25.19,0,0,1,5.06-6.8,22.4,22.4,0,0,1,17.54-6.58c4.82.21,14.52.33,21.5,7.1,3.33,3.23,4.27,11.29,4.27,11.29s9.54-1.66,12.68,3.54c1.23,2,.91,5-.79,7.57C531.57,997.05,522.51,997.16,516.07,997.16Z"/><path class="e" d="M697.24,1030c-.29-4.42,1.06-9.09-.32-12.65s-3.24-4.93-2.67-9.14c.42-3.2,1.8-5.94,4.76-7.35,1.56-.75,3.44-.37,5-1.08s2.35-2.28,4.3-2.7c3.37-.73,15.3-.7,19.91,3.29,1.61,1.39-.78,4.22-1.21,6.38-.65,3.27,4,7.14,5.38,9.81,3.48,6.82,3.33,14.14.72,21.24-1.9,5.16-7.89,15.81-8.92,16.12-3.55,1.07-19.22,1.07-20.91-1.35C699.25,1046.84,697.69,1036.74,697.24,1030Zm7.25-21.58c-.25-4.8-8.8-.17-6.11,4.7C701,1017.78,704.65,1011.43,704.49,1008.4Z"/><rect class="a" x="-865.86" y="889.21" width="1174.36" height="1736.77"/><path class="c" d="M235.72,2626.63c1-4.84,23-29.66,26.27-29.56,4.6.15,16.41,33.61,15.26,39.72-1.21,6.43-24.86,31.7-28.22,30.81C244.81,2666.48,235.41,2634.34,235.72,2626.63Z"/><path class="d" d="M79.09,2511.59s19.59,11.86,34.62-16.9c0,0,17.13,10,36.72-5.86l2.72,20.55s-9.71,14.1-31.33,9.92c0,0-7.86,15.09-27.47,15.54Z"/><path class="d" d="M16,2299.74c-10.36,0-45.86-.74-50.23-.74-5,0-8.74-.92-9.55-3.18-2.81-7.77.66-15.22,7-16.05a18.45,18.45,0,0,1,9.5,1.5,25,25,0,0,1,5-6.8,22.42,22.42,0,0,1,17.55-6.58c4.81.21,14.52.33,21.49,7.11,3.33,3.22,4.27,11.28,4.27,11.28s9.54-1.66,12.68,3.54c1.24,2,.92,5-.79,7.57C31.53,2299.63,22.48,2299.74,16,2299.74Z"/><path class="e" d="M197.21,2332.56c-.29-4.42,1-9.09-.33-12.65s-3.23-4.93-2.67-9.14c.43-3.2,1.81-5.94,4.76-7.35,1.56-.75,3.44-.37,5-1.07s2.35-2.29,4.29-2.71c3.38-.73,15.3-.7,19.92,3.29,1.6,1.39-.78,4.22-1.21,6.38-.66,3.27,4,7.14,5.37,9.82,3.48,6.81,3.34,14.13.72,21.23-1.9,5.16-7.89,15.81-8.92,16.12-3.54,1.07-19.21,1.07-20.91-1.35C199.21,2349.42,197.65,2339.32,197.21,2332.56Zm7.24-21.58c-.24-4.8-8.8-.17-6.1,4.7C200.94,2320.36,204.62,2314,204.45,2311Z"/><path class="b" d="M-8.78,2079.61c-1.14-8.91,7.75-12.17,14.61-9.81,9,3.09,9,8.8,17.12,1.11,4.14-3.94,10.22-11.28,16.89-7.61,6.43,3.53,5,17.29,3.17,22.57-3.67,10.59-16.66,31.52-29,24.28S-8.67,2093.57-8.78,2079.61Z"/><path class="d" d="M225.88,2077.39s19.59,11.86,34.62-16.9c0,0,17.13,10,36.73-5.86l2.71,20.56s-9.7,14.09-31.33,9.92c0,0-7.86,15.09-27.47,15.54Z"/><path class="d" d="M162.83,1865.55c-10.37,0-45.87-.74-50.23-.74-5,0-8.74-.93-9.56-3.18-2.81-7.78.66-15.23,7-16.05a18.47,18.47,0,0,1,9.5,1.49,25,25,0,0,1,5.06-6.79,22.35,22.35,0,0,1,17.54-6.58c4.82.21,14.52.33,21.5,7.1,3.32,3.23,4.27,11.29,4.27,11.29s9.54-1.66,12.68,3.53c1.23,2.05.91,5-.79,7.58C178.32,1865.43,169.27,1865.55,162.83,1865.55Z"/><path class="b" d="M138,1645.42c-1.14-8.92,7.76-12.17,14.62-9.81,9,3.08,9,8.79,17.11,1.1,4.14-3.94,10.22-11.28,16.9-7.61,6.43,3.54,5,17.29,3.16,22.58-3.66,10.59-16.66,31.52-29,24.28S138.13,1659.38,138,1645.42Z"/><path class="d" d="M309.62,1431.36c-10.36,0-45.86-.74-50.23-.74-5,0-8.73-.93-9.55-3.18-2.81-7.78.66-15.23,7-16a18.39,18.39,0,0,1,9.5,1.49,25.18,25.18,0,0,1,5-6.8,22.42,22.42,0,0,1,17.55-6.57c4.81.2,14.52.33,21.49,7.1,3.33,3.23,4.27,11.28,4.27,11.28s9.54-1.66,12.68,3.54c1.24,2,.92,5-.78,7.57C325.12,1431.24,316.07,1431.36,309.62,1431.36Z"/><path class="b" d="M284.81,1211.22c-1.14-8.91,7.76-12.16,14.62-9.81,9,3.09,9,8.8,17.11,1.11,4.14-3.94,10.22-11.28,16.89-7.61,6.43,3.54,5,17.29,3.17,22.58-3.67,10.58-16.66,31.51-29,24.27S284.93,1225.19,284.81,1211.22Z"/><path class="c" d="M88.93,1324.05c1-4.85,22.94-29.66,26.27-29.56,4.59.15,16.4,33.61,15.25,39.72-1.21,6.43-24.85,31.7-28.21,30.8C98,1363.89,88.61,1331.76,88.93,1324.05Z"/><path class="d" d="M-67.71,1209s19.59,11.85,34.62-16.9c0,0,17.13,10,36.73-5.86l2.71,20.55s-9.7,14.09-31.33,9.92c0,0-7.86,15.09-27.47,15.54Z"/><path class="c" d="M235.72,889.86c1-4.85,23-29.67,26.27-29.56,4.6.15,16.41,33.6,15.26,39.72-1.21,6.43-24.86,31.69-28.22,30.8C244.81,929.7,235.41,897.57,235.72,889.86Z"/><path class="e" d="M50.41,1030c-.29-4.42,1.05-9.09-.32-12.65s-3.24-4.93-2.68-9.14c.43-3.2,1.81-5.94,4.77-7.35,1.56-.75,3.43-.37,5-1.08s2.35-2.28,4.29-2.7c3.38-.73,15.31-.7,19.92,3.29,1.61,1.39-.78,4.22-1.21,6.38-.65,3.27,4,7.14,5.38,9.81,3.47,6.82,3.33,14.14.72,21.24-1.9,5.16-7.9,15.81-8.92,16.12-3.55,1.07-19.22,1.07-20.91-1.35C52.42,1046.84,50.86,1036.74,50.41,1030Zm7.25-21.58c-.25-4.8-8.8-.17-6.11,4.7C54.14,1017.78,57.82,1011.43,57.66,1008.4Z"/><rect class="a" x="676.66" y="-889.21" width="1174.36" height="1736.77"/><path class="c" d="M1191.06,848.22c1-4.85,22.94-29.67,26.27-29.56,4.59.15,16.4,33.6,15.25,39.72-1.21,6.43-24.85,31.7-28.21,30.8C1200.15,888.06,1190.74,855.93,1191.06,848.22Z"/><path class="b" d="M799.76,735.39c-1.14-8.91,7.75-12.16,14.61-9.81,9,3.09,9,8.8,17.12,1.11,4.14-3.94,10.22-11.28,16.89-7.61,6.43,3.53,5,17.29,3.17,22.57-3.67,10.59-16.66,31.52-29,24.28S799.87,749.35,799.76,735.39Z"/><path class="d" d="M1034.42,733.17S1054,745,1069,716.28c0,0,17.13,10,36.73-5.87l2.71,20.56s-9.7,14.09-31.33,9.92c0,0-7.86,15.09-27.47,15.54Z"/><path class="d" d="M971.37,521.33c-10.37,0-45.87-.74-50.23-.74-5,0-8.74-.92-9.56-3.18-2.81-7.78.66-15.23,7-16a18.5,18.5,0,0,1,9.5,1.49,25,25,0,0,1,5.06-6.79,22.38,22.38,0,0,1,17.54-6.58c4.82.21,14.52.33,21.5,7.1,3.32,3.23,4.27,11.29,4.27,11.29s9.53-1.66,12.67,3.54c1.24,2,.92,5-.78,7.57C986.86,521.22,977.81,521.33,971.37,521.33Z"/><path class="e" d="M1152.54,554.14c-.29-4.41,1-9.08-.32-12.64s-3.24-4.93-2.68-9.14c.43-3.2,1.81-5.94,4.77-7.35,1.56-.75,3.43-.37,5-1.08s2.35-2.28,4.29-2.7c3.38-.73,15.31-.7,19.92,3.29,1.61,1.39-.78,4.22-1.21,6.37-.65,3.28,4,7.14,5.38,9.82,3.47,6.82,3.33,14.14.72,21.24-1.9,5.16-7.9,15.81-8.92,16.12-3.55,1.07-19.22,1.07-20.91-1.35C1154.55,571,1153,560.91,1152.54,554.14Zm7.25-21.57c-.25-4.8-8.8-.17-6.11,4.7C1156.27,541.94,1160,535.6,1159.79,532.57Z"/><path class="b" d="M946.55,301.2c-1.14-8.92,7.76-12.17,14.62-9.81,9,3.08,9,8.79,17.11,1.1,4.14-3.94,10.22-11.27,16.9-7.6,6.43,3.53,5,17.28,3.16,22.57-3.66,10.59-16.66,31.52-29,24.28S946.67,315.16,946.55,301.2Z"/><path class="d" d="M1181.22,299s19.59,11.86,34.62-16.9c0,0,17.13,10,36.72-5.86l2.72,20.55s-9.71,14.1-31.33,9.93c0,0-7.86,15.09-27.47,15.54Z"/><path class="c" d="M750.67,414c1-4.85,23-29.67,26.27-29.56,4.6.15,16.41,33.6,15.26,39.72C791,430.62,767.34,455.88,764,455,759.76,453.87,750.36,421.74,750.67,414Z"/><path class="d" d="M1118.16,87.14c-10.36,0-45.86-.74-50.23-.74-5,0-8.74-.93-9.55-3.18-2.81-7.78.66-15.23,7-16a18.39,18.39,0,0,1,9.5,1.49,25.18,25.18,0,0,1,5-6.8,22.42,22.42,0,0,1,17.55-6.57c4.81.2,14.52.33,21.49,7.1,3.33,3.23,4.27,11.28,4.27,11.28s9.54-1.66,12.68,3.54c1.24,2.05.92,5-.79,7.58C1133.66,87,1124.61,87.14,1118.16,87.14Z"/><path class="c" d="M897.46-20.17c1-4.84,22.95-29.66,26.28-29.56,4.59.15,16.4,33.61,15.25,39.72-1.21,6.44-24.85,31.7-28.21,30.81C906.56,19.68,897.15-12.46,897.46-20.17Z"/><path class="e" d="M712.16,120c-.29-4.41,1.05-9.08-.33-12.64s-3.23-4.94-2.67-9.14c.43-3.2,1.81-5.94,4.76-7.36,1.56-.74,3.44-.37,5-1.07s2.34-2.29,4.29-2.71c3.37-.72,15.3-.7,19.92,3.29,1.6,1.39-.78,4.22-1.21,6.38-.66,3.28,4,7.14,5.37,9.82,3.48,6.82,3.34,14.13.72,21.24-1.9,5.16-7.89,15.8-8.92,16.11-3.54,1.07-19.22,1.07-20.91-1.35C714.16,136.81,712.6,126.72,712.16,120Zm7.24-21.57c-.25-4.81-8.8-.17-6.1,4.7C715.88,107.75,719.57,101.41,719.4,98.38Z"/><rect class="a" x="-557.36" y="-889.21" width="1174.36" height="1736.77"/><path class="c" d="M544.22,848.22c1-4.85,22.95-29.67,26.28-29.56,4.59.15,16.4,33.6,15.25,39.72-1.21,6.43-24.85,31.7-28.22,30.8C553.32,888.06,543.91,855.93,544.22,848.22Z"/><path class="b" d="M152.92,735.39c-1.14-8.91,7.76-12.16,14.62-9.81,9,3.09,9,8.8,17.11,1.11,4.15-3.94,10.22-11.28,16.9-7.61,6.43,3.53,5,17.29,3.17,22.57-3.67,10.59-16.66,31.52-29,24.28S153,749.35,152.92,735.39Z"/><path class="d" d="M387.59,733.17s19.59,11.86,34.62-16.89c0,0,17.13,10,36.73-5.87L461.65,731s-9.7,14.09-31.33,9.92c0,0-7.86,15.09-27.47,15.54Z"/><path class="d" d="M324.54,521.33c-10.37,0-45.87-.74-50.24-.74-5,0-8.73-.92-9.55-3.18-2.81-7.78.66-15.23,7-16a18.5,18.5,0,0,1,9.5,1.49,25,25,0,0,1,5.06-6.79,22.38,22.38,0,0,1,17.54-6.58c4.82.21,14.52.33,21.49,7.1,3.33,3.23,4.28,11.29,4.28,11.29s9.53-1.66,12.67,3.54c1.24,2,.92,5-.78,7.57C340,521.22,331,521.33,324.54,521.33Z"/><path class="e" d="M505.71,554.14c-.29-4.41,1.05-9.08-.32-12.64s-3.24-4.93-2.68-9.14c.43-3.2,1.81-5.94,4.77-7.35,1.55-.75,3.43-.37,5-1.08s2.35-2.28,4.29-2.7c3.38-.73,15.31-.7,19.92,3.29,1.61,1.39-.78,4.22-1.21,6.37-.65,3.28,4,7.14,5.37,9.82,3.48,6.82,3.34,14.14.73,21.24-1.9,5.16-7.9,15.81-8.92,16.12-3.55,1.07-19.22,1.07-20.92-1.35C507.72,571,506.16,560.91,505.71,554.14ZM513,532.57c-.24-4.8-8.79-.17-6.1,4.7C509.44,541.94,513.12,535.6,513,532.57Z"/><path class="b" d="M299.72,301.2c-1.14-8.92,7.76-12.17,14.62-9.81,9,3.08,9,8.79,17.11,1.1,4.14-3.94,10.22-11.27,16.9-7.6,6.43,3.53,5,17.28,3.16,22.57-3.66,10.59-16.66,31.52-28.95,24.28S299.84,315.16,299.72,301.2Z"/><path class="d" d="M534.39,299S554,310.84,569,282.08c0,0,17.14,10,36.73-5.86l2.72,20.55s-9.71,14.1-31.34,9.93a32.18,32.18,0,0,1-27.46,15.54Z"/><path class="c" d="M103.84,414c1-4.85,22.94-29.67,26.27-29.56,4.59.15,16.4,33.6,15.26,39.72-1.21,6.43-24.86,31.69-28.22,30.8C112.93,453.87,103.52,421.74,103.84,414Z"/><path class="d" d="M-52.8,299s19.59,11.86,34.62-16.9c0,0,17.14,10,36.73-5.86l2.72,20.55s-9.71,14.1-31.34,9.93a32.18,32.18,0,0,1-27.46,15.54Z"/><path class="d" d="M471.33,87.14c-10.37,0-45.86-.74-50.23-.74-5,0-8.74-.93-9.55-3.18-2.82-7.78.66-15.23,7-16a18.41,18.41,0,0,1,9.51,1.49,25.18,25.18,0,0,1,5.05-6.8,22.39,22.39,0,0,1,17.54-6.57c4.82.2,14.52.33,21.5,7.1,3.33,3.23,4.27,11.28,4.27,11.28S486,72,489.1,77.21c1.24,2.05.92,5-.79,7.58C486.83,87,477.78,87.14,471.33,87.14Z"/><path class="c" d="M250.63-20.17c1-4.84,22.95-29.66,26.28-29.56,4.59.15,16.4,33.61,15.25,39.72C291-3.57,267.31,21.69,263.94,20.8,259.73,19.68,250.32-12.46,250.63-20.17Z"/><path class="e" d="M65.33,120c-.29-4.41,1-9.08-.33-12.64s-3.24-4.94-2.67-9.14c.42-3.2,1.81-5.94,4.76-7.36,1.56-.74,3.44-.37,5-1.07s2.34-2.29,4.29-2.71c3.37-.72,15.3-.7,19.91,3.29,1.61,1.39-.77,4.22-1.21,6.38-.65,3.28,4,7.14,5.38,9.82,3.48,6.82,3.33,14.13.72,21.24-1.9,5.16-7.89,15.8-8.92,16.11-3.55,1.07-19.22,1.07-20.91-1.35C67.33,136.81,65.77,126.72,65.33,120Zm7.24-21.57c-.25-4.81-8.8-.17-6.11,4.7C69.05,107.75,72.73,101.41,72.57,98.38Z"/></pattern></defs><title>Element 29</title><rect class="f" width="1208.7" height="1839"/></svg>