<svg xmlns="http://www.w3.org/2000/svg" viewBox="0 0 666.63 666.63"><defs><style>.cls-1,.cls-2,.cls-3,.cls-4{fill:none;}.cls-1,.cls-2,.cls-3{stroke:#000;}.cls-1,.cls-3{stroke-linecap:round;}.cls-1,.cls-2{stroke-linejoin:round;}.cls-1{stroke-width:9.5px;}.cls-2{stroke-linecap:square;}.cls-2,.cls-3{stroke-width:13px;}.cls-3{stroke-linejoin:bevel;}</style></defs><title>BB LogoElement 157</title><g id="Ebene_2" data-name="Ebene 2"><g id="Logo"><g id="_LOGO_updated_2412_" data-name="&lt;LOGO updated 2412&gt;"><path class="cls-1" d="M159,466.79c29.08,99.1,112.74,148.51,122.48,148.74,25.3.61,102.27,1.26,132.48,0,6.46-.27,12.28-3.15,17.7-6.68,39-25.32,84.19-81.83,105.17-142"/><path class="cls-1" d="M186.55,201.25c-2.9,6.54-5.38,12.9-8.08,19.36-.4.9-.77,1.8-1.15,2.71C168,246,160.27,270.83,149.16,287c-7.43,10.86-16.36,17.85-28.3,17.78-22.15-.13-39-7.14-50.67-17.78-30.33-27.66-25.8-80,11.33-100.39,28.82-15.86,69.76-13.95,79.49-13.43,50.61,2.68,68,26.85,65.54,37.67-3.13,13.79-22.89,14.31-35.71,13.59-3.79-.21-7-.54-8.94-.64-1.69-.11-3.22-.29-4.58-.51-9-1.42-11.2-4.83-11.2-4.83a67.48,67.48,0,0,1,12.35,2.12,108.39,108.39,0,0,1,12.37,3.86c3.56,1.33,7.41,3,11.49,5,22.56,11,30.66,31.28,24.69,50a27.08,27.08,0,0,1-3.76,7.55c-13.88,19.58-51.77,18.46-65.2,6.88"/><path class="cls-1" d="M238.33,303.1a16,16,0,0,0,7.15-1.62c5.85-2.71,11.4-8.41,14.76-14.45,5.24-9.37,5.22-19.49-7.08-20.34-10.07-.7-15.23,9.93-14.3,20.34.49,5.43,2.65,10.8,6.62,14.45a18.44,18.44,0,0,0,13.43,4.64c15.93-.45,22.48-8.12,29.92-19.09,1.3-1.93,2.63-4,4.05-6.06.09-.52.16-.54.2-.31a1.8,1.8,0,0,0-.2.31,50.14,50.14,0,0,0-.34,6.06c-.11,4.29-.09,11.2.19,22,.29,4.62,3.42-12.22,8.94-22,2.54-4.48,5.59-7.45,9.1-6.1a14.73,14.73,0,0,1,5.05,6.1c3.58,7,5.29,17.47,5.43,23.17,1.33-4.63,4.05-16.38,8.24-23.17,2-3.31,4.4-5.47,7.14-5.07a6.83,6.83,0,0,1,6,5.07c2.81,8.5-3.29,24.31,7.79,22.92,8.74-2.33,17.19-7.32,22.8-16.81.34-.54.64-1.11.95-1.69a32.5,32.5,0,0,0,2.07-4.42c7.95-20,23.07-86.38.41-86-23.62,0-19,54-6.13,86,.86,2.14,1.76,4.19,2.7,6.11,4.49,9.31,9.71,15.79,15,16.81,14,1.69,21.52-13.84,18.16-22.92a9.1,9.1,0,0,0-6.19-5.81c-5.48-1.91-6.31,2-6.2,5.81,0,1.76.27,3.49.32,4.62"/><path class="cls-1" d="M201.28,157.9c16.25-28.2-18.18-88.31,29.55-89.84,138.3-4.39,290.85.68,290.82,10.91,0,10.47-35,13.74-54.83,30.68-10.41,8.92-12,14.11-4,23.76,10.92,13.24,52.27,70.81,64.95,96.75,15.44,31.57,13,56.93,0,63.15-22.82,10.91-44.43-12.36-50-19.82-25-33.07-46.26-86.66-23.28-95,17.74-6.48,36.78,53.31,27.7,90.4a63.51,63.51,0,0,1-6.62,16.95c-5,8-14.38,18.33-32,20.2-6.94.73-12-1.15-15.39-4.44-3.79-3.65-5.61-9.05-5.83-14.53-.45-10.38,4.72-21.06,12.64-21,13.31.15,14.05,11.12,8.82,21-3.35,6.33-9.14,12.22-15.63,14.53a17.23,17.23,0,0,1-5.56,1"/><path class="cls-2" d="M185.66,389.55c8.63,1.22,13.81,9.56,14.24,16.21.2,3.14.72,9.84.8,13.13.06,2.75-.12,8.18-.22,11-.1,2.47-1.43,4.44-5.19,4-2.72-.34-13.43-1.72-16.32-2.18-4.16-.68-17.35-2.75-17.35-2.75-.66,0-2.14-1.3-2.09-2L150,340.19a1.82,1.82,0,0,1,2-2.05s16.53,2.88,22.43,4.08c18,3.27,17.8,12.6,18.07,22.22l.31,11.12C192.94,381.11,193.73,388.76,185.66,389.55Zm0,0L160,385.27"/><path class="cls-2" d="M245.32,347.94c12.58.41,20.15,3,20.78,15.11l2,63.23c.61,11.83-4,19.86-17.19,20.08l-.93,0c-12.42.54-18.71-6.72-19.41-18.61l-3.73-62.4C226.08,353.09,230.45,347.45,245.32,347.94Z"/><path class="cls-2" d="M332.39,353.55l2,75.06c0,12.29-3.34,23.19-16.14,23.29h-.48C305,452,299.06,441.27,299,428.78l-1.3-75.34"/><path class="cls-2" d="M366.89,448.92l-2.27-96,38,93.35-1.48-93.83"/><path class="cls-2" d="M471.07,416.84c.18,19.65-2.68,26.76-18.65,27.22l2.16,0c-12.36.48-18.37-6.33-18.62-18.42l-1.65-61.77c-.24-11.74,5.63-16.78,18.19-17.1h.24c13.32-1,19.12,4.35,19.59,17.56"/><path class="cls-3" d="M532.74,424.92l-26.88,5.87a1.67,1.67,0,0,1-1.81-1.88l.83-87.35a1.79,1.79,0,0,1,1.91-1.94L539,334.21M506.64,385.7l23.69-4.62"/><rect class="cls-4" width="666.63" height="666.63"/></g></g></g></svg>